<?xml version="1.0" encoding="utf-8"?>
<!-- Generator: Adobe Illustrator 26.3.1, SVG Export Plug-In . SVG Version: 6.00 Build 0)  -->
<svg version="1.1" id="圖層_1" xmlns="http://www.w3.org/2000/svg" xmlns:xlink="http://www.w3.org/1999/xlink" x="0px" y="0px"
	 viewBox="0 0 48 48" style="enable-background:new 0 0 48 48;" xml:space="preserve">
<style type="text/css">
	.st0{fill:#77B8B7;}
</style>
<path class="st0" d="M35.4,24.6c-0.2-0.2-0.4-0.3-0.6-0.4C34.5,24.1,34.3,24,34,24c-0.3,0-0.5,0.1-0.8,0.2c-0.2,0.1-0.5,0.2-0.6,0.4
	l-3.2,3.2c-1.5-0.4-4.2-1.4-6-3.2c-1.7-1.7-2.7-4.5-3.2-6l3.2-3.2c0.2-0.2,0.3-0.4,0.4-0.6c0.1-0.2,0.2-0.5,0.2-0.8
	s-0.1-0.5-0.2-0.8c-0.1-0.2-0.2-0.5-0.4-0.6l-8-8c-0.2-0.2-0.4-0.3-0.6-0.4C14.5,4.1,14.3,4,14,4c-0.3,0-0.5,0.1-0.8,0.2
	c-0.2,0.1-0.5,0.2-0.6,0.4L7.2,10C6.4,10.8,6,11.8,6,12.9c0,2.8,0.8,12.7,8.6,20.5c7.8,7.8,17.7,8.5,20.5,8.6h0.1
	c1.1,0,2.1-0.4,2.8-1.2l5.4-5.4c0.2-0.2,0.3-0.4,0.4-0.6c0.1-0.2,0.2-0.5,0.2-0.8s-0.1-0.5-0.2-0.8c-0.1-0.2-0.2-0.5-0.4-0.6
	L35.4,24.6z M35.2,38c-2.5,0-11-0.7-17.7-7.4C10.7,23.9,10,15.3,10,12.8l4-4l5.2,5.2l-2.6,2.6c-0.2,0.2-0.4,0.5-0.5,0.8
	c-0.1,0.3-0.1,0.7,0,1c0,0.2,1.2,5.7,4.5,9s8.8,4.5,9,4.5c0.3,0.1,0.7,0.1,1,0c0.3-0.1,0.6-0.3,0.8-0.5l2.6-2.6l5.2,5.2L35.2,38z"/>
</svg>
