<?xml version="1.0" encoding="UTF-8"?><svg id="_圖層_1" xmlns="http://www.w3.org/2000/svg" viewBox="0 0 210 390"><defs><style>.cls-1{fill:#007978;}.cls-1,.cls-2,.cls-3{stroke:#fff;stroke-width:.5px;}.cls-2{fill:#9fc3c3;}.cls-3{fill:#b1b1b1;}</style></defs><path id="_02" class="cls-2" d="M203.33,37.82l-.17-.2h-.8l-.6.38-1.05.44h-1.5l-1.15.44-.55.71-.95.88-1.05.38-1.2-.16-1.15-.44-.75.11-.8.44-.3.82-.15.77.4.82.6.71.2.88-.35.99-.65.66-.95.55-.7.27-1.4.05-1.35.27-1.75,1.81-.35,1.48-.1.93-.5.71-.9.38-1.35.11-.8-.27-.8-.11-.85.38-.65.77-.4.66-.65.22-.75.16-.75.55-.35.77-.8.6-.8.38-.8.11-.6.27-.8.16-1,.27-.85.11h-1l-.4.55-.5,1.37-.7-.18-.9.11-.4.38-.7.44-.1.71v1.04l-.25.49-.55.49.1.66.3.44.5.49.05,1.31-.15.6-.45.77-.5.49-.6.16-1,1.04-1.05.11-1.3.22-.7.99-.6.6-1.15.71-1,.49-1.2.11-.65.6-.8.11-1.15-.16-.37.16-.13.06-.35-.6.05-1.31-.7-.71-.75-.33-1-1.15-1.05-2.02-.65-1.37-.7-1.15-.15-1.31.35-.88,1.05-.88.7-.77.2-.88-.45-.33-.55-.93-.45-1.26-.85-.82-.95-1.2-.75-.71-1.3-.55h-1.05l-.85.33h-1.1l-1-.55-1.55-.55-.1-.51.9-.16.2-.33-.65-.82-.05-.93-.4-1.26-.6-.93-.7-.44-.75-1.1-.15-.71.3-.66.6-.6.15-.55-.45-.22-.6-.11-.15-.71.15-.88.5-.6v-1.15l-.1-.99-.2-.66.3-.6h4.66l.75-.77.5-.93.75-.22.35-.33.5-.33.05-.71-.3-.22-.1-.55.6-.38.4-.16.2-.55-.25-.49-.8-.49-.15-1.21.15-.88-.5-1.04-.7-.44-1.55-.05-2.26-.33-.4-.55-.3-.93-.55-1.04-1-.44-1.1-.66-1-.16-1.45-.33-.9-.71-.75-.93.88-.44.45-.37.97-.04,1.77.21,1.84-.16.71-.25.83-.45.79-.37.79-.7,1.84-.91.79-.33.56-.41.56-.58.73-1.44,1.01-.16.79.33,1.35,1.65.56.91.34,1.4.56,1.4.42.55.09.77.35.38,1.5.82,1.4.11.8.82.85,1.37.05,1.48-.1,2.09-.85.82-.7.77-.1.77.15,1.54.75.55.9-.38.65-.82h.75l.85,1.04.5,2.3.9.6,1.05.33.65,1.26,1.05.77h1.95l1.3.49,1.2-.11.25-.88-.4-.49-.6-.49v-1.37l-.35-1.15v-.99l.25-.66.95-.77,1.75.11,2.45-.22h1l.3-.44-.35-.44-1.1-.16-.65.16-1.25-.71-.7-.6-.5-.55.1-.49.6-.33-.35-.6-.45-.44v-.55l.5-.49.5-.71.2-.71-.05-.99-.35-.77-.95-.71-.9-.33-.95-.71.15-.93.65-.93-.4-.6-.9-.88-.45-.71.15-.77-.15-1.15-.6-.44-.25-.88.25-1.32-.5-.44-1.05-.22-.45-.27-.35-.88-.55-.33-.25.16-.25.55-.55.55-.55.44-.15.6-1.3.55-.75.66-.55.33-.95.22-.55.6-.9,1.1-1,1.48-.95.93-.4,2.03-.65.11-.69.16.48-1.08-.11-1.85-.68-1.24-.68-.99-1.2-1.3-.94-.49-.98-.25-.79-.45-.07-.29.56-.41.56-.29.38-1.28.34-.78,1.24-1.24.19-.62.23-.45.6-1.85.56-.41.94-.25h.9l.34-.33.38-.91.3-.87.6-.45.56-.21,1.16-.66.49-.62.6-.25.68.08,1.2.04.3-.62.49-.54.45.16.22.33,1.95.04.6-.99.53-.25.49.25.53.82.83.33.6.37.98.29,1.09.74.64.62.66,1.15.45.99.08,1.28.49.78,1.09.41.26.45-.15.54.04.54.53.7.6.62.6.49,1.95.08.83-.33.49-.45v.33l-.3,1.15-.49.33-.23.74.15.58.82.31.51.4.53.11v.17l-.19.58-.53.37-1.8.7-.56.33-.79.37-1.05.33-.86.04-.49.53-1.43.37-.45.41.45,1.15,1.43.86-.04.9.3.66.34,1.07.6.53.45.7.45.53,1.01.12.45.33.75.82,1.35.16,1.13.37,1.09,1.15.45.53,1.28.25,1.32-.04.94-.41,1.69-.86.38-.78-.41-.9-.75-.37-.56-.41-.23-.74.15-.91.6-.9.56-.62.64-.41.49-.12.56.33.41.33.56-.33.49-.82.49-.62.36-.97.1-.16.67.03.19,1.41.56.21.44-.31,1.28-.34.5.38,3.32.03,1.06.45,1.25-.07.41-.38.88-.03.38-.41.88-.38.25.62-.47.72.12.72.22.41.03.72-.47.45-.22.75-.16,1.13.13.93.81.41.5.51.25.51v3.26l.56.65,1.56,1.23,1.07-.1.88-.92.78.14,1.53.99,1.38.24.35.55-.09.55-.47.55-.66.27-1,.55-.75.07-.63.55-.69.44-1.53.06Z"/><path class="cls-3" d="M104.31,214.87l.28-.36.41-.24.71-.08.64-.33.49-.36.49-.16.19-.24.6-.2.19-.61-.04-.81-.45-.57-.41-.37.04-.45.45-.28.15-.69.41-.81.49-.73.64-.41.26-.53.26-.77.52-.45.49-.12h.79l.53-.2,1.01-.24.83-.08,1.13.69.64.28.79-.24.79-.69.86-.24v-2.77l.22-.73.22-.49.6-.41-.04-.41-.45-1.1-.26-.41v-.41l.38-.24.9-.08.75.16.6-.2.88-.57.83-.69h.86l.83-.08.56-.81.64-1.18.26-1.59.26-1.95.38-1.59.22-1.83.45-1.34.26-1.06-.04-2.66-.56-.77-.26-.65-.04-.98-.45-.69-.94-1.06-.86-.37-.34-.45.07-.85.53-.69.71-.12.6-.45.3-.37.04-.93-.38-1.06,1.24-1.22.22-1.43.19-1.75.68-.77.6-1.63.38-.65.98-.41.45-.53.08-1.02-.68-1.3.23-.57.68-.73.52-.37.11-.65-.38-.61-.19-.54.08-4.73-.26-.86-.6-.41-.07-1.26,1.39-2.86.53-.78.15-.98.07-2,.41-.94.9-.53.64-.73,1.35-1.14.45-.82.23-.82v-1.46l-.53-.65-.83-.04-.3-.61-.56-.98-.68-.53-.98-.29-.34-.9v-1.47l.49-1.27.49-.94.98-.33,1.39-.9.53-.82.52-.41.56-.33,1.61-.2.38-.45-.04-1.02-.45-.45-.11-.62.71-.37.34-.57-.11-.73.56-.74.71-.2.75-.29.75-.45.45-.69-.08-1.51v-.98l.41-.49.86-.24.49-.57.34-.74.68-.74.6-.21,1.24-.24.56-.78.3-.65.26-.78.38-1.39v-1.23l.26-.49.56-.29.45-.33.21-.37.36.39.79.65,1.05.53,1.46.65,1.39.12,2.48.29,1.46.41,1.54.82,1.39,1.15,1.39.29,1.05.33.94.16.82-.41.11-.57-.64-.57-.19-.41.38-.49.64-.25,1.35-.37h.79l.45-.29-.11-.49-.49-.49-.19-.74.3-.9.68.08.53.45.6.69.79.2,1.05.41.94.78,1.12.78,3.04,1.1,1.92.12,1.39.37.71.37.86.53,1.48-.04-.06.75-.29.48-.67.79-.73.51-.44.51-.35.6-.44,1.43-.06.96-.91.89-.18.32-1.02.83-.35-.07-.7.35-.35.48-.35.7v.41l-.15.22-.56.35-.55.22-.15.22-.5.19-.58.61-.29.03-.79.38-.32.38-.29.64-.29.32-.55,1.27-.23.96.06.92.12.67.47.79.12.57.03.83-.06.41-.24.7-.79,1.37-.73.7-1.14.67-.64.51-.41.41-.38.64-.32.73-.32.57-.2,1.02.03,1.62.12.51.44,1.37.23.35.73,1.46.26.41.64.57.55.38.35.92v.35l-.38.51-.12.41-.2.09-.32.57-.06.6-.26-.06.26-.45.18-.79-.18-.32h-.23l.21.86-.18.51-.53.7-.47.25-.03.41.21.16-.12.41-.35-.44h-.32l-.41.25-.29.54.03.29-.64.63-.15.63v.48l.35.83.17.86.06.6-.21.25-.06.73-.23.44-.03.38-.23.73v.54l.12.57-.12.67v.54l-.26,1.24v.41l-.61,2.63-.23.76-.35.67-.38.92-.23.38v.54l-.18.57-.2.32-.67.73v.38l-.26.66-.12,1.74-.12.22.06.57v1.08l-.09.54.35.22-.06.6-.56,1.24v.38l-.38.51v.25l-.26.22-.12.6-.18.06-.15.41h-.32l-.41.73-.09.35v1.14l.09.51.21.13.26-.16-.23.82-.18.06v.44l-.21.57-.09.54-.18.16.12.51-.32.54.15.32-.26.29-.12.51.18.29-.18.51-.38.09-.26.38-.23.73v.54l-.29.57-.12.82.03,3.26-.17.44-.06.82-.18.13.03.7-.44.7v.51l-.21.03-.35.54-.06.29-.5.73-.11.82-.21.41.06.7-.12.57-.26.19-.09.82-.12.22.18,1.17-.06.6.09.41.35.98.41-.03.21.57-.12.57-.32.32-.21.79-.44.44-.15.32-.44-.13-.15.16-.5.03.12.25.47.13.29.19-.06.48-.29.82-.03.89-.09.16-.09,1.01h-.17l-.41.81-.2-.23-.69-.41-.63-.64-2.03-.34-1.31.24-.41.44-.94.3-.63.71-.44,1.05-.97,1.73-.53,1.52-.25.98.16,1.15,1.35.78.12.57-.85,1.56-.81,1.25-.91,1.18-.5,1.22-.44.51-.69.61-.19,1.01-.03,1.99-.62.64-.81.54-.25.91-.16,1.11-.44.74-.31.74-.5.84-.78,2.67-.41.98-.66.98-.97.91-.38.72-.09,6.25-.56.41-.78.4-1.75.07-.53.24-.6.54-.78-.07-.53-.4-.16-1.22-.38-.98-.53-.47-2.22-.58-1-.91-.91-.41-.23-.44-.25-1.15-.56-.61-.69-.44-.22-1.18.03-1.22-.5-.41-.47-1.01-.88-.47-.34-.44h-.91l-.59.4-.66.58-.53.2-.84-.34-.69-.4-.41-.91-.6-.71-1.03-.64-1.22-.37-1.19-.57-1.19-.2-.78-.71-1.19-2.23-.34-1.15.03-1.38-.37-.68-.47-.57-.25-.95-.43-.43.22-.21.1-1.14-.2-.84-.9-.65-1.25-.97-1.1-.76-1.1-.49-.7-.6-.93-.38-.45-.3.5-1.46.58-.35.58-.89.43-.79,1.4-.54.7-.41.15-2.19-.3-.89-.7-.11-.3-.75Z"/><path class="cls-3" d="M188.13,20.43l-.36.97-.49.62-.49.82-.56.33-.41-.33-.56-.33-.49.12-.64.41-.56.62-.6.9-.15.91.22.74.56.41.75.37.41.9-.38.78-1.69.86-.94.41-1.32.04-1.28-.25-.45-.53-1.09-1.15-1.13-.37-1.35-.16-.75-.82-.45-.33-1.01-.12-.45-.53-.45-.7-.6-.53-.34-1.07-.3-.66.04-.9-1.43-.86-.45-1.15.45-.41,1.43-.37.49-.53.86-.04,1.05-.33.79-.37.56-.33,1.8-.7.52-.37.19-.58.24.4-.14.13v.48l.93-.16.18.13.73-.06.29.23.26-.03.44.42.41-.1.23.42.99.06-.15.51.29.1-.12.54.06.38-.67.48-.32.48.15.26.35-.54.53-.13.26-.32.41-.23v-.19l.35-.42.12-.29-.23-.29-.03-.35-.29-.29.5-.45h.5l.41.35.64.03.06.16-.35.35.18.32.23.1.55-.03.32.29.03.38.62.22.17-.42.67.13.53-.1.06.22-.23.26-.12.39.12.48.26.06.29.29.32-.03Z"/><path id="_01" class="cls-2" d="M150.66,22.54l.69-.16.65-.11.4-2.03.95-.93,1-1.48.9-1.1.55-.6.95-.22.55-.33.75-.66,1.3-.55.15-.6.55-.44.55-.55.25-.55.25-.16.55.33.35.88.45.27,1.05.22.5.44-.25,1.32.25.88.6.44.15,1.15-.15.77.45.71.9.88.4.6-.65.93-.15.93.95.71.9.33.95.71.35.77.05.99-.2.71-.5.71-.5.49v.55l.45.44.35.6-.6.33-.1.49.5.55.7.6,1.25.71.65-.16,1.1.16.35.44-.3.44h-1l-2.45.22-1.75-.11-.95.77-.25.66v.99l.35,1.15v1.37l.6.49.4.49-.25.88-1.2.11-1.3-.49h-1.95l-1.05-.77-.65-1.26-1.05-.33-.9-.6-.5-2.3-.85-1.04h-.75l-.65.82-.9.38-.75-.55-.15-1.54.1-.77.7-.77.85-.82.1-2.09-.05-1.48-.85-1.37-.8-.82-1.4-.11-1.5-.82-.35-.38-.09-.77Z"/><path id="_03" class="cls-2" d="M153.06,73.35l-.06.18-.81.27h-.88l-.63.27-.81.89-.44,2.05-.25.96-.63.96-.38.89-1.13,1.57-.94.61-1,.75-.81.34-1.25.27-1.25-.96-.88-.89-.38-1.09.62-1.84-.69-.41-.81-.41v-.68l.5-1.71.06-1.02-1.06-.27-.63-.55-.12-.89-.56-.82-1-.62-.56-.41-.75-.07-.62.27-.75.07-.06-.96.56-1.09.31-.75-.31-.48-.56-.55.19-1.91.38-.41-.06-.96-.69-1.09-1-.34-1.19-.2-1.63-1.03-.38-1.23-.75-.68-.31-.48-.56-.27-.81.27-.75.14-1.13.07-1.63-1.51-1.13-.68-.44-.41-1.63-1.09-.62-.96-1.25-.21-.25-.75.5-.75.5-1.1-.19-1.23-.56-.62-3.69.07-.69-.48-.12-.75-.69-.55-.56.16-.56.34-.75-.62-.63-.21-1.19-.48-.63-.48-.69-.41.38-1.1-.5-1.03-.19-.82-.88-.68-.81-.34-.94.21-.56.34-1.06-.07-.69-.27-.81.34-.44.41-1.25-.14.53-.44.06-.7.35-.45.26-.03.44-.29.47-.58.4-.81.82-.76.26-.58.09-.45.03-.83-.12-.38.44-.48.12-.54.23-.61,1.17-1.41-.23-.06.93-1.18.88-.9.09-.22.53-.19.2-.22.76-.32h.53l.53-.22.35-.38.44-.13.47-.55.73-.45.09-.22,1.08-.7.58-.06.67-.42.5-.13.67-.03.12-.16.73-.1.17-.16.59-.1.09-.13.99-.06.09-.13.82-.22.99-.48h.26l.15-.29.44-.42.67-.32.35.03,1.46-1.09.58-.26.12-.19.64-.29.76-.19.88-.06.29-.39h.21l.35.26.29-.06.18-.38-.21-.35.59.03.29-.14.35.04.5-.22.76.13.18.35.35.1.26-.1.41.13.33.43.75.93.9.71,1.45.33,1,.16,1.1.66,1,.44.55,1.04.3.93.4.55,2.25.33,1.55.05.7.44.5,1.04-.15.88.15,1.21.8.49.25.49-.2.55-.4.16-.6.38.1.55.3.22-.05.71-.5.33-.35.33-.75.22-.5.93-.75.77h-4.66l-.3.6.2.66.1.99v1.15l-.5.6-.15.88.15.71.6.11.45.22-.15.55-.6.6-.3.66.15.71.75,1.1.7.44.6.93.4,1.26.05.93.65.82-.2.33-.9.16.1.51,1.55.55,1,.55h1.1l.85-.33h1.05l1.3.55.75.71.95,1.2.85.82.45,1.26.55.93.45.33-.2.88-.7.77-1.05.88-.35.88.15,1.31.7,1.15.65,1.37,1.05,2.02,1,1.15.75.33.7.71-.05,1.31.35.6.13-.06Z"/><path class="cls-3" d="M96.15,53.75l.64,1.16,2.07.16,1.88.49.64.7.94.29,1.43.99,1.35,2.75.23,1.6.3.98-.19.9h-.53l-1.39-1.07-.53-.62-.75-.45-.68.29-.45.7-.75.33-.86.08-.49.45-.53.86-.86.49-1.13,1.31-.19,1.11-.34.9-.56.74-.53.25-.53-.45-.68-.41-.19-.86-.45-.37-.26-.57h-.56l-.71.41-.75.04-.37-.41-.09-.39.46-.38.29.03.88-.38.67-.57.23-.67-.03-1.25.64-.03.21-.35.03-.8.18-.77-.15-.16.06-.57.12-.1.06-.86-.03-.77-.12-.45.05-.48-.67.16-.41-.67.12-.48.47-.86.26-.67.53-.61.17-1.02.32.25.2-.51-.09-.35.41.03.32.42.12.45.29-.03-.09-.48.18-.06.17.62Z"/><path class="cls-3" d="M145.1,82.76l.37.44.41.68-.03,1.06-.41.65-.72.38-.59.48.16,1.02.25.89-.16,1.77-.5,1.06-.94,1.09-1.31,1.16-.88.72-.88.85-.91.34-.44.75-.44.92-.66.72-.72.61-.35.61-.33,1.05-.52.62-1.03.44h-1.75l-1.53.17-.91-.12-.12-.02-.22-.65-.25-2.66-.85-.85-.69-1.23-.75-.48-.81-.89-.72-.61-.12-.92-.35-.44-.75-.31-.81.07-1.5.75-2.57-.03h-3.29l-2.1.38-1.85.65-1.82-.27-.85-.61v-1.47l.34-.85.5-.68.28-.92-.75-1.5-.63-.41.03-.58.56-1.67.53-.72.34-.85.12-.72-.53-1.33-.41-.57-.66-.48-.41-.79-.94-.14-.62.27-.53-.07-.78-.79-.94-.48-.72-.68-.75-.38-.41-.61-1.1-.96-1.13-.58-.91-1.37-.44-.96-.5-.68-.5-.2.25-.75.63-.38.31-.62-.5-.62-1,.03-1.28.72-.85-.34-.75-.21-.57-.67.2-.09.56-.74.34-.9.19-1.11,1.13-1.31.86-.49.53-.86.49-.45.86-.08.75-.33.45-.7.68-.29.75.45.53.62,1.39,1.07h.53l.19-.9-.3-.98-.23-1.6-1.35-2.75-1.43-.99-.94-.29-.64-.7-1.88-.49-2.07-.16-.64-1.16.23-.49-.35-.48.58-.13v-.61l-.35.1-.06-.29.2-.38.38-.42.18-.45.2-.22.15-.58.23-.32.15-.61.26-.64.76-.83.2-.45.38-.29-.23-.61.15-.26-.03-.32.15-.38.41-.48.23-.48.41-.32.35-.58,1.25.14.44-.41.81-.34.69.27,1.06.07.56-.34.94-.21.81.34.88.68.19.82.5,1.03-.38,1.1.69.41.63.48,1.19.48.63.21.75.62.56-.34.56-.16.69.55.12.75.69.48,3.69-.07.56.62.19,1.23-.5,1.1-.5.75.25.75,1.25.21.62.96,1.63,1.09.44.41,1.13.68,1.63,1.51,1.13-.07.75-.14.81-.27.56.27.31.48.75.68.38,1.23,1.63,1.03,1.19.2,1,.34.69,1.09.06.96-.38.41-.19,1.91.56.55.31.48-.31.75-.56,1.09.06.96.75-.07.62-.27.75.07.56.41,1,.62.56.82.12.89.63.55,1.06.27-.06,1.02-.5,1.71v.68l.81.41.69.41-.62,1.84.38,1.09.88.89,1.25.96,1.25-.27.8-.34Z"/><path class="cls-3" d="M130.29,101.13l-.37.51-.44.07-.78.58-.22.31-.44,1.67-.31.34-.72.54-.28.51-.22,1.4-.44.17h-.84l-.38-.44-.22-.55-.19-.75-.6-.17-.47.24-.59,1.16-1.32.99-.5.75-.31.61-.85.48-1.16.14-1.34.1-.66.48-.44.58-.69.58-.19.92-.36.38-.81.41-.41.38-.69.38-2.41.1-.88.41-.59.48-.63.85-.5.92-.91.17h-1.25l-.63-.65-.63-1.43-.72-.89-1-.92-1.28-.34-3.29-.68-.91-.31-1.06-.17-1.19.04-.5.17-.56.38-.16.89.06.75.22.68.06.82v.85l-.25.58-.44.51-.91.24-.72-.03-3.41.24-2.47.03-1.06-.31-.97-.54-1.13-1.26-1-.82-1.35-.41-1.78-.2-1.06-.82-.94-.54-1.63-1.09-1.63-.89-1.47-.68-.61-.24-1.28-1.33-1-1.4-1.06-1.3-.78-1.06-.63-.38-.81-.1-.63-.31-.56-.96-.31-.78-.56-.99-.38-.48-.62-.58.54-.45,1.05-.54.26-.35.56-.38.18-.32.09-.45.26-.22.12.32h.32l.03-.29.24-.45-.5.06.18-.38.23.03.79-.89.18-.29-.09-.29.47-.48-.2-.25.09-.29.5-.32v-.64l.26-.16.15-.48.23-.29.32-.7.41-.67.15-.06.41-1.12.44-1.47.55-1.5.61-1.12.38-1.05.12-.99.29-.54.32-.92.79-1.18.32-.29.38.03.82-.38.67.51.29-.1.82-.57.35.03.5.19.7.54.58-.03.18-.19-.76-.54-.41-.41-.2-.35-.26-.19-.76.03.7-1.15v-.77l.18-.29.61-.7.29-.16-.12-.38h.29l.38-.35.58-.89.79-.03.7-.1,1.32-.38.41.06.23-.19.88.06.21-.1h.67l-.06-.83.32-.35.5-.32,1.78-1.72.09-.54.35-.13.35-.96.03-.7.38-.93.2-.06.38-.45,1.03-.8.09.39.37.41.75-.04.71-.41h.56l.26.57.45.37.19.86.68.41.53.45.33-.15.57.67.75.21.85.34,1.28-.72,1-.03.5.62-.31.62-.63.38-.25.75.5.2.5.68.44.96.91,1.37,1.13.58,1.1.96.41.61.75.38.72.68.94.48.78.79.53.07.63-.27.94.14.41.79.66.48.41.57.53,1.33-.12.72-.34.85-.53.72-.56,1.67-.03.58.63.41.75,1.5-.28.92-.5.68-.34.85v1.47l.85.61,1.82.27,1.85-.65,2.1-.38h3.29l2.57.03,1.5-.75.81-.07.75.31.35.44.12.92.72.61.81.89.75.48.69,1.23.85.85.25,2.66.22.65.12.02Z"/><path class="cls-3" d="M184.1,114.58l-1.48.04-.86-.53-.71-.37-1.39-.37-1.92-.12-3.04-1.1-1.13-.78-.94-.78-1.05-.41-.79-.2-.6-.69-.53-.45-.68-.08-.3.9.19.74.49.49.11.49-.45.29h-.79l-1.35.37-.64.25-.38.49.19.41.64.57-.11.57-.82.41-.94-.16-1.05-.33-1.39-.29-1.39-1.15-1.54-.82-1.46-.41-2.48-.29-1.39-.12-1.46-.65-1.05-.53-.79-.65-.36-.39-.58-.88-.86-.82-.9-.45-1.65.04-1.28.33-.86.33-.75.65-.64.45-.98.08-.83-1.1-.49-1.06-.75-.66-1.24-.16-1.69-.86-.3-.45v-.57l.34-.69.15-.98-.34-1.19-.45-.33-.31-.57.33-1.05.35-.61.72-.61.66-.72.44-.92.44-.75.91-.34.88-.85.88-.72,1.32-1.16.94-1.09.5-1.06.16-1.77-.25-.89-.16-1.02.59-.48.72-.38.41-.65.03-1.06-.41-.68-.37-.44h.01s1-.76,1-.76l.94-.61,1.13-1.57.38-.89.62-.96.25-.96.44-2.05.82-.89.63-.27h.88l.81-.27.06-.18.37-.16,1.15.16.8-.11.65-.6,1.2-.11,1-.49,1.15-.71.6-.6.7-.99,1.3-.22,1.05-.11,1-1.04.6-.16.5-.49.45-.77.15-.6-.05-1.31-.5-.49-.3-.44-.1-.66.55-.49.25-.49v-1.04l.1-.71.7-.44.4-.38.9-.11.7.18.5-1.37.4-.55h1l.85-.11,1-.27.8-.16.6-.27.8-.11.8-.38.8-.6.35-.77.75-.55.75-.16.65-.22.4-.66.65-.77.85-.38.8.11.8.27,1.35-.11.9-.38.5-.71.1-.93.35-1.48,1.75-1.81,1.35-.27,1.4-.05.7-.27.95-.55.65-.66.35-.99-.2-.88-.6-.71-.4-.82.15-.77.3-.82.8-.44.75-.11,1.15.44,1.2.16,1.05-.38.95-.88.55-.71,1.15-.44h1.5l1.05-.44.6-.38h.8l.17.2-.38.29-.38.13-.85.54-.82.22-.76.38-.32.41v.38l-.32.19-.21.32v.32l-.32.32-.53.13-.15.29-.44.26.03.64-.58.06-.35-.06-.44.26-.61.67.18.38v.42l-.29.26.09.64-.38.38-.24.1-.2.38-.73.8-.53.1-.21.51-.67.67-.62.13-.15.16-.17.61-.5.48-.26.42-.09.35-.38.7-.41,1.28-.12.22-.41,1.21-.47,1.92-.21,1.21-.35,2.62-.06,1.41.03,1.95.15,1.18.32,1.4.2.73.38.99.38.67.12.54.47,1.05-.12,1.28.03,1.02.29,2.55.41,1.88.61,1.63.41.83.15.45.23.29.15.45.76.8.41.16.44-.03.35.42.44-.03.38.25.15.51-.73.06.12-.22-.23-.22-.55.19-.7-.51-.64.16-.15.38.41.35.06.38.41-.38.23.06-.03.42-.21.16-.12.35.21.26.32-.22.41.54.53.48-.12.19-.53.1-.32.16.12.99-.03,1.31.15.8.23.41-.2.35.09.64.18.22-.56.73-.64.03-.38.13-.38.32-.7.26-.7.1-.21.25-.26.92-.03.7.09.54.15.19.41-.03.41.13.38.32-.15.19.03.83.17.22.85-.03.24.32-.09.22-.47.03-.12-.16-.7.1-.29.25-.35.03-.41.41-.15.32-.32.03-.23.29-.93.41-.35.6.12.22-.03.41-.55.57-.06.22-.53.51-.58.41-.58.73-.26.61-.2.73-.26.51-.06.42-.35,1.5v1.08l-.12.48-.03,1.5-.32.38-.17.48v.29l-.41.6-.23.86-.44.99-.18.54.18,1.4.18.64-.06.53Z"/><path id="_04a" class="cls-1" d="M150.45,108.91l-.21.37-.45.33-.56.29-.26.49v1.23l-.38,1.39-.26.78-.3.65-.56.78-1.24.24-.6.21-.68.74-.34.74-.49.57-.86.24-.41.49v.98l.08,1.51-.45.69-.75.45-.75.29-.71.2-.56.74.11.73-.34.57-.72.37h-.67l-1.01-.53h-.6l-.79-.53-.68-.2-.94.24-.68.29-1.09-.16-.79-.2-.68-.82-.56-.53-.64.04-.56.7-.11.73-.3.69-.49.61-1.17.08-1.05-.37-.98-.12-1.39.45-.38.16-.34.37-.41.29-.97-.29-1.09-.82-.56.08-.36.45-.64.25-.56.08-.45.61-.19.45-.45.78-.75.25-2.14.04h-1.31l-.38.45-.34.82-.53.74-1.09,1.18-.79.65-.68.69-1.01.24-2.25-.12-1.95.08-.45.21-.26.61-.41,1.63-.34.74-.6.49-.83.45-1.17.16-.71-.12-.71-.53-.68-.04-.83.37-1.09.69-.68.74-.68.33-.83.04-.86-.16-.64-.45-.19-.53-.64.04-.19.65v1.1l-.23.41-.49.65-.38.12-.22-.65-.11-1.22-.41-.57-.68-.29-.71-.12-.49-.53-.56-.45-.79.2-.41.57-.15.65-.3.74-.53.41-.23,1.1-.04,1.02-.3,1.06-.56.37-.79.08-1.2.94-.68,1.47-.15.73-.41,1.06-.26.82-.83.65-.71.98-.64.49-.9.33-.79.37-.9-.25-1.16-.2h-2.55l-.94-.16-1.13-.53-1.13-.45-.79-.53-.9-.98-1.28-.08-1.2-.33-.68-.12-.68-1.92.19-.86.3-.29-.15-.82-.83-.98-.41-2.04-.79-.82-.75-.45-1.24.12-1.35-.49-1.05-.24-.94-.61-1.16-.49-1.16-.61-.9-.65-.26-1.1.26-.82-.68-1.51-.3-.98-.68-1.06-.68-.82-.45-.78-.52-.29.15-.16.03-.48-1.08-.92-.23.03-.18-.25h-.26l-.35-.29-1.46-.51.15-.13.7.25.26-.95.12-.13.53-1.53.59-.13.09-.45.58-1.18.03-.73.47-1.27.7.13.73-1.56.41-.03.06.38-.29.25-.15.64v.6l-.21.32-.15.48-.2.29-.35.83h-.26l-.32-.22h-.35l-.06.35-.5,1.21-.06.35-.53,1.24.2.25.35-.06v-.41l.2-.1.2-.7.35-.76.59.26.32.6.23.26.18-.67-.2-.16-.12-.6.38-1.08.64-1.4.44-1.46.2-.13.41.19.17.45-.5.51.12.89.47-.57-.03-.48.23-.48-.03-.42-.18-.16v-.45l.47-.29.23.19.47-.03.2-.35-.32-.06-.58.1-.26-.06-.23.16-.67-.1-.21-.16.06-.32h.53l-.29-.48.03-.22.82-1.65.38.13.18.22.29-.25.41.25.76.32.47-.38.06-.95.15-.41-.26-1.11.18-.57.29-.25h.32l.23-.45.15-.03.06-.51.41-.35.06-.19.96-.86.23-.54.32-.38-.18-.7.23-.06.38-.67.06-.64.47-.64v-.51l.2-.35-.09-.29.41-.22-.23-.35.47-.61.29-.19.5-.57.44-.29.5-.92h.38l.57-1.5.62.58.38.48.56.99.31.78.56.96.63.31.81.1.63.38.78,1.06,1.06,1.3,1,1.4,1.28,1.33.61.24,1.47.68,1.63.89,1.63,1.09.94.54,1.06.82,1.78.2,1.35.41,1,.82,1.13,1.26.97.54,1.06.31,2.47-.03,3.41-.24.72.03.91-.24.44-.51.25-.58v-.85l-.06-.82-.22-.68-.06-.75.16-.89.56-.37.5-.17,1.19-.04,1.06.17.91.31,3.29.68,1.28.34,1,.92.72.89.63,1.43.63.65h1.25l.91-.17.5-.92.63-.85.6-.48.88-.41,2.41-.1.69-.38.41-.38.81-.41.36-.38.19-.92.69-.58.44-.58.66-.48,1.35-.1,1.16-.14.85-.48.31-.61.5-.75,1.31-.99.6-1.16.47-.24.6.17.19.75.22.55.38.44h.84l.44-.17.22-1.4.28-.51.72-.54.31-.34.44-1.67.22-.31.78-.58.44-.07.37-.51.91.12,1.53-.17h1.75l1.03-.44.52-.62.31.57.45.33.34,1.19-.15.98-.34.69v.57l.3.45,1.69.86,1.24.16.75.66.49,1.06.83,1.1.98-.08.64-.45.75-.65.86-.33,1.28-.33,1.65-.04.9.45.86.82.58.88Z"/><path id="_05" class="cls-2" d="M67.83,148.6l-.07.88-.53.12-1.61.12-1.01-.08-.15.82.37,1.02.38.41.41,1.02-.23,1.51-.56.73-.68.45-.38.85-.04.53.38.65v3.26l-.08.73-.19,1.14-.3.98-.23,1.18-.75,1.3.3,1.1.07.73-.22.24.38,1.06.64.61,1.39,1.51.64.45,1.05.2.79-.45.75-.16.49.65-.26,1.3-.9.77-1.28.29-1.87.19h-.12s-4.92-.8-4.92-.8l-2.55-.61-6.76.12-3.38-1.83-2.29-.57-.83-.29-.6-.61-.49-.24-.45.32-1.2.21-4.81-.16-1.35.53-2.29.08-3.15.29-1.31-.53-1.39-.33h-.79l-.05-.22.49-.13-.06-.7-.26-.54-.41-.13-.18-.19-.55-.32.29-.35v-.32l-.53-.26-.41-.06-.2-.22v-.41l.23-.06.5.19.32-1.08.23.32.44-.29.7.13.23-.03.47-.41.53-.35.15-.6.76-1.11.21-.86.29-.35.61-.98.35-.98.15-.16.15-.54.5-.89.17-.57-.88-.1-.53-.16-.03-.38.38-.63.26-.29.26-.54.29-.38.35-.7.26-.32h.2l-.09-.48.32-.76.41-1.27.26-.19,1.64-.03-.03-.38.2-1.14.26-.29.73-1.68,1.02-1.33.23-.83.29-.03.94-.64.82-.41.85-.51h.35l.53-.32-.03-.67.18-.51.32-.64.32.03.67-1.59-.41-.25-.2-.73-.44.51h-.41l-.41-.25.12-.6-.32-.16-.23.25.15.48-.35.06h-1.02l-.47.07-.38-.22.03-.25.26-.26.17-.38.47-.54.09-.25.44-.6.26-.19v-.26l.53-.54.29-.45.99.1.38-.13.15-.44.12-.7.5-.57-.06-.19-.41-.29.5-.73.67-.86h1.87l.5-.06.67.06.23-.29.35-.03.18-.38-.47-.41.47-.51.29-.48h.18l.2-.38.67-.67.15-.57.32-.48.91.48.09-.13.52.29.45.78.68.82.68,1.06.3.98.68,1.51-.26.82.26,1.1.9.65,1.16.61,1.16.49.94.61,1.05.24,1.35.49,1.24-.12.75.45.79.82.41,2.04.83.98.15.82-.3.29-.19.86.68,1.92.68.12,1.2.33,1.28.08.9.98.2.13Z"/><path class="cls-3" d="M64.54,174.73l.03.44.25.34.25.88.5,1.12.34.98.12.92-.5,1.49-.53.24-.41.88-.06,1.87.12.81.56.44.16.75v1.19l-.19.54-.41.81-.22.85-.41.5-.28.85-.25,2.27.06.75.41.17.56-.54.31-.51.41-.27.28.47.09.92.41.85.88.31,1.09.47.91-.34.69-.41.59-.54,1.03-.03.5-.3.31-.58.44-.17.88.17.47.64.15,1.04-.12.49-.41.51.72,1.12.16.95v.98l-.47.54-.63.2-.81-.34-.78-.54h-.97l-.66.27h-1.16l-.69-.1-.56-.47-1.28.64-.72.2-.38-.78-.06-1.02-.94-.44-.72.2-.56.34-.44.37-.97.34-2.75-.07-1.69-.51-1.25-.24-1.85-.78-1.56-.88-1.1-1.19-.72-.95-.09-.85-.56-.68-.75-.51-1.5.47-.66.41-2.66.17-.88.24-1.32.61-.84-.3-.97-.51-.94-.07-1.25.54-.75,1.39-1.31.47-.5.31-.25.68-.62.64-.91.14-.94.3-.44.64-.25.98-.34.71-1.5.04-.97.34-.56.44-.75.78-.22.88-.47.58-.78.41-.53.48-.41.54-.81-.37-.28-.71-.5-.27-.56.24-.41.68-.06,1.59-.31.95-.41.54-.56.09-1.28.1-1.03-.41-.81-.37-.56-.1-.75.14-.47.31-.88-.04-.69-.34-.38-.51-1.63-.07-.49-.22-.09-.74.41-.06.12-.35-.15-.51-.97-1.3-.12-.38.12-.85-.09-.6.32-.38.09-.79-.29-.16v-1.3l.12-.95.59-.57.17-.54h-.2l-.2.47-.44.06.06-.79-.06-.98.06-.82-.15-.25.09-.44.09-1.04.5-1.17.44-.66.09-.54.26-.51.03-.35.2-.54.23-.29.61-1.46.55-.57.35-.67.44-.48.5-.19.26.29.41-.03v-.38l-1.23-.25-.44.09-.29-.25.03-.79.15-.98-.44-.06-.41-.35.09-.32.35.13v.38l.38.06.12-.25.12-1.11.17-.86.26-.7.67.03v-.76h-.41l-.2-.41-.32-.22.38-.79-.29-.25.06-.44.29-.22.09-.44.2-.32.26.03.58-1.11-.29-.16-.2.41-.29.06-.18-.32.29-.38.32-.13-.09-.45-.15-.13-.44.25-.47-.1-.35.25-.26.38-.41-.25.44-.25.38-.41v-.32h.61l.26-.35.88-.63.53-.25.5-.38.59-.6.32.13v.38l.61.32.5.16-.12.29.32.19.56-.73.15.1.88-.06.03-.22-.53-.09-.35-.16.15-.22.61.06,1.02.25h.5l.32-.76.09-.76.7.07-.06.51.47.16.54-.13.05.22h.79l1.39.33,1.31.53,3.15-.29,2.29-.08,1.35-.53,4.81.16,1.2-.21.45-.32.49.24.6.61.83.29,2.29.57,3.38,1.83,6.76-.12,2.55.61,4.92.81h.12Z"/><path class="cls-3" d="M42.57,206.63l.8-.6,1.05-.38.8.43.6,1.14.8.49.6-.16.75-.05.65.27.4.54.7.49.25.81.55.32.55.49-.3.7-.55.65-.55.16-.35.81-.6.22-1.2-.38-.3-.43-.35-.05-.45.38-.75.81-.55,1.03-1.15.22-.55-.76-.65-.6-.5-.92-1.05-.43h-1.65l-.5-.16.1-.7.25-.38.05-.71-.5-.6-.5-.49v-.43l.5-.49.6-.22h.7l.85.22.85-.81.6-.43Z"/><path id="_06" class="cls-2" d="M74.1,194.99l2.75-.1.7.22.8.54,1.2.27,1.2.38,1.7.05.9.38.3.92.15,2.98-.4.81-.55.43-.5.7.1,1.25.55.81.75.81.25,1.41.25,1.84.55,1.24.8.76,3.16.38h1.05l.8-.49,1.85-.16,2.1.11,1,.11,1.25.27h.88l.6.32-.2.6-2-.11-.8.54-1.1.33-2.2.27-.75.87-.55,1.19-1.9,1.08-.85.05-.85.65-.65,1.08-.3,1.14-.8,1.08-1.05,1.73-1.2.49-.9-.05-.55.65-.7,1.3-.7.94-1.15.38-1.4.05-.9.87-.3.97-1.1.76-.75.81-1.95.7-.95.65-.15,1.35-1.15.16-1.2-.16h-.7l-.45-.59-2.8.11-.1,1.19-.15.87-.15,1.3.1,1.03.45.87.65.76.15.43-.25.54-.3.22-.15.1-1.15-.11-1.25.16-.45.27-1.05-.11-.6-.54-1.05-.11-.7.22-1.1,1.35-.9.11h-.9l-.65-.7-1.05-.38-1-.05-.6-.16-.55-.54.1-1.24.6-.38.25-.76-.1-.92-.2-.65-.55-.76-.05-1.41.1-1.03v-1.13l1.1-1.79.15-.97-.65-.97-.8-.11-1.6-.6-.3-.49,1.05-1.24-.4-.43h-.85s-1.4.1-1.4.1l-.3-.38-.05-.92,1.2-.92.25-.43-.5-.92-.6.33-1.65.05-.7-.6-1-.76-.5-.49-.55-.33-.85-.21-1.2.65-.95.05-.65-.43-.6-.22-1.05.27-.55.49-.95.27-2.2.05-1.25.49-1.05.76-.7.43-.95.49h-1.3l-.35.38-.25.76-1.7.27-.4.54-.15,1.24-.3.59-1.55.11-.45.32v1.25l-.3.6-1.3.27-1.05.59-.75,1.03-.4,1.24-.4.7-1.15.43h-.88l-.35-.11-.5-.49-.45-.05-.15.59-.6.06-.7-.6-.54-.73-.6-.63-.38-.17-.93-.26-.12-.29-.47-.54-.73-.44-1.14.1-.61-.28.03-1.01.47-.1.12-.25-.15-.28h-.35l.47-1.16.34-.61.08-.58.74-.33,1.22-.69.12-.63.38-.84.4-.35.22-.72-.26-1.17-.15-.22-.56.19-.18.47-.2-.16-.12-.51-.06-1.26.09-.06.09-.82-.29-.37-.25-.57.07-.84v-.84l-.47-.45-.61.38-.23-.28.03-.38.53-.54.21-.03v-.48l.46-1.25.35-.32.24-.44-.09-.24-.93-.38-1.61-.18-.55-.51-.18-.41-.06-.63.03-1.65.12-.32.29-.25h.55l.91.25.59.03.47-.18.49.22,1.63.07.38.51.69.34.88.04.47-.3.75-.14.56.1.81.37,1.03.41,1.28-.1.56-.09.41-.54.31-.95.06-1.59.41-.68.56-.24.5.27.28.71.81.37.41-.54.53-.47.78-.41.47-.58.22-.88.75-.78.56-.44.97-.34,1.5-.04.34-.71.25-.98.44-.64.94-.3.91-.14.62-.64.25-.68.5-.31,1.31-.47.75-1.39,1.25-.54.94.07.97.51.84.3,1.31-.61.88-.24,2.66-.17.66-.41,1.5-.47.75.51.56.68.09.85.72.95,1.1,1.19,1.56.88,1.85.78,1.25.24,1.69.51,2.75.07.97-.34.44-.37.56-.34.72-.2.94.44.06,1.02.38.78.72-.2,1.28-.64.56.47.69.1h1.16l.66-.27h.97l.78.54.81.34.63-.2.47-.54v-.98l-.16-.95-.72-1.12.41-.51.12-.49ZM42.57,206.63l-.6.43-.85.81-.85-.22h-.7l-.6.22-.5.49v.43l.5.49.5.6-.05.71-.25.38-.1.7.5.16h1.65l1.05.43.5.92.65.6.55.76,1.15-.22.55-1.03.75-.81.45-.38.35.05.3.43,1.2.38.6-.22.35-.81.55-.16.55-.65.3-.7-.55-.49-.55-.32-.25-.81-.7-.49-.4-.54-.65-.27-.75.06-.6.16-.8-.49-.6-1.14-.8-.43-1.05.38-.8.6Z"/><path id="_06-2" class="cls-2" d="M65.65,238.33l.59.32.4.62v.65l-.53.6-.43.78-.63.68-.23,1.13-.12.94-1.18,1.32-.63.62-.53.69-.56.24-.86.77-.71,1.09-.53.73-.26.97-.04,1.05-.3.65-.15.97-.75.73-.41.81-1.09.16-1.39,1.62-.6.2-1.92,1.66-.49.28-.56.65-.38,1.01-1.01.85-2.03,1.5-.38.73-.45.69-1.16.12-.53.36v.85l-.08.69-1.43,1.01-.11.77-.3.48-.73,1.8-.26,1.13-.83.77-.19.57v1.01h-1.35l-.68-.32-.75-.08-.86.08-.83.48-.34.53-.71.69-.49.69-.6.49-.75.32-1.09.04-1.5-.04-.98-.28-.94-.08-.9-.28-1.09-.16-.49-.36-.6.2-.23.45-.41.24-.83-.53h-2.22l-.94-1.09-2.44-.32-1.18-.36-.49-.29-.49-.12-.65-.02-.27.1-.79.6-.2-.1.06-.91.15-.66v-1.17l-.32-1.29-.53-1.01-.44-.72-.03-.28-.21-.28-.14-.45-.2-.19-.5-.79-.79-.85-1.29-1.16-1.08-1.07-1.49-1.23-.32-.12-.58-.44-.47-.22-1.14-.73-.23-.22-.58-.28-.88-.22-.26-.19.21-.28.15-.7-.35-.25-.5.44-.53.22-.38-.47-.35-.69.12-.22h.53l.29-.19-.03-.32-.29-.79.33-.16-.04-.25-.41.16-.2-.63-1.61.03-.09.44-.41-.19-.12-.32.15-.44.03-.44.2-.98-.06-.79.61-.47.88-.57.32-.29.58-.35.53-.19,1.02-.57,1.14-.1.18-.48-.03-.31.15-.41-.23-.91-.53-.34-.3-.59-.22-1.46-.23-.57-.38-.21-.23-.46.08-.95.38-.3.35-.76.44-.69.06-.28.35-.76.15-.51-.15-.32.15-.28.09-1.1.02-.82.74-.45.7-.13.23-.32v-.41l.47-.41.15-.35.58-.28-.2-.28-.26-.03.03-.85.38-.41.38-.03.53-.54-.07-.35-.5-.33-.6-.49-.1-.68.54-.53v-.38l-.61-.09v-.38l.23-.29.41-.79.26-.89.09-.73.18-.06.67.54.76.06.12-.09.91-.25.79.63.38.62.15-.04.93.26.38.17.6.63.54.72.7.6.6-.05.15-.6.45.05.5.49.35.11h.88l1.15-.43.4-.7.4-1.24.75-1.03,1.05-.6,1.3-.27.3-.6v-1.24l.45-.32,1.55-.11.3-.6.15-1.24.4-.54,1.7-.27.25-.76.35-.38h1.3l.95-.49.7-.43,1.05-.76,1.25-.49,2.2-.05.95-.27.55-.49,1.05-.27.6.22.65.43.95-.05,1.2-.65.85.22.55.33.5.49,1,.76.7.6,1.65-.05.6-.33.5.92-.25.43-1.2.92.05.92.3.38,1.4-.11h.85s.4.44.4.44l-1.05,1.24.3.49,1.6.6.8.11.65.97-.15.97-1.1,1.79v1.13l-.1,1.03.05,1.41.55.76.2.65.1.92-.25.76-.6.38-.1,1.24.55.54.6.16,1,.05,1.05.38.65.7h.9l.9-.11,1.1-1.35.7-.22,1.05.11.6.54,1.05.11.45-.27,1.25-.16,1.15.11.15-.11Z"/><path class="cls-3" d="M42.3,317.1l.61-.08.43-.48.38-.57.15-.89.33-.65.15-1.45.45-1.59.27-.38-.12-.99-.98-1.35h-.53l.02-6.1.12-1.37.23-.73.1-.65.43-.3.3-.51.48-1.48-.03-1.91.35-.65.07-5.9.45-1.29.65-2.35.38-2.34.75-.51.7.03.58.4.53-.03.6.38.48.48,1.18.06,1.38-.57.93.05.88.43,1.05.08.58-.3.65-.62.65-.89.32-.86.55-.57,1.5-.94.9-.7.8-.76,1.38-.08,1.25-.32,1.15-.08.65.3.4.73.2,1.05.6.38.78.05,1.63-.4.75-.46.35-.73.68-.86h.68l1.23.11.88.22,2.33,1.43,1.85,2.51.7.65h.75l.5-.32.55-.65.6-.54.61-.24.63-.67.58-.51,1.05-.11.7.27.4.46.53.3.88-.32,1.25.89v.07s.4,1.95.4,1.95l-.02,1.24.28.57.9.54,1.3.08.7.49.33.51v2.26l.28.43-.4.48-.23.78v2.08l-.35.89-.35.54-.07,1.1-.33.62-.45.38h-3.34l-.58.49-.63,1.43-.43.54-.8.24-.98.14-.45.24-1.13.35-.8-.08-.43.35v.59l-.25.43-.48.54-.35,1.24-.55.73-.35.65-.7.92-.12.65-.28.73-.48.51-.48.78v2.05l-.43.46-.3.62.2.62.05.59-.7,1.53-.3.75-.12.75.38.73.33.38.4.78.12,1.1.85,1.4.33.75.03,1.32-.18.7-.63.43-.43.62.1.92.28.54-.07.59.43.51.5.21.6.62.45.7,1.18,1.24.23.83.3.37-.27.48-.53.54-1.25.11-.75.27-.32.64-.2.89-.28.62-.43,1.32-.33.51.03.83.6.43.58.54.68.73,1.15.51.63.03.35.62,1,.91.13,1.21-.03,1.05-.48.4-.58.35-.18.4.35.54.45.24.58.54.53.62.3.7-.55,1.02.05.88.63.24h.9l1.65.86.38.54.45.32.98.13.73.16.6.46.48.56.5.43.7-.08.5-.4.68-.38.68-.05.37-.11.12.26v.75l-.26.35-.23.56-.03.63.15.72.15.25-.06.79-.61.66v.5l.15.35-.03.72.23.63v.59l-.23.5.03.5.23.28v.66l-.23.6.47.44.03.37-.18.25-.94.69-.06.41.06.53.41,1.35.29.38.29.03.67.34-.29.38-.06.91-.32.47-.38.41-.03,1.22.2.41-.03.81.06.34v1.5l.41.91.2.25.09.47-.32.16-.76.62-.2.28v.85l-.56.4-.56.16v.94l-.15.44-.99.47-.41.31-.9.4h-.62l-.35.28-.09.81.23.22-.03.59-.38,1-.12.5.06.81.26,1.03.47.75-.03.28.53.41.56.87v.16l.35.56-.06.84.35.59.26.22-.21.25-.41.22h-.88l-.47-.41-.21-.69-.06-.94-.59.03-.67-.47-.2-.59-.85-.78-.29-.53-.58.22-.64-.06-.35-.35-.09-.37-.21-.03-.12.4-.41-.03-.06-.6-.56-.22-1.02.06-.23-.15-.29-.41-.32-.06-.47-.28-.35-.66-.29-.16-.38.03-.12.22-.29.06-.09.31-.64.25-.23.31-.21.62.03.56.15.28-.03.5h-.2l-.18.34-.32.15-.03.81-1.29.22-.32-.19-.64-.97.03-.6-.2-.19-.56.16-.18-.44v-.69l.15-.41.03-.97.06-.1-.03-1,.35-.66v-.66l-.32-.78-.47-.44v-.28l-.2-.47-.44-.12-.61-.66-.38-.84-.03-.31-.21-.19-.32-.78-.18-.59.06-.56.21-.44.26-.31.61-.34-.18-1,.35-.72.7.03.23-.38.09-.47-.06-.53-.47-1.47-.23-.25.18-.28.26-.13.47-.03.88-.66-.12-.5-.09-1-.26-.31-.09-.69-.29-.5.09-.47-.23-.16-.15-.38-.29-.09-.21-.38.12-.38-.53-.5-.03-.47.29-.56-.44-.66-.03-.41.09-.47-.32-.85-.09-.97-.53-1.22-.29-.31-.15-.85.26-.47v-.38l-.64-1.13-.15-.03-.35-.85-.03-.41-.44-.75-.99-1.07-.58-.5-.62-.41-.09-.22.12-.91.18-.22v-.38l-.21-.35-.2-.69-.09-.53-.35-.57-.09-.41-.03-1.26-.18-.38-.35-.41-.15-.44-1.17-1.28-.64-.63-.73-.53-.58-.6-.47-.91-.18-.66-.38-.44-.09-.25-.35-.12-.15-.47-.41-.53-.38-.22-.35-.35-2.4-1.76-.64-.35-.29-.31-.29-.06-.67-.44-.47-.19-.5-.35-2.34-1.16-.29-.25-1.11-.63-.23-.19-.91-.38-1.23-.72-1.7-1.26-.44-.22-.61-.75-.61-.66-.38-.63.38-.31h.44l-.23-.35h-.26l-.56.41-.15-.66-.81-.41v-5.84l.02-.56Z"/><path id="_07" class="cls-2" d="M88.51,281.36v-.07s-1.27-.89-1.27-.89l-.88.32-.53-.3-.4-.46-.7-.27-1.05.11-.58.51-.63.67-.61.24-.6.54-.55.65-.5.32h-.75l-.7-.65-1.85-2.51-2.33-1.43-.88-.22-1.23-.11h-.68l-.68.86-.35.73-.75.46-1.63.4-.78-.05-.6-.38-.2-1.05-.4-.73-.65-.3-1.15.08-1.25.32-1.38.08-.8.75-.9.7-1.5.94-.55.57-.32.86-.65.89-.65.62-.58.3-1.05-.08-.88-.43-.93-.05-1.38.57-1.18-.06-.48-.48-.6-.38-.53.03-.58-.4-.7-.03-.75.51-.38,2.34-.65,2.35-.45,1.29-.07,5.9-.35.65.03,1.91-.48,1.48-.3.51-.43.3-.1.65-.23.73-.12,1.38-.03,6.1h.53l.98,1.35.13.99-.27.38-.45,1.59-.15,1.45-.33.64-.15.89-.38.57-.43.48-.61.08h-.5s-.3.42-.3.42l-.08,5.91-.23.25-.38.03-.44-.12-1.02-.5-1.14-.85-.93-.6-1.23-.97-.5-.5-.35.1-.18-.44-.61-.69-.26-.09v-.35l-.38-.22-.18-.41-.53-.35-.29-.44h-.35l-.53-.6-.56-.44h-.15l-.53-.54-.67-.13-.28-.36.18-.84-.38-.8-1.02-1.03-1.46-1.72-1.5-2.3-.12-.88.03-.26-.41-.35.2-.19-.29-.75-.56-.5-.23-.66-.18-.16-.15-.53-.06-1.04.12-.6.18-.31.41-.44.29-.03.56-.5-.03-1.51.2-.38.15.5.03.47h.32l.18-.35-.09-.41.12-.53-.18-.47v-.38l.35-.13v-.53l-.53-.32-.82.78-.61-1.22v-.38l-.29-.88-.26-.19-.09-.35-.38-.69-.15-.57-.5-1.1-.35-.5-.03-.32-.23-.25-.15-.54-.53-1.2-.85-2.14-.7-1.61-.5.16-.56-.13-.09-.63.5-.06.23-.22-.91-2.92-.18-.22-.26-.76-.29-1.26h.53l.47.19.44-.5.06-.82.29-.19.09-.69h-.55l-.35.28.09.41-.2.06.15.66-.5.19-.2-.72-.32.09.23.72-.26-.03-.29-.73-.09-.5-.35-.98-.91-2.3-.18-.85.38-.41.71-.54.65.02.49.12.49.28,1.18.36,2.44.32.94,1.09h2.22l.83.52.41-.24.23-.45.6-.2.49.36,1.09.16.9.28.94.08.98.28,1.5.04,1.09-.04.75-.32.6-.49.49-.69.71-.69.34-.53.83-.48.86-.08.75.08.68.32h1.35v-1.01l.19-.57.83-.77.26-1.13.73-1.8.3-.48.11-.77,1.43-1.01.08-.69v-.85l.53-.36,1.16-.12.45-.69.38-.73,2.03-1.5,1.01-.85.38-1.01.56-.65.49-.28,1.92-1.66.6-.2,1.39-1.62,1.09-.16.41-.81.75-.73.15-.97.3-.65.04-1.05.26-.97.53-.73.71-1.1.86-.77.56-.24.53-.69.63-.62,1.18-1.32.12-.94.23-1.13.63-.68.43-.78.53-.59v-.65l-.4-.62-.59-.31.3-.22.25-.54-.15-.43-.65-.76-.45-.87-.1-1.03.15-1.3.15-.87.1-1.19,2.8-.11.45.6h.7l1.2.16,1.15-.16.15-1.35.95-.65,1.95-.7.75-.81,1.1-.76.3-.97.9-.86,1.4-.05,1.15-.38.7-.94.7-1.3.55-.65.9.05,1.2-.49,1.05-1.73.8-1.08.3-1.14.65-1.08.85-.65.85-.05,1.9-1.08.55-1.19.75-.87,2.2-.27,1.1-.32.8-.54,2,.11.18-.55,2.48.14.95.49,1.08.49.93.68.2,1.16.38.62.3.75.7.11.3.89-.15,2.19-.7.41-1.4.54-.43.79-.58.89-.57.35-.5,1.46.45.3.93.38.7.6,1.1.49,1.1.76,1.25.97.9.65.2.84-.1,1.14-.22.21-.26.25-1.05.41-1.1.54-1.15.7-1.13.58-1.43.35-1.08.32-.98.03-.5.62-.98,1.57-1.15.92-.7.81-.63.33-.9.13-.58.38-.53.46-.15.51.25.46.08.92-.38.78v1.96l.3.43-.02.51-.38.49-.68.41-.3.68-1.38,1.43.07,7.79-.48.84-.8,1.1-.35.81.08.51.4.46.6,1.05.08.62-.33.57-1.2.73-.63.43-.3,1.4-.38.51-.5.89-.73.81-.68.89-.68.97-.6.75-.35.57v3.2l.4.65.3.89.1,1.67.63,2.18.6.49.9.08,1,.24.73.67.25.84-.05,1.54-.4.62Z"/><path class="cls-3" d="M154.31,216.16l-.18.61-.29.73-.21.22-.09.82-.18.32v.47h-.29l-.21.38v.54l-.18.06-.15,1.14-.18.6-.03.47.15.35v.48l-.23.44.09.47-.21.22-.26.7.03,1.49-.18.38v.76l-.26.28-.15.35v.47l-.76-.12-.44.19-.47.41-1.32,1.99-.03.38-.38.28-.32.92.12.47-.09.85-.44.19-.35,1.04v.57l-.29,1.45-.18.16-.09.45.06.31.35-.06.23.44-.62.69-.41.6-.26.16-.53-.03-.12.35-.41.22-.26.88.03.6.18.35.06.79.18.38.41.47-.09.57.44.34.09.66-.12.13-.09.57-.24.57-.41.25-.09.28.06.44-.15.69.15.13.21.76.29.32.38.22.41.09.03.19-.79.91-.44.1-.44-.32-.21.35v.25l-.64.66-.23.88-.18.16-.79.06-.2-.1h-.88l-.38.35-.47.69v.6l-.35.29.23.69-.41.16-.47.38-.12.35-.06.63-.12.22v.85l-.2.16.03.41-.2.38-.38.95-.06.6.12.16-.38.28.09.44-.23.38-.35.03-.29.19.03.6-.29.51-.29.09-.24.91.18.19-.15.69-.32.38-.15.6-.29.28v.32l-.44.57-.23.03-.35.5-.38.35-.06.35-.79.6-.41.03-.26.47-.38.19-.32.79-.12.5-.09.85-.35.22-.03.44-.23.35.03.28-.32.38-.06.32-.56.38-.26.38-.09.69-.41.32-.12.53-.21.44-.47.69-.18.09-.5-.03-.38.38-.29.63.12.41-.12.25-.44.19-.53-.38-.53.09-.09.25-.61-.03-.26.16-.5-.1-.09.32-.64.32-.18.32-.5.35-.47.6.06.54-.15.63-.32.41v.35l.18.25.44.22-.06.22.2.63.21.25.15.6.26.63.18.72v.54l-.79.6-.47-.25-.56.47-.32.5-.03.57-.23.98-.23.28-.32.09.12.57.41-.22-.38.72-1.05.75-.58.13-.85.79-2.51,2.67-.58.44-.5.09-1.2.76-.29.25h-.59l-.61.22-.35.25-.88.47-.56.47-.26.06-1.29,1.38-.41.31-1.52.63-.82.56-.7.91-.47,1.01-.56,1.41-.17.79-.38,1.38-.24,2.26.06.79-.09.25-.41.35-.47.6-.29.1-.53.53-.32.19-.53.54-.35.5-.32.75-.15.53-.21.41-.29,1.1-.53,1.54v.22l-.47,1.1-.06.31-.29.6-.12.82-.32.85-.35,1.48-.21.6-.21,1.07-.21.54-.06.47-.56,1.22-.06.32-.44,1.1-.12.5-.38.94-.47.69-.35.97-.15.79-.32.63-.23.25-.32.94-.06.57-.35,1.07-.06.82-.64.6-.09.44-.44.85-.15.6-.15.16-.26,1.16-.09,1.41v.88l-.06.63v2.16l.09.78.03.94.15.57v.38l.18.69v.75l.23.52-.37.11-.68.05-.68.38-.5.4-.7.08-.5-.43-.48-.56-.6-.46-.73-.16-.98-.13-.45-.32-.38-.54-1.65-.86h-.9l-.63-.24-.05-.89.55-1.02-.3-.7-.53-.62-.58-.54-.45-.23-.35-.54.18-.4.58-.35.48-.4.03-1.05-.13-1.21-1-.91-.35-.62-.63-.03-1.15-.51-.68-.73-.58-.54-.6-.43-.03-.83.33-.51.43-1.32.28-.62.2-.89.32-.64.75-.27,1.25-.11.53-.54.27-.48-.3-.37-.23-.83-1.18-1.24-.45-.7-.6-.62-.5-.22-.43-.51.07-.59-.28-.54-.1-.92.43-.62.63-.43.18-.7-.03-1.32-.33-.75-.85-1.4-.12-1.1-.4-.78-.33-.38-.38-.73.12-.75.3-.75.7-1.53-.05-.59-.2-.62.3-.62.43-.46v-2.05l.48-.78.48-.51.28-.73.12-.65.7-.92.35-.65.55-.73.35-1.24.48-.54.25-.43v-.59l.43-.35.8.08,1.13-.35.45-.24.98-.14.8-.24.43-.54.63-1.43.58-.49h3.34l.45-.38.33-.62.07-1.1.35-.54.35-.89v-2.07l.23-.78.4-.48-.28-.43v-2.26l-.33-.51-.7-.48-1.3-.08-.9-.54-.28-.57.02-1.24-.39-1.95.4-.62.05-1.54-.25-.84-.73-.67-1-.24-.9-.08-.6-.49-.63-2.18-.1-1.67-.3-.89-.4-.65v-3.21l.35-.57.6-.76.68-.97.68-.89.73-.81.5-.89.38-.51.3-1.4.63-.43,1.2-.73.33-.57-.08-.62-.6-1.05-.4-.46-.07-.51.35-.81.8-1.11.48-.84-.08-7.79,1.38-1.43.3-.68.68-.41.38-.49.02-.51-.3-.43v-1.96l.38-.78-.08-.92-.25-.46.15-.51.53-.46.58-.38.9-.13.63-.32.7-.81,1.15-.92.98-1.57.5-.62.98-.03,1.08-.32,1.43-.35,1.13-.58,1.15-.7,1.1-.54,1.05-.41.25-.25.43.43.25.95.47.57.38.68-.03,1.39.35,1.15,1.19,2.23.78.71,1.19.2,1.19.57,1.22.37,1.03.64.6.71.41.91.69.4.84.34.53-.2.66-.58.59-.4h.91l.35.44.88.47.47,1.01.5.41-.03,1.22.22,1.18.69.44.56.61.25,1.15.23.44.91.41,1,.91,2.22.57.53.47.38.98.16,1.22.53.4.78.07.59-.54.53-.24,1.75-.07.78-.4.56-.4.1-6.25.38-.72.97-.91.66-.98.41-.98.78-2.67.5-.84.31-.74.44-.74.16-1.11.25-.91.81-.54.62-.64.03-1.99.19-1.01.69-.61.44-.51.5-1.22.91-1.18.81-1.25.84-1.56-.12-.57-1.35-.78-.16-1.15.25-.98.53-1.52.97-1.73.44-1.05.63-.71.94-.3.41-.44,1.31-.24,2.03.34.62.64.69.41.2.23Z"/><path class="cls-3" d="M138.75,124.99l.11.62.45.45.04,1.02-.38.45-1.61.2-.56.33-.53.41-.52.82-1.39.9-.98.33-.49.94-.49,1.27v1.47l.34.9.98.29.68.53.56.98.3.61.83.04.53.65v1.46l-.23.82-.45.82-1.35,1.14-.64.73-.9.53-.41.94-.07,2-.15.98-.53.78-1.39,2.85.08,1.26.6.41.26.86-.08,4.73.19.54.38.61-.11.65-.53.37-.68.73-.23.57.68,1.3-.08,1.02-.45.53-.98.41-.38.65-.6,1.63-.68.77-.19,1.75-.22,1.43-1.24,1.22.38,1.06-.04.94-.3.37-.6.45-.71.12-.53.69-.07.86.34.45.86.37.94,1.06.45.69.04.98.26.65.56.77.04,2.66-.26,1.06-.45,1.34-.22,1.83-.38,1.59-.26,1.95-.26,1.59-.64,1.18-.56.81-.83.08h-.86l-.83.69-.88.57-.6.2-.75-.16-.9.08-.38.24v.41l.26.41.45,1.1.04.41-.6.41-.23.49-.22.73v2.77l-.86.24-.79.69-.79.24-.64-.29-1.13-.69-.83.08-1.01.24-.53.2h-.79l-.49.12-.53.45-.26.77-.26.53-.64.41-.49.73-.41.81-.15.69-.45.29-.04.45.41.36.45.57.04.81-.19.61-.6.2-.19.24-.49.16-.49.37-.64.33-.71.08-.41.24-.28.36-.37-.62-.2-1.16-.93-.68-1.08-.49-.95-.49-2.48-.14.02-.05-.6-.32h-.88l-1.25-.27-1-.11-2.1-.11-1.85.16-.8.49h-1.05l-3.16-.38-.8-.76-.55-1.25-.25-1.84-.25-1.41-.75-.81-.55-.81-.1-1.25.5-.7.55-.43.4-.81-.15-2.98-.3-.92-.9-.38-1.7-.05-1.2-.38-1.2-.27-.8-.54-.7-.22-2.75.1-.15-1.04-.47-.64-.88-.17-.44.17-.31.58-.5.3-1.03.03-.59.54-.69.41-.91.34-1.09-.48-.88-.3-.41-.85-.09-.92-.28-.47-.41.27-.31.51-.56.54-.41-.17-.06-.75.25-2.27.28-.85.41-.5.22-.85.41-.81.19-.54v-1.19l-.16-.74-.56-.44-.12-.81.06-1.87.41-.88.53-.24.5-1.49-.12-.92-.34-.98-.5-1.12-.25-.88-.25-.34-.03-.44,1.87-.19,1.28-.29.9-.77.26-1.3-.49-.65-.75.16-.79.45-1.05-.2-.64-.45-1.39-1.51-.64-.61-.38-1.06.22-.24-.08-.73-.3-1.1.75-1.3.23-1.18.3-.98.19-1.14.08-.73v-3.26l-.38-.65.04-.53.38-.85.68-.45.56-.73.23-1.51-.41-1.02-.38-.41-.37-1.02.15-.82,1.01.08,1.61-.12.53-.12.07-.88.59.4,1.13.45,1.13.53.94.16h2.55l1.16.2.9.24.79-.37.9-.33.64-.49.71-.98.83-.65.26-.82.41-1.06.15-.73.68-1.47,1.2-.94.79-.08.56-.37.3-1.06.04-1.02.23-1.1.53-.41.3-.74.15-.65.41-.57.79-.2.56.45.49.53.71.12.68.29.41.57.11,1.23.22.65.38-.12.49-.65.23-.41v-1.1l.19-.65.64-.04.19.53.64.45.86.16.83-.04.68-.33.68-.73,1.09-.69.83-.37.68.04.71.53.71.12,1.16-.16.83-.45.6-.49.34-.74.41-1.63.26-.61.45-.21,1.95-.08,2.25.12,1.01-.25.68-.69.79-.65,1.09-1.18.53-.74.34-.82.38-.45h1.31l2.14-.04.75-.25.45-.78.19-.45.45-.61.56-.08.64-.25.36-.45.56-.08,1.09.82.98.29.41-.29.34-.37.38-.16,1.39-.45.98.12,1.05.37,1.17-.08.49-.61.3-.69.11-.74.56-.69.64-.04.56.53.68.82.79.2,1.09.16.68-.29.94-.24.68.2.79.53h.6l1.01.53h.68Z"/></svg>