<svg width="140" height="261" viewBox="0 0 140 261" fill="none" xmlns="http://www.w3.org/2000/svg">
<path d="M135.638 25.5759L135.524 25.4407H134.99L134.589 25.6966L133.886 25.9895H132.884L132.115 26.2825L131.747 26.7579L131.112 27.3434L130.41 27.5992L129.607 27.4896L128.839 27.1967L128.338 27.27L127.802 27.5626L127.603 28.1113L127.502 28.6235L127.769 29.1727L128.171 29.6481L128.304 30.2327L128.07 30.8915L127.635 31.3299L127.001 31.6957L126.533 31.8791L125.597 31.9153L124.694 32.0983L123.524 33.3046L123.29 34.2917L123.223 34.9134L122.889 35.3884L122.287 35.6446L121.385 35.7176L120.85 35.5346L120.315 35.4617L119.747 35.7176L119.312 36.2292L119.045 36.6676L118.611 36.8138L118.108 36.9234L117.608 37.2893L117.373 37.8005L116.839 38.203L116.304 38.4584L115.769 38.5318L115.368 38.7143L114.834 38.8239L114.164 39.0068L113.597 39.0797H112.928L112.66 39.4451L112.326 40.3584L111.858 40.2413L111.256 40.3147L110.989 40.5705L110.52 40.8626L110.454 41.3376V42.0318L110.287 42.3601L109.919 42.6888L109.986 43.1276L110.187 43.4197L110.52 43.748L110.555 44.6246L110.454 45.0263L110.153 45.5375L109.819 45.8662L109.418 45.9754L108.749 46.6695L108.048 46.7425L107.179 46.8883L106.71 47.5458L106.309 47.9474L105.54 48.422L104.872 48.7503L104.069 48.8232L103.634 49.2248L103.1 49.2977L102.331 49.1882L102.084 49.2964L101.997 49.334L101.763 48.9328L101.796 48.0566L101.329 47.5824L100.827 47.3633L100.158 46.5962L99.4569 45.2454L99.0221 44.3325L98.5544 43.5655L98.4539 42.6888L98.6873 42.1047L99.3901 41.5201L99.8577 41.0084L99.9915 40.4243L99.6899 40.2051L99.3228 39.5839L99.0221 38.7434L98.4539 38.1955L97.8188 37.3913L97.317 36.9163L96.4481 36.5509H95.7458L95.178 36.7701H94.4429L93.7737 36.4047L92.7379 36.0392L92.6714 35.6959L93.2724 35.5859L93.4061 35.3667L92.9717 34.8179L92.938 34.1967L92.6714 33.3558L92.2702 32.7345L91.8017 32.442L91.2999 31.7103L91.2002 31.2353L91.4009 30.7965L91.8017 30.394L91.9013 30.0281L91.6015 29.8819L91.2002 29.8085L91.0993 29.3331L91.2002 28.7481L91.5342 28.3455V27.5776L91.4677 26.9188L91.3335 26.48L91.5342 26.0774H94.6435L95.1444 25.5649L95.4792 24.9432L95.9796 24.7969L96.2143 24.5769L96.5487 24.3577L96.5819 23.8818L96.3813 23.7351L96.314 23.3693L96.7152 23.1134L96.9827 23.0034L97.1164 22.6371L96.9495 22.3079L96.4149 21.9783L96.314 21.1732L96.4149 20.5873L96.0806 19.8914L95.6125 19.5989L94.5766 19.5626L93.0713 19.3421L92.8047 18.9763L92.6041 18.3537L92.2361 17.6578L91.5678 17.3648L90.8322 16.9256L90.164 16.8156L89.1941 16.596L88.5927 16.1196L88.0914 15.4971L88.679 15.2045L88.9802 14.9571L89.6316 14.9297L90.8105 15.0671L92.0386 14.9571L92.5147 14.7923L93.0665 14.4901L93.5926 14.2426L94.1191 13.7756L95.3481 13.1707L95.8742 12.9515L96.2506 12.6762L96.6266 12.2913L97.1151 11.3299L97.7918 11.2198L98.3188 11.4399L99.2209 12.5388L99.5969 13.1437L99.8228 14.0778L100.199 15.0119L100.476 15.3808L100.538 15.893L100.773 16.1497L101.775 16.6989L102.712 16.7723L103.247 17.3215L103.815 18.237L103.848 19.2255L103.781 20.6174L103.213 21.1666L102.745 21.6787L102.678 22.1913L102.778 23.2164L103.279 23.5822L103.882 23.3264L104.316 22.7772H104.818L105.386 23.4722L105.72 25.0095L106.321 25.412L107.024 25.6316L107.458 26.4734L108.16 26.985H109.464L110.333 27.3147L111.135 27.2413L111.302 26.6559L111.035 26.3267L110.634 25.9975V25.0824L110.4 24.3144V23.6556L110.567 23.2164L111.202 22.7038L112.372 22.7772L114.01 22.6305H114.679L114.88 22.338L114.645 22.045L113.91 21.9354L113.475 22.045L112.64 21.5691L112.171 21.1666L111.838 20.8003L111.904 20.4707L112.305 20.2511L112.071 19.8481L111.771 19.5556V19.1888L112.104 18.8601L112.439 18.3837L112.572 17.9074L112.539 17.2482L112.305 16.7356L111.67 16.2593L111.068 16.0397L110.433 15.5633L110.533 14.9408L110.968 14.3177L110.701 13.9152L110.098 13.3288L109.798 12.8521L109.898 12.3395L109.798 11.5698L109.397 11.2768L109.23 10.6905L109.397 9.81073L109.063 9.51734L108.361 9.37108L108.06 9.18771L107.826 8.60092L107.458 8.38087L107.291 8.49089L107.124 8.85764L106.756 9.22438L106.388 9.51734L106.288 9.92032L105.419 10.2871L104.917 10.7272L104.55 10.9468L103.915 11.0935L103.547 11.4964L102.945 12.2295L102.277 13.2188L101.642 13.8418L101.374 15.1975L100.94 15.2708L100.478 15.3791L100.801 14.6549L100.725 13.4185L100.274 12.594L99.8228 11.9343L99.0203 11.0661L98.3936 10.736L97.7422 10.5707L97.2152 10.2685L97.1651 10.0763L97.5416 9.80146L97.9176 9.60925L98.1682 8.75645L98.3936 8.23417L99.2209 7.40921L99.3467 6.99696L99.4968 6.69472L99.898 5.45707L100.274 5.18223L100.901 5.01697H101.503L101.728 4.79692L101.979 4.19157L102.18 3.61406L102.58 3.31138L102.956 3.17352L103.734 2.73387L104.06 2.32117L104.461 2.15547L104.912 2.2107L105.715 2.23854L105.915 1.8254L106.241 1.46793L106.542 1.57796L106.692 1.798L107.996 1.8254L108.397 1.16526L108.748 1L109.074 1.16526L109.425 1.71582L109.977 1.93587L110.377 2.18331L111.029 2.37596L111.756 2.87129L112.183 3.28399L112.621 4.05415L112.922 4.7143L112.973 5.56709L113.298 6.08937L114.025 6.36421L114.201 6.66689L114.1 7.02435L114.125 7.38226L114.476 7.84931L114.877 8.26201L115.279 8.59163L116.582 8.64643L117.134 8.42682L117.46 8.12414V8.34419L117.26 9.11436L116.933 9.3344L116.783 9.82885L116.884 10.2137L117.433 10.4223L117.776 10.6883L118.13 10.7621V10.8783L118.004 11.2631L117.654 11.5101L116.45 11.9776L116.074 12.1977L115.547 12.4447L114.846 12.6647L114.269 12.6921L113.943 13.0491L112.99 13.2966L112.69 13.5714L112.99 14.3411L113.943 14.9182L113.918 15.5222L114.119 15.9619L114.344 16.6764L114.746 17.033L115.046 17.5005L115.347 17.8575L116.024 17.9397L116.325 18.1593L116.827 18.7085L117.729 18.8185L118.481 19.066L119.208 19.8348L119.508 20.1918L120.361 20.3562L121.239 20.3288L121.865 20.0544L122.994 19.4778L123.244 18.9555L122.968 18.3515L122.467 18.1045L122.091 17.8297L121.941 17.3352L122.04 16.7307L122.441 16.1267L122.818 15.7145L123.244 15.4396L123.57 15.3574L123.946 15.577L124.222 15.7971L124.598 15.577L124.924 15.0278L125.25 14.6155L125.49 13.9709L125.555 13.8635L126.001 13.8851L126.126 14.8237L126.502 14.9611L126.795 14.7552L127.652 14.5263L127.986 14.7781L130.201 14.8011L130.91 15.0989L131.746 15.053L132.017 14.8011L132.603 14.7781L132.854 14.5033L133.439 14.2514L133.606 14.6637L133.292 15.144L133.375 15.6252L133.522 15.9L133.543 16.3808L133.23 16.6786L133.083 17.1819L132.978 17.9375L133.063 18.5552L133.606 18.83L133.939 19.1734L134.107 19.5167V21.6902L134.483 22.125L135.528 22.9486L136.238 22.8797L136.823 22.2624L137.345 22.3539L138.369 23.0171L139.288 23.1775L139.518 23.5434L139.455 23.9092L139.142 24.2755L138.703 24.4585L138.034 24.8243L137.534 24.8698L137.115 25.2361L136.656 25.5331L135.638 25.5759Z" fill="#008281" stroke="white" stroke-width="0.5"/>
<path d="M69.5373 143.766L69.722 143.526L69.9975 143.363L70.474 143.309L70.9 143.092L71.2259 142.848L71.5519 142.74L71.6772 142.577L72.0785 142.442L72.2033 142.034L72.1785 141.493L71.8778 141.113L71.6024 140.869L71.6267 140.571L71.9279 140.381L72.0284 139.92L72.3039 139.377L72.6298 138.889L73.0563 138.618L73.2317 138.266L73.4075 137.75L73.7582 137.451L74.0837 137.371H74.6107L74.9619 137.235L75.6386 137.072L76.19 137.018L76.9415 137.479L77.3684 137.669L77.895 137.505L78.4216 137.045L78.9982 136.881V135.032L79.1483 134.543L79.2989 134.218L79.6997 133.946L79.6749 133.675L79.3742 132.942L79.1979 132.67V132.4L79.449 132.236L80.0508 132.182L80.5522 132.291L80.9534 132.155L81.5424 131.776L82.0942 131.314H82.6708L83.2226 131.259L83.5982 130.717L84.0238 129.929L84.1996 128.871L84.3749 127.566L84.6265 126.508L84.7766 125.286L85.0773 124.39L85.2531 123.683L85.2274 121.907L84.8519 121.391L84.6765 120.956L84.6504 120.304L84.3501 119.842L83.7235 119.135L83.1469 118.891L82.921 118.592L82.9711 118.021L83.3223 117.559L83.7988 117.477L84.1996 117.178L84.4002 116.934L84.4254 116.309L84.1748 115.602L85.002 114.786L85.1522 113.834L85.2779 112.665L85.7292 112.148L86.1304 111.06L86.3811 110.625L87.0326 110.353L87.3337 109.999L87.3837 109.319L86.9325 108.449L87.0835 108.068L87.5343 107.578L87.8851 107.334L87.9603 106.898L87.7101 106.49L87.5844 106.13L87.6344 102.974L87.4586 102.402L87.0582 102.129L87.0078 101.285L87.9351 99.3792L88.2863 98.8614L88.3864 98.2087L88.4364 96.8734L88.7123 96.2469L89.3146 95.8925L89.7406 95.4029L90.6427 94.6398L90.9439 94.0954L91.0945 93.5497V92.5745L90.7433 92.1384L90.1915 92.111L89.9913 91.7023L89.6149 91.0479L89.164 90.694L88.5117 90.5026L88.2863 89.9035V88.9221L88.6122 88.0768L88.9382 87.4498L89.5901 87.232L90.5179 86.6319L90.8686 86.0862L91.2194 85.8136L91.5958 85.5958L92.6737 85.4592L92.9244 85.1592L92.8987 84.4774L92.5989 84.1774L92.5276 83.7634L93.005 83.5177L93.2308 83.1359L93.156 82.6454L93.5315 82.1537L94.0076 82.0176L94.5094 81.8267L95.0107 81.5267L95.3118 81.0627L95.2614 80.053V79.3982L95.5372 79.0703L96.1134 78.9073L96.4402 78.5246L96.6652 78.0337L97.1165 77.5424L97.5177 77.4058L98.345 77.2424L98.721 76.7236L98.9216 76.2871L99.0974 75.7683L99.3481 74.8399V74.0212L99.5235 73.6933L99.899 73.502L100.2 73.2837L100.338 73.0349L100.576 73.2943L101.103 73.7313L101.806 74.0861L102.782 74.5231L103.711 74.6053L105.365 74.7962L106.343 75.0697L107.37 75.6154L108.298 76.3794L109.226 76.5712L109.928 76.789L110.555 76.8981L111.106 76.6255L111.181 76.2433L110.755 75.8611L110.63 75.588L110.88 75.2602L111.306 75.0967L112.209 74.851H112.735L113.036 74.6597L112.961 74.3323L112.635 74.0044L112.51 73.513L112.71 72.9121L113.161 72.9669L113.513 73.2674L113.914 73.7313L114.44 73.8679L115.143 74.1409L115.769 74.6597L116.521 75.1784L118.551 75.9159L119.83 75.9976L120.759 76.2433L121.235 76.489L121.811 76.8438L122.8 76.8164L122.76 77.3139L122.566 77.6325L122.117 78.1632L121.629 78.503L121.336 78.8432L121.102 79.2466L120.81 80.2019L120.771 80.8391L120.165 81.4339L120.048 81.6455L119.366 82.1983L119.132 82.1554L118.663 82.3892L118.43 82.7077L118.195 83.1748V83.451L118.097 83.5994L117.726 83.8332L117.356 83.9816L117.257 84.1301L116.927 84.2574L116.536 84.6608L116.342 84.682L115.814 84.9365L115.6 85.1915L115.405 85.6157L115.209 85.8277L114.838 86.6766L114.683 87.3142L114.722 87.9288L114.8 88.3746L115.112 88.9049L115.191 89.2866L115.209 89.8385L115.171 90.1138L115.014 90.5813L114.488 91.4937L114.001 91.9595L113.239 92.4049L112.809 92.7442L112.536 93.0204L112.283 93.4446L112.069 93.9319L111.853 94.3137L111.718 94.9924L111.737 96.0741L111.815 96.4126L112.107 97.3246L112.264 97.5574L112.752 98.5322L112.927 98.8079L113.357 99.1901L113.727 99.4446L113.961 100.058V100.292L113.708 100.63L113.629 100.906L113.493 100.969L113.277 101.351L113.239 101.754L113.064 101.711L113.239 101.415L113.357 100.885L113.239 100.673H113.083L113.22 101.246L113.102 101.584L112.752 102.051L112.439 102.22L112.42 102.495L112.557 102.601L112.478 102.876L112.243 102.58H112.03L111.756 102.75L111.561 103.11L111.58 103.301L111.151 103.724L111.054 104.148V104.466L111.288 105.016L111.405 105.588L111.444 105.99L111.308 106.16L111.268 106.647L111.113 106.943L111.093 107.198L110.937 107.684V108.045L111.015 108.426L110.937 108.87V109.23L110.761 110.056V110.331L110.351 112.089L110.195 112.596L109.962 113.041L109.707 113.654L109.552 113.908V114.269L109.434 114.649L109.298 114.86L108.848 115.347V115.601L108.674 116.045L108.596 117.21L108.517 117.357L108.556 117.738V118.458L108.498 118.816L108.731 118.965L108.694 119.367L108.322 120.192V120.445L108.068 120.784V120.953L107.893 121.101L107.815 121.503L107.697 121.545L107.601 121.819H107.386L107.112 122.306L107.053 122.538V123.3L107.112 123.638L107.249 123.722L107.424 123.617L107.269 124.166L107.152 124.209V124.505L107.015 124.884L106.956 125.244L106.839 125.35L106.918 125.689L106.703 126.048L106.801 126.259L106.625 126.449L106.547 126.788L106.664 126.978L106.547 127.316L106.293 127.379L106.117 127.634L105.961 128.119V128.479L105.766 128.859L105.688 129.407L105.708 131.584L105.591 131.88L105.552 132.429L105.435 132.514L105.454 132.978L105.161 133.442V133.781L105.025 133.802L104.79 134.16L104.751 134.351L104.419 134.836L104.342 135.386L104.205 135.66L104.245 136.124L104.167 136.504L103.991 136.631L103.932 137.18L103.854 137.328L103.971 138.109L103.932 138.51L103.991 138.785L104.225 139.438L104.498 139.418L104.635 139.798L104.557 140.178L104.342 140.389L104.205 140.916L103.913 141.212L103.815 141.422L103.523 141.338L103.425 141.444L103.093 141.464L103.171 141.634L103.484 141.718L103.679 141.845L103.639 142.162L103.445 142.71L103.425 143.302L103.366 143.406L103.308 144.082H103.192L102.918 144.625L102.782 144.47L102.323 144.199L101.905 143.77L100.547 143.544L99.67 143.703L99.3977 143.996L98.771 144.199L98.3534 144.673L98.0607 145.374L97.4132 146.526L97.058 147.542L96.8906 148.198L96.9951 148.965L97.8937 149.484L97.9774 149.868L97.4132 150.906L96.8698 151.742L96.264 152.532L95.9301 153.349L95.6373 153.687L95.1781 154.093L95.0523 154.771L95.0311 156.102L94.6139 156.531L94.0701 156.891L93.9035 157.5L93.799 158.245L93.5067 158.742L93.2981 159.238L92.9633 159.801L92.4408 161.583L92.1693 162.237L91.7309 162.891L91.083 163.5L90.8323 163.982L90.7694 168.152L90.3939 168.423L89.8713 168.693L88.7013 168.738L88.3461 168.896L87.9488 169.257L87.4267 169.211L87.0715 168.941L86.9675 168.129L86.7168 167.476L86.3616 167.161L84.878 166.777L84.2089 166.169L83.6035 165.898L83.4471 165.606L83.2797 164.839L82.9033 164.433L82.4441 164.14L82.2979 163.351L82.3192 162.539L81.9844 162.264L81.6713 161.588L81.0863 161.272L80.8564 160.978H80.2501L79.8533 161.249L79.4149 161.633L79.0588 161.768L78.4955 161.542L78.0358 161.272L77.7648 160.663L77.3671 160.19L76.6785 159.761L75.8636 159.513L75.0691 159.129L74.2755 158.994L73.7529 158.52L72.9593 157.031L72.7295 156.264L72.7498 155.339L72.4996 154.888L72.1861 154.504L72.0191 153.872L71.7299 153.588L71.877 153.446L71.9438 152.687L71.8101 152.127L71.2082 151.694L70.373 151.044L69.6374 150.538L68.9018 150.213L68.4337 149.816L67.8155 149.562L67.5148 149.364L67.8491 148.388L68.2335 148.154L68.6179 147.558L68.9018 147.034L69.838 146.673L70.3061 146.401L70.4062 144.938L70.2056 144.342L69.7379 144.269L69.5373 143.766Z" fill="#B1B1B1" stroke="white" stroke-width="0.5"/>
<path d="M125.49 13.9708L125.25 14.6155L124.924 15.0277L124.598 15.5769L124.222 15.797L123.946 15.5769L123.57 15.3573L123.244 15.4395L122.818 15.7144L122.441 16.1266L122.04 16.7306L121.941 17.3351L122.091 17.8296L122.467 18.1044L122.968 18.3514L123.244 18.9554L122.994 19.4777L121.865 20.0543L121.239 20.3287L120.361 20.3561L119.508 20.1918L119.208 19.8347L118.481 19.0659L117.729 18.8184L116.827 18.7084L116.325 18.1592L116.024 17.9396L115.347 17.8574L115.046 17.5004L114.746 17.0329L114.344 16.6763L114.119 15.9618L113.918 15.5222L113.943 14.9181L112.99 14.3411L112.69 13.5713L112.99 13.2965L113.943 13.049L114.269 12.692L114.846 12.6646L115.547 12.4446L116.074 12.1976L116.45 11.9775L117.654 11.51L118.004 11.263L118.13 10.8782L118.291 11.1477L118.194 11.233V11.5542L118.819 11.4473L118.936 11.533L119.423 11.4897L119.62 11.6399L119.794 11.6183L120.088 11.8967L120.36 11.8326L120.516 12.1101L121.18 12.153L121.082 12.4954L121.278 12.5595L121.199 12.9231L121.239 13.1794L120.79 13.5006L120.575 13.821L120.673 13.9924L120.907 13.6288L121.258 13.5435L121.434 13.3296L121.707 13.1794V13.0513L121.941 12.7738L122.019 12.5811L121.863 12.3885L121.843 12.153L121.648 11.9607L121.98 11.6612H122.311L122.585 11.8967L123.014 11.9179L123.053 12.0248L122.818 12.2603L122.94 12.4724L123.092 12.5383L123.462 12.517L123.677 12.7093L123.697 12.966L124.107 13.1158L124.223 12.8378L124.672 12.9231L125.024 12.859L125.062 13.0084L124.907 13.1794L124.829 13.4366L124.907 13.7574L125.082 13.8002L125.277 13.9924L125.49 13.9708Z" fill="#B1B1B1" stroke="white" stroke-width="0.5"/>
<path d="M100.477 15.3808L100.941 15.2708L101.375 15.1975L101.643 13.8418L102.278 13.2188L102.946 12.2295L103.547 11.4964L103.916 11.0934L104.55 10.9468L104.918 10.7271L105.42 10.2871L106.289 9.9203L106.389 9.51733L106.756 9.22437L107.125 8.85763L107.291 8.49088L107.459 8.38086L107.827 8.60091L108.061 9.1877L108.361 9.37107L109.064 9.51733L109.397 9.81072L109.23 10.6905L109.397 11.2768L109.799 11.5698L109.899 12.3395L109.799 12.8521L110.099 13.3288L110.701 13.9152L110.969 14.3177L110.534 14.9407L110.434 15.5633L111.069 16.0397L111.67 16.2593L112.305 16.7356L112.54 17.2481L112.573 17.9074L112.44 18.3837L112.105 18.8601L111.771 19.1888V19.5556L112.071 19.8481L112.305 20.251L111.905 20.4707L111.838 20.8003L112.172 21.1666L112.64 21.5691L113.475 22.045L113.91 21.9354L114.646 22.045L114.88 22.338L114.68 22.6305H114.01L112.372 22.7772L111.203 22.7038L110.568 23.2164L110.4 23.6556V24.3144L110.635 25.0824V25.9975L111.036 26.3266L111.303 26.6558L111.135 27.2413L110.333 27.3147L109.465 26.985H108.16L107.459 26.4733L107.024 25.6316L106.322 25.412L105.721 25.0095L105.386 23.4722L104.818 22.7772H104.316L103.882 23.3264L103.28 23.5822L102.779 23.2164L102.679 22.1913L102.745 21.6787L103.214 21.1666L103.782 20.6174L103.849 19.2255L103.815 18.237L103.248 17.3215L102.712 16.7723L101.776 16.6989L100.773 16.1497L100.539 15.893L100.477 15.3808Z" fill="#008281" stroke="white" stroke-width="0.5"/>
<path d="M102.084 49.2965L102.042 49.4171L101.498 49.5996H100.914L100.496 49.7821L99.9524 50.3751L99.6596 51.7435L99.4931 52.382L99.0755 53.021L98.8244 53.6135L98.0724 54.6625L97.4458 55.073L96.7766 55.5745L96.2341 55.8025L95.398 55.9845L94.5619 55.3465L93.9773 54.754L93.7271 54.024L94.1447 52.7925L93.685 52.519L93.1416 52.2455V51.7895L93.4764 50.649L93.518 49.965L92.8077 49.7821L92.3892 49.4171L92.3064 48.8242L91.9299 48.2767L91.2617 47.8657L90.8857 47.5922L90.3839 47.5467L89.9663 47.7288L89.4654 47.7747L89.4233 47.1358L89.7989 46.4058L90.0079 45.9035L89.7989 45.584L89.4233 45.2186L89.5487 43.9407L89.7989 43.6667L89.7572 43.0278L89.2976 42.297L88.6293 42.0685L87.8357 41.932L86.7489 41.2471L86.4982 40.4252L85.9969 39.9684L85.7879 39.6489L85.4119 39.4655L84.8685 39.6489L84.3676 39.7399L83.6152 39.7854L82.5284 38.7806L81.7764 38.3242L81.4837 38.0498L80.3974 37.3189L79.9802 36.6796L79.1441 36.5422L78.9771 36.0398L79.3115 35.5373L79.6458 34.8061L79.5201 33.9838L79.1441 33.5724L76.6787 33.6179L76.219 33.298L76.1357 32.7956L75.676 32.4297L75.3 32.5393L74.9241 32.7678L74.4227 32.3568L74.0047 32.2194L73.2106 31.8995L72.793 31.5796L72.3333 31.3052L72.584 30.5739L72.2496 29.8881L72.1243 29.3394L71.5397 28.8825L70.9963 28.6536L70.3697 28.7906L69.9937 29.019L69.2833 28.9735L68.8236 28.7906L68.2807 29.019L67.9875 29.2934L67.1523 29.2006L67.5039 28.9076L67.5438 28.4375L67.7767 28.1388L67.9525 28.1172L68.2453 27.9254L68.5579 27.541L68.8281 27.0028L69.3772 26.4946L69.553 26.1098L69.6115 25.8111L69.6305 25.2557L69.553 24.9994L69.8458 24.679L69.9233 24.3158L70.0796 23.9097L70.8599 22.9699L70.7045 22.927L71.328 22.137L71.9139 21.5387L71.9719 21.3889L72.3236 21.2608L72.4604 21.111L72.9671 20.8976H73.3191L73.6699 20.7478L73.9041 20.4915L74.1969 20.4062L74.5091 20.0421L74.9967 19.7434L75.0547 19.5936L75.7766 19.1235L76.1667 19.0806L76.6158 18.8027L76.9479 18.7179L77.3966 18.6962L77.4741 18.5893L77.9621 18.5252L78.079 18.4187L78.47 18.3542L78.5276 18.2685L79.1915 18.2261L79.2495 18.1403L79.7964 17.9906L80.4594 17.6698H80.6352L80.7331 17.4776L81.0258 17.2001L81.4744 16.9858L81.7083 17.0074L82.6839 16.2805L83.0736 16.1096L83.1529 15.9814L83.5815 15.7888L84.0886 15.6606L84.6741 15.6178L84.8689 15.3606H85.0058L85.2396 15.532L85.4354 15.4896L85.5527 15.2329L85.4154 14.9961L85.806 15.019L86 14.9289L86.2352 14.955L86.5664 14.8052L87.074 14.8905L87.1909 15.126L87.4251 15.19L87.6014 15.126L87.8742 15.2117L88.0917 15.4971L88.593 16.1197L89.1944 16.596L90.1642 16.8156L90.8325 16.9257L91.5681 17.3649L92.2364 17.6578L92.6044 18.3538L92.805 18.9764L93.0716 19.3422L94.5769 19.5627L95.6128 19.5989L96.0809 19.8915L96.4152 20.5874L96.3143 21.1733L96.4152 21.9784L96.9498 22.308L97.1167 22.6372L96.983 23.0035L96.7155 23.1135L96.3143 23.3693L96.3816 23.7352L96.5822 23.8819L96.549 24.3578L96.2146 24.577L95.9799 24.797L95.4795 24.9433L95.1447 25.565L94.6438 26.0775H91.5345L91.3338 26.4801L91.468 26.9188L91.5345 27.5777V28.3456L91.2005 28.7481L91.0996 29.3332L91.2005 29.8086L91.6018 29.882L91.9016 30.0282L91.8019 30.3941L91.4012 30.7966L91.2005 31.2354L91.3002 31.7104L91.8019 32.4421L92.2705 32.7346L92.6717 33.3559L92.9383 34.1967L92.972 34.818L93.4064 35.3668L93.2727 35.586L92.6717 35.696L92.7382 36.0393L93.774 36.4047L94.4432 36.7701H95.1783L95.7461 36.551H96.4484L97.3173 36.9164L97.8191 37.3914L98.4542 38.1956L99.0223 38.7435L99.3231 39.5839L99.6902 40.2052L99.9918 40.4243L99.858 41.0085L99.3904 41.5202L98.6876 42.1048L98.4542 42.6889L98.5547 43.5655L99.0223 44.3326L99.4572 45.2455L100.159 46.5963L100.827 47.3634L101.329 47.5825L101.796 48.0566L101.763 48.9329L101.997 49.3341L102.084 49.2965Z" fill="#008281" stroke="white" stroke-width="0.5"/>
<path d="M64.0893 36.2129L64.5193 36.9871L65.8988 37.0967L67.1521 37.4254L67.5786 37.8916L68.2053 38.0833L69.1574 38.7413L70.06 40.5772L70.2105 41.6456L70.4111 42.3031L70.2858 42.9058H69.9351L69.0073 42.1935L68.6561 41.7826L68.1548 41.4813L67.7035 41.6735L67.4028 42.1387L66.9015 42.3579L66.3249 42.4127L65.9989 42.714L65.6477 43.2893L65.0716 43.6177L64.3192 44.4947L64.1938 45.234L63.968 45.8367L63.5924 46.3294L63.2408 46.4933L62.89 46.1924L62.4388 45.9184L62.3134 45.3431L62.0123 45.097L61.8374 44.7135H61.4609L60.9849 44.9874L60.4831 45.0148L60.2329 44.7409L60.1731 44.4806L60.48 44.2252L60.6749 44.2464L61.2599 43.9906L61.7094 43.607L61.8648 43.1594L61.8458 42.3279L62.2745 42.3062L62.4118 42.072L62.4312 41.5387L62.5482 41.0266L62.4512 40.9201L62.4893 40.5366L62.5676 40.4725L62.6062 39.8967L62.5871 39.3851L62.5087 39.0864L62.5433 38.7664L62.0991 38.8734L61.8263 38.4253L61.9038 38.1054L62.216 37.5292L62.3927 37.0812L62.7435 36.676L62.8599 35.9938L63.0747 36.1639L63.2111 35.8223L63.1531 35.5881L63.4255 35.6093L63.6411 35.8864L63.7186 36.1851L63.9139 36.1639L63.855 35.844L63.9728 35.8011L64.0893 36.2129Z" fill="#B1B1B1" stroke="white" stroke-width="0.5"/>
<path d="M96.7686 55.5773L97.0175 55.8694L97.2894 56.3254L97.2681 57.0319L96.9962 57.4649L96.5157 57.7159L96.1189 58.0349L96.2234 58.7185L96.3908 59.311L96.2863 60.4957L95.9524 61.2018L95.3253 61.9317L94.448 62.7059L93.8625 63.184L93.2775 63.7535L92.6721 63.9815L92.3798 64.4826L92.0866 65.0977L91.6478 65.5758L91.1681 65.9858L90.9379 66.3954L90.72 67.094L90.3736 67.5111L89.6846 67.8072H88.5145L87.4911 67.9212L86.8826 67.8407L86.8011 67.8301L86.6549 67.3976L86.488 65.6213L85.9238 65.0517L85.4641 64.2321L84.9632 63.9135L84.4198 63.3209L83.9389 62.9109L83.8556 62.2958L83.6253 61.9998L83.1245 61.7948L82.5815 61.8403L81.5784 62.3413L79.8654 62.3188H77.6715L76.2716 62.5693L75.0391 63.0024L73.8275 62.8194L73.2633 62.4098V61.4298L73.4931 60.8606L73.8275 60.4047L74.0157 59.7896L73.5144 58.787L73.0963 58.5135L73.1171 58.126L73.4931 57.0089L73.8483 56.5308L74.0777 55.9608L74.1614 55.4819L73.8062 54.5928L73.5347 54.2097L73.0963 53.8903L72.8244 53.3658L72.1977 53.2743L71.7801 53.4572L71.4249 53.4117L70.9028 52.8868L70.2757 52.5678L69.7952 52.1118L69.2939 51.8608L69.022 51.4503L68.2908 50.8118L67.5388 50.4239L66.933 49.5119L66.6403 48.8729L66.3064 48.4165L65.972 48.28L66.1394 47.7776L66.557 47.527L66.766 47.1161L66.4317 46.7052L65.763 46.7281L64.9065 47.2076L64.3423 46.9791L63.841 46.8421L63.4583 46.3919L63.5925 46.3291L63.968 45.8365L64.1939 45.2338L64.3192 44.4945L65.0717 43.6174L65.6478 43.2891L65.999 42.7138L66.325 42.4125L66.9016 42.3577L67.4029 42.1385L67.7036 41.6732L68.1549 41.481L68.6562 41.7824L69.0074 42.1933L69.9352 42.9056H70.2859L70.4112 42.3029L70.2106 41.6454L70.0601 40.577L69.1575 38.741L68.2053 38.0831L67.5787 37.8913L67.1522 37.4252L65.8989 37.0964L64.5194 36.9868L64.0894 36.2127L64.2457 35.8862L64.0115 35.5662L64.4016 35.481V35.0758L64.1673 35.1399L64.1284 34.9476L64.2648 34.6914L64.5181 34.4143L64.6359 34.1156L64.7727 33.9663L64.8697 33.5818L65.026 33.3684L65.1239 32.9628L65.2997 32.5364L65.8068 31.981L65.9428 31.6823L66.1965 31.4905L66.0411 31.0849L66.1385 30.9139L66.119 30.7005L66.2165 30.4442L66.4893 30.1238L66.6451 29.8039L66.9179 29.5905L67.1522 29.2003L67.9875 29.2931L68.2806 29.0187L68.8236 28.7903L69.2833 28.9732L69.9936 29.0187L70.3696 28.7903L70.9963 28.6533L71.5397 28.8822L72.1242 29.3391L72.2496 29.8879L72.5839 30.5736L72.3333 31.3049L72.7929 31.5793L73.2106 31.8992L74.0046 32.2191L74.4227 32.3566L74.924 32.7675L75.3 32.539L75.676 32.4295L76.1357 32.7953L76.2189 33.2977L76.6786 33.6176L79.144 33.5721L79.52 33.9835L79.6458 34.8058L79.3114 35.5371L78.9771 36.0395L79.144 36.5419L79.9801 36.6793L80.3973 37.3187L81.4836 38.0495L81.7764 38.3239L82.5284 38.7803L83.6151 39.7852L84.3676 39.7396L84.8684 39.6486L85.4118 39.4652L85.7878 39.6486L85.9969 39.9681L86.4982 40.425L86.7488 41.2468L87.8356 41.9317L88.6292 42.0682L89.2975 42.2967L89.7572 43.0275L89.7988 43.6665L89.5486 43.9404L89.4233 45.2183L89.7988 45.5837L90.0078 45.9032L89.7988 46.4056L89.4233 47.1355L89.4653 47.7745L89.9662 47.7285L90.3838 47.5465L90.8856 47.592L91.2616 47.8655L91.9299 48.2764L92.3063 48.8239L92.3891 49.4169L92.8076 49.7818L93.518 49.9648L93.4763 50.6488L93.1415 51.7892V52.2452L93.6849 52.5187L94.1446 52.7923L93.727 54.0237L93.9772 54.7537L94.5618 55.3462L95.3979 55.9843L96.234 55.8022L96.7686 55.5773Z" fill="#B1B1B1" stroke="white" stroke-width="0.5"/>
<path d="M86.8826 67.8408L86.6386 68.1811L86.3463 68.2266L85.8237 68.6137L85.6772 68.8187L85.3849 69.9339L85.1763 70.1615L84.6953 70.5256L84.5071 70.8671L84.361 71.7999L84.0687 71.9139H83.5049L83.2538 71.6183L83.1072 71.2538L82.9823 70.7531L82.5851 70.6396L82.272 70.7987L81.8752 71.5728L80.9974 72.2325L80.6635 72.7331L80.4545 73.1427L79.8903 73.4613L79.1171 73.5523L78.2189 73.6208L77.7801 73.9394L77.4878 74.326L77.0281 74.7127L76.9027 75.3273L76.6623 75.5823L76.1193 75.8549L75.8479 76.1054L75.3882 76.3555L73.7797 76.4236L73.1942 76.6966L72.7974 77.0148L72.3794 77.5839L72.0459 78.1976L71.4392 78.3116H70.6039L70.1859 77.8791L69.7683 76.9238L69.2873 76.3325L68.619 75.7184L67.7625 75.4908L65.569 75.0361L64.9623 74.8311L64.2524 74.7171L63.4588 74.7401L63.1244 74.8541L62.7485 75.1042L62.6435 75.6958L62.686 76.196L62.8317 76.6507L62.8742 77.1968V77.7655L62.7068 78.1521L62.4145 78.4937L61.8078 78.6528L61.3278 78.6302L59.0506 78.7893L57.4 78.8118L56.6897 78.6072L56.0422 78.2432L55.2902 77.4018L54.6215 76.8562L53.7234 76.5826L52.5321 76.4461L51.8217 75.9L51.1951 75.5363L50.1083 74.8086L49.0224 74.2169L48.0401 73.7618L47.6332 73.5983L46.7762 72.7106L46.108 71.7774L45.3976 70.9122L44.8755 70.207L44.4574 69.9565L43.914 69.8884L43.4964 69.6834L43.1204 69.0458L42.9109 68.5226L42.5358 67.862L42.2843 67.5435L41.8729 67.1546L42.2351 66.8555L42.9388 66.4954L43.1147 66.2616L43.4853 66.0062L43.6027 65.7932L43.6607 65.4959L43.8365 65.347L43.9145 65.5595H44.1288L44.1483 65.3682L44.3055 65.0708L43.9738 65.1132L44.0907 64.8578L44.2457 64.8786L44.7732 64.2834L44.8905 64.0921L44.8316 63.9007L45.1438 63.5813L45.0074 63.4112L45.0659 63.2198L45.3976 63.0069V62.5814L45.573 62.4753L45.6709 62.1558L45.8263 61.9645L46.0415 61.4966L46.3148 61.0494L46.4122 61.007L46.685 60.262L46.9786 59.2837L47.3489 58.2833L47.7585 57.5384L48.0118 56.8358L48.0902 56.1757L48.2855 55.8138L48.5007 55.1969L49.0268 54.4087L49.2412 54.2165L49.4949 54.2381L50.0414 53.9823L50.4901 54.3234L50.6849 54.2593L51.2318 53.8762L51.4661 53.8974L51.7974 54.0256L52.2655 54.387L52.6556 54.3658L52.773 54.2381L52.2655 53.8762L51.9927 53.5992L51.8563 53.365L51.6796 53.2373L51.1738 53.2585L51.6415 52.4919V51.9806L51.7584 51.7893L52.1681 51.3205L52.3629 51.2136L52.285 50.9586H52.4803L52.734 50.724L53.1238 50.127L53.6503 50.1063L54.1189 50.0417L54.9975 49.7868L55.2699 49.8292L55.4266 49.7015L56.0117 49.7444L56.1485 49.6803H56.5971L56.5581 49.1262L56.7725 48.892L57.1042 48.6795L58.295 47.5284L58.3535 47.1661L58.5873 47.0804L58.8216 46.4414L58.8411 45.9726L59.0944 45.3549L59.2304 45.312L59.485 45.0138L60.1732 44.4805L60.233 44.7407L60.4832 45.0147L60.985 44.9873L61.4611 44.7133H61.8375L62.0124 45.0969L62.3136 45.343L62.4389 45.9183L62.8902 46.1922L63.2409 46.4931L63.4584 46.392L63.841 46.8422L64.3423 46.9792L64.9065 47.2076L65.763 46.7282L66.4317 46.7052L66.7661 47.1162L66.5571 47.5271L66.1395 47.7776L65.972 48.28L66.3064 48.4166L66.6403 48.873L66.9331 49.512L67.5389 50.424L68.2909 50.8119L69.022 51.4504L69.2939 51.8609L69.7953 52.1119L70.2758 52.5679L70.9029 52.8869L71.425 53.4118L71.7802 53.4573L72.1978 53.2744L72.8244 53.3659L73.0964 53.8904L73.5348 54.2098L73.8063 54.5929L74.1614 55.4819L74.0777 55.9609L73.8483 56.5309L73.4932 57.009L73.1172 58.1261L73.0964 58.5136L73.5144 58.7871L74.0157 59.7897L73.8275 60.4047L73.4932 60.8607L73.2633 61.4299V62.4099L73.8275 62.8195L75.0392 63.0024L76.2717 62.5694L77.6716 62.3189H79.8655L81.5785 62.3414L82.5816 61.8403L83.1245 61.7948L83.6254 61.9999L83.8557 62.2959L83.9389 62.911L84.4199 63.321L84.9633 63.9136L85.4641 64.2321L85.9238 65.0518L86.488 65.6214L86.655 67.3976L86.8011 67.8302L86.8826 67.8408Z" fill="#B1B1B1" stroke="white" stroke-width="0.5"/>
<path d="M122.799 76.8164L121.811 76.8438L121.234 76.489L120.758 76.2433L119.83 75.9977L118.551 75.9159L116.52 75.1785L115.769 74.6597L115.142 74.1409L114.439 73.8679L113.914 73.7314L113.513 73.2674L113.161 72.9669L112.71 72.9121L112.51 73.5131L112.635 74.0044L112.961 74.3323L113.036 74.6597L112.735 74.851H112.209L111.306 75.0967L110.88 75.2602L110.629 75.5881L110.755 75.8611L111.181 76.2433L111.105 76.6255L110.554 76.8982L109.928 76.789L109.225 76.5712L108.298 76.3794L107.37 75.6154L106.342 75.0698L105.364 74.7962L103.71 74.6054L102.782 74.5232L101.805 74.0862L101.102 73.7314L100.576 73.2943L100.337 73.035L99.9491 72.4482L99.3725 71.902L98.7706 71.6016L97.6679 71.629L96.8154 71.8473L96.2388 72.066L95.737 72.5025L95.3114 72.803L94.6591 72.8573L94.1077 72.1208L93.7822 71.4107L93.2805 70.9732L92.4532 70.8646L91.3248 70.2906L91.1242 69.9901V69.6079L91.3505 69.1435L91.4501 68.4878L91.2247 67.6955L90.9236 67.4768L90.7198 67.0941L90.9377 66.3955L91.168 65.9859L91.6476 65.5759L92.0865 65.0978L92.3797 64.4827L92.672 63.9817L93.2774 63.7537L93.8624 63.1841L94.4479 62.706L95.3252 61.9319L95.9522 61.2019L96.2862 60.4958L96.3907 59.3112L96.2233 58.7186L96.1188 58.0351L96.5156 57.716L96.9961 57.4651L97.268 57.0321L97.2893 56.3255L97.0173 55.8695L96.7684 55.5774L96.7764 55.5743L97.4456 55.0728L98.0722 54.6623L98.8242 53.6134L99.0753 53.0208L99.4929 52.3819L99.6594 51.7434L99.9522 50.375L100.496 49.782L100.914 49.5995H101.498L102.042 49.417L102.084 49.2964L102.331 49.1881L103.1 49.2977L103.635 49.2248L104.069 48.8231L104.872 48.7502L105.54 48.4219L106.309 47.9474L106.71 47.5457L107.179 46.8882L108.048 46.7424L108.749 46.6695L109.418 45.9753L109.819 45.8662L110.153 45.5374L110.454 45.0262L110.555 44.6246L110.521 43.7479L110.187 43.4196L109.986 43.1275L109.919 42.6888L110.287 42.36L110.454 42.0317V41.3375L110.521 40.8625L110.989 40.5705L111.256 40.3146L111.859 40.2413L112.326 40.3584L112.661 39.4451L112.928 39.0796H113.597L114.164 39.0067L114.834 38.8238L115.368 38.7142L115.769 38.5317L116.304 38.4584L116.839 38.203L117.373 37.8004L117.608 37.2892L118.109 36.9233L118.611 36.8138L119.045 36.6675L119.312 36.2292L119.747 35.7175L120.315 35.4617L120.85 35.5346L121.385 35.7175L122.287 35.6446L122.889 35.3883L123.223 34.9133L123.29 34.2916L123.524 33.3045L124.694 32.0982L125.597 31.9153L126.533 31.879L127.001 31.6957L127.635 31.3298L128.07 30.8915L128.305 30.2327L128.171 29.6481L127.77 29.1726L127.502 28.6234L127.603 28.1113L127.802 27.5625L128.338 27.27L128.839 27.1966L129.607 27.4896L130.41 27.5992L131.112 27.3433L131.747 26.7579L132.115 26.2824L132.884 25.9895H133.886L134.589 25.6965L134.99 25.4407H135.525L135.638 25.5759L135.384 25.7685L135.13 25.8538L134.564 26.217L134.018 26.3659L133.511 26.6226L133.297 26.8997V27.1564L133.082 27.2846L132.945 27.498V27.7114L132.731 27.9253L132.379 28.011L132.282 28.2027L131.989 28.3733L132.009 28.8006L131.619 28.8434L131.384 28.8006L131.092 28.9716L130.682 29.4196L130.799 29.6759V29.9534L130.604 30.124L130.662 30.5512L130.409 30.8075L130.252 30.8712L130.116 31.1274L129.629 31.6612L129.277 31.7248L129.14 32.0664L128.692 32.5149L128.282 32.6006L128.184 32.7071L128.067 33.1127L127.736 33.4326L127.56 33.7101L127.502 33.9448L127.248 34.4144L126.974 35.2677L126.897 35.417L126.623 36.2279L126.311 37.5079L126.174 38.3183L125.94 40.0672L125.902 41.0053L125.921 42.3061L126.019 43.0953L126.234 44.0329L126.37 44.5229L126.623 45.184L126.877 45.6316L126.955 45.9934L127.268 46.6973L127.189 47.5497L127.208 48.2315L127.404 49.9362L127.677 51.1928L128.087 52.2789L128.36 52.8326L128.457 53.1308L128.614 53.3226L128.712 53.6209L129.218 54.1529L129.491 54.2594L129.785 54.2381L130.019 54.5152L130.311 54.494L130.564 54.6641L130.662 55.0048L130.174 55.0472L130.252 54.8983L130.096 54.7489L129.726 54.8766L129.258 54.536L128.828 54.6429L128.731 54.8983L129.004 55.1325L129.042 55.3879L129.316 55.1325L129.472 55.1749L129.453 55.4519L129.316 55.558L129.237 55.7922L129.375 55.9627L129.589 55.8138L129.863 56.1757L130.214 56.4952L130.135 56.6229L129.785 56.6865L129.57 56.793L129.648 57.4527L129.629 58.3258L129.726 58.8578L129.882 59.1344L129.746 59.3686L129.804 59.7941L129.921 59.943L129.55 60.4326L129.121 60.4538L128.867 60.5391L128.614 60.7517L128.146 60.9222L127.677 60.9863L127.54 61.1559L127.365 61.7732L127.345 62.2412L127.404 62.6026L127.502 62.7303L127.774 62.7091L128.048 62.7944L128.301 63.0069L128.204 63.135L128.224 63.6878L128.341 63.8367L128.906 63.8151L129.063 64.028L129.004 64.177L128.692 64.1986L128.614 64.0921L128.146 64.1558L127.95 64.3259L127.716 64.3471L127.443 64.6237L127.345 64.8367L127.131 64.8579L126.974 65.0492L126.351 65.3258L126.116 65.7297L126.194 65.8786L126.174 66.1552L125.804 66.5378L125.765 66.6872L125.413 67.027L125.024 67.3036L124.634 67.7927L124.457 68.1961L124.321 68.6857L124.145 69.0255L124.107 69.3026L123.872 70.3016V71.0241L123.794 71.3431L123.775 72.3421L123.56 72.5971L123.443 72.9152V73.107L123.17 73.5109L123.014 74.0844L122.721 74.7428L122.604 75.1042L122.721 76.0392L122.839 76.4643L122.799 76.8164Z" fill="#B1B1B1" stroke="white" stroke-width="0.5"/>
<path d="M100.337 73.0348L100.2 73.2836L99.8985 73.5019L99.523 73.6932L99.3476 74.0211V74.8398L99.0969 75.7682L98.9211 76.2869L98.7205 76.7235L98.3445 77.2422L97.5172 77.4057L97.116 77.5423L96.6647 78.0336L96.4398 78.5245L96.1129 78.9072L95.5368 79.0702L95.2609 79.3981V80.0529L95.3114 81.0626L95.0102 81.5266L94.5089 81.8266L94.0071 82.0175L93.5311 82.1535L93.1555 82.6453L93.2304 83.1358L93.0045 83.5176L92.5271 83.7632H92.0772L91.4005 83.4084H90.9988L90.4722 83.0541L90.0209 82.9175L89.3943 83.081L88.9435 83.2723L88.2158 83.1632L87.6897 83.0267L87.2385 82.4814L86.8625 82.1266L86.436 82.1535L86.06 82.618L85.9847 83.1084L85.7845 83.5724L85.4586 83.9815L84.6809 84.0359L83.9794 83.7906L83.3275 83.7085L82.3997 84.0089L82.1491 84.1176L81.9237 84.3633L81.6473 84.5542L80.9959 84.3633L80.2691 83.8176L79.8927 83.8724L79.6549 84.1724L79.228 84.3359L78.8524 84.3907L78.5517 84.7994L78.426 85.0994L78.1253 85.6177L77.6235 85.7817L76.1948 85.8086H75.3175L75.0669 86.1087L74.8414 86.6539L74.4902 87.1453L73.7626 87.9357L73.237 88.3719L72.7852 88.8354L72.1085 88.9989L70.6046 88.9171L69.3004 88.9719L68.9996 89.1138L68.8243 89.522L68.5484 90.6126L68.3225 91.103L67.9217 91.43L67.3704 91.7305L66.5927 91.8392L66.1166 91.7574L65.6406 91.4026L65.1888 91.3752L64.6375 91.6213L63.9103 92.0844L63.459 92.5749L63.0077 92.7931L62.4564 92.8201L61.8793 92.711L61.4537 92.4109L61.328 92.057L60.9019 92.0844L60.7766 92.521V93.2558L60.626 93.5289L60.3005 93.9645L60.0494 94.0467L59.8993 93.6106L59.824 92.7931L59.5481 92.4109L59.0968 92.2205L58.6208 92.1383L58.2948 91.7848L57.9184 91.4852L57.3923 91.6213L57.1164 92.0027L57.0158 92.4383L56.8152 92.9292L56.4645 93.2014L56.3139 93.9371L56.2887 94.6185L56.0885 95.3268L55.7125 95.572L55.1859 95.6264L54.3839 96.2529L53.9326 97.2334L53.8325 97.7234L53.5566 98.4326L53.3808 98.977L52.829 99.4122L52.3534 100.066L51.9269 100.393L51.3251 100.611L50.7989 100.855L50.1971 100.692L49.4199 100.556H47.7149L47.0882 100.447L46.3362 100.093L45.5843 99.794L45.0573 99.4401L44.4558 98.7857L43.6033 98.7318L42.8009 98.5135L42.35 98.4326L41.8983 97.1521L42.0241 96.5799L42.2247 96.3895L42.1242 95.8442L41.5728 95.1907L41.2969 93.828L40.7704 93.2832L40.2695 92.9836L39.4418 93.0653L38.5392 92.7384L37.8368 92.5749L37.2102 92.1661L36.433 91.8392L35.6562 91.43L35.0543 90.9943L34.879 90.2586L35.0543 89.7129L34.6031 88.7042L34.4029 88.0502L33.9512 87.3414L33.4999 86.7962L33.1992 86.2779L32.852 86.0826L32.9494 85.9765L32.968 85.658L32.2462 85.0429L32.0912 85.0636L31.9738 84.894H31.7975L31.5637 84.7031L30.5876 84.3637L30.6855 84.2785L31.1545 84.4481L31.3294 83.8114L31.4078 83.7266L31.7586 82.7076L32.1492 82.6228L32.2076 82.3254L32.5978 81.5398L32.6173 81.0515L32.9295 80.2018L33.398 80.2871L33.8856 79.2465L34.1589 79.2249L34.1979 79.4803L34.003 79.65L33.9056 80.075V80.478L33.7687 80.6905L33.6713 81.0091L33.5349 81.2005L33.3006 81.7523H33.1244L32.91 81.6034H32.6762L32.6368 81.8372L32.3051 82.644L32.2656 82.8778L31.9149 83.7054L32.0517 83.875L32.286 83.8331V83.5565L32.4229 83.4933L32.5584 83.0262L32.7931 82.5168L33.1841 82.6869L33.398 83.0899L33.5544 83.2626L33.6713 82.8137L33.5349 82.7076L33.4561 82.3042L33.7103 81.5827L34.1398 80.6481L34.4321 79.6712L34.569 79.5863L34.8431 79.714L34.9587 80.0114L34.6274 80.3507L34.7049 80.9455L35.0167 80.5628L34.9977 80.2447L35.154 79.9266L35.1341 79.65L35.0167 79.5439V79.2465L35.3298 79.0552L35.4857 79.1825L35.7979 79.1617L35.9348 78.928L35.7195 78.8855L35.3298 78.9492L35.154 78.9067L34.9977 79.0128L34.549 78.9492L34.4118 78.8431L34.4512 78.6306H34.8024L34.6075 78.312L34.6274 78.1631L35.1735 77.0589L35.4272 77.1442L35.5446 77.2922L35.739 77.1225L36.0122 77.2922L36.5198 77.5047L36.832 77.2498L36.8714 76.613L36.9684 76.3369L36.793 75.5928L36.9104 75.2106L37.1052 75.0409H37.3191L37.4755 74.7426L37.5738 74.7219L37.6123 74.3816L37.8851 74.1479L37.925 74.0206L38.5684 73.4467L38.7243 73.0852L38.9396 72.8307L38.8222 72.3632L38.9781 72.3203L39.2319 71.8741L39.2708 71.449L39.583 71.0239V70.6837L39.7194 70.4499L39.6614 70.2586L39.9342 70.1097L39.7783 69.876L40.0901 69.4721L40.285 69.3444L40.6171 68.9618L40.9094 68.7704L41.2411 68.154H41.4953L41.8726 67.1545L42.2841 67.5434L42.5356 67.862L42.9107 68.5225L43.1202 69.0457L43.4962 69.6833L43.9138 69.8883L44.4572 69.9564L44.8752 70.2069L45.3974 70.9121L46.1077 71.7773L46.776 72.7105L47.6329 73.5982L48.0399 73.7617L49.0222 74.2168L50.1081 74.8085L51.1949 75.5362L51.8215 75.8999L52.5319 76.446L53.7232 76.5825L54.6213 76.8561L55.29 77.4018L56.042 78.2431L56.6894 78.6072L57.3998 78.8117L59.0503 78.7892L61.3275 78.6301L61.8076 78.6527L62.4143 78.4936L62.7066 78.152L62.874 77.7654V77.1967L62.8315 76.6506L62.6858 76.1959L62.6433 75.6957L62.7482 75.1041L63.1242 74.854L63.4586 74.74L64.2522 74.717L64.9621 74.831L65.5688 75.036L67.7623 75.4907L68.6188 75.7183L69.2871 76.3325L69.768 76.9237L70.1856 77.879L70.6037 78.3116H71.4389L72.0457 78.1975L72.3791 77.5838L72.7972 77.0147L73.194 76.6966L73.7794 76.4235L75.3879 76.3554L75.8476 76.1053L76.1191 75.8548L76.662 75.5822L76.9025 75.3272L77.0278 74.7126L77.4875 74.326L77.7798 73.9393L78.2187 73.6208L79.1168 73.5523L79.89 73.4612L80.4543 73.1427L80.6633 72.733L80.9972 72.2324L81.875 71.5727L82.2718 70.7986L82.5849 70.6395L82.9821 70.7531L83.107 71.2537L83.2536 71.6182L83.5047 71.9138H84.0684L84.3607 71.7998L84.5069 70.8671L84.6951 70.5255L85.176 70.1614L85.3846 69.9338L85.6769 68.8186L85.8235 68.6136L86.3461 68.2265L86.6384 68.181L86.8824 67.8407L87.4909 67.9212L88.5143 67.8072H89.6844L90.3735 67.5111L90.7198 67.094L90.9235 67.4766L91.2246 67.6954L91.4501 68.4876L91.3504 69.1434L91.1241 69.6078V69.99L91.3247 70.2904L92.4531 70.8644L93.2804 70.9731L93.7822 71.4106L94.1077 72.1206L94.659 72.8572L95.3114 72.8029L95.737 72.5024L96.2387 72.0658L96.8153 71.8471L97.6678 71.6288L98.7705 71.6014L99.3724 71.9019L99.949 72.448L100.337 73.0348Z" fill="#008281" stroke="white" stroke-width="0.5"/>
<path d="M45.1877 99.5272L45.1439 100.114L44.7931 100.195L43.7152 100.277L43.0385 100.222L42.938 100.767L43.1882 101.448L43.4398 101.719L43.7152 102.401L43.5646 103.408L43.1882 103.898L42.7374 104.198L42.4867 104.768L42.4615 105.122L42.7121 105.558V107.734L42.6621 108.219L42.5372 108.981L42.3366 109.633L42.186 110.423L41.6843 111.293L41.8849 112.027L41.9349 112.517L41.7848 112.68L42.0354 113.387L42.4615 113.794L43.3893 114.801L43.8149 115.1L44.5172 115.236L45.0438 114.937L45.5451 114.828L45.8711 115.263L45.6957 116.133L45.0938 116.649L44.2413 116.84L42.9898 116.968L42.9128 116.975L39.6285 116.432L37.9239 116.024L33.4107 116.106L31.1552 114.882L29.6256 114.502L29.0738 114.311L28.673 113.904L28.3471 113.741L28.0464 113.958L27.2439 114.094L24.0345 113.985L23.1324 114.339L21.6027 114.393L19.4969 114.583L18.6196 114.23L17.6923 114.012H17.1657L17.1321 113.866L17.4576 113.782L17.4177 113.316L17.2428 112.956L16.9695 112.871L16.8526 112.744L16.4824 112.533L16.6768 112.3V112.089L16.3252 111.919L16.0528 111.877L15.916 111.728V111.454L16.0719 111.411L16.404 111.537L16.6179 110.819L16.7742 111.03L17.0669 110.839L17.5355 110.924L17.6914 110.903L18.0032 110.628L18.3548 110.395L18.4522 109.993L18.9589 109.252L19.0961 108.68L19.2914 108.447L19.7011 107.791L19.9354 107.134L20.0324 107.028L20.1307 106.668L20.4624 106.075L20.5788 105.694L19.9938 105.631L19.6431 105.524L19.6231 105.27L19.8773 104.846L20.0518 104.656L20.2281 104.296L20.423 104.042L20.6568 103.575L20.833 103.364H20.9694L20.911 103.046L21.1253 102.537L21.399 101.69L21.5748 101.563L22.6669 101.542L22.6479 101.288L22.7838 100.525L22.9597 100.334L23.4468 99.2104L24.1301 98.3205L24.2865 97.769L24.4809 97.7483L25.1053 97.3245L25.6523 97.0488L26.2182 96.7095H26.4521L26.8033 96.4982L26.7833 96.0529L26.9007 95.7131L27.115 95.2884L27.3298 95.3096L27.7793 94.25L27.5056 94.0804L27.3692 93.593L27.0769 93.9319H26.8033L26.53 93.7622L26.6079 93.3601L26.3936 93.2528L26.2377 93.4229L26.3356 93.7415L26.1009 93.783H25.4175L25.1053 93.8259L24.852 93.6778L24.8715 93.5082L25.0477 93.338L25.1642 93.0835L25.4764 92.7234L25.5344 92.5537L25.8276 92.1503L26.0034 92.0235V91.8538L26.3546 91.4937L26.5499 91.1955L27.2124 91.2595L27.4662 91.1747L27.5645 90.8778L27.642 90.4112L27.9737 90.0294L27.9348 89.9021L27.6624 89.7112L27.9937 89.223L28.4423 88.6499H29.6907L30.0228 88.6079L30.4715 88.6499L30.6273 88.459L30.8616 88.4378L30.9785 88.1833L30.6668 87.9076L30.9785 87.5682L31.1738 87.2496H31.2908L31.4276 86.9956L31.8762 86.5497L31.9741 86.168L32.1889 85.8494L32.7934 86.168L32.8523 86.0827L33.1995 86.278L33.5002 86.7963L33.9515 87.3415L34.4032 88.0503L34.6034 88.7042L35.0546 89.713L34.8793 90.2587L35.0546 90.9944L35.6565 91.4301L36.4333 91.8393L37.2105 92.1662L37.8371 92.575L38.5395 92.7384L39.4421 93.0654L40.2698 92.9837L40.7706 93.2833L41.2972 93.8281L41.5731 95.1908L42.1245 95.8443L42.225 96.3895L42.0244 96.58L41.8986 97.1522L42.3503 98.4327L42.8012 98.5136L43.6036 98.7319L44.4561 98.7858L45.0575 99.4402L45.1877 99.5272Z" fill="#008281" stroke="white" stroke-width="0.5"/>
<path d="M42.9901 116.968L43.0073 117.261L43.1743 117.488L43.3412 118.077L43.6756 118.824L43.9059 119.48L43.9892 120.092L43.6548 121.088L43.2996 121.247L43.0281 121.836L42.9865 123.081L43.0698 123.625L43.4458 123.919L43.5503 124.417V125.209L43.4254 125.571L43.1535 126.114L43.0073 126.68L42.7354 127.014L42.5472 127.58L42.3807 129.096L42.4223 129.594L42.6938 129.707L43.0698 129.345L43.2788 129.006L43.5503 128.825L43.7385 129.142L43.8014 129.752L44.0729 130.318L44.6579 130.522L45.3886 130.839L45.9949 130.612L46.4546 130.341L46.8514 129.979L47.5413 129.956L47.8748 129.752L48.0839 129.368L48.3761 129.255L48.9616 129.368L49.2752 129.798L49.3748 130.49L49.2955 130.816L49.024 131.155L49.5045 131.902L49.6091 132.535V133.191L49.2955 133.552L48.8779 133.688L48.3349 133.461L47.8124 133.1H47.1649L46.7265 133.282H45.9532L45.4936 133.214L45.1176 132.897L44.2606 133.326L43.7801 133.461L43.5295 132.942L43.4874 132.263L42.8607 131.969L42.3807 132.105L42.0047 132.331L41.712 132.579L41.0645 132.806L39.2257 132.761L38.0973 132.422L37.2621 132.263L36.0292 131.743L34.9849 131.155L34.2537 130.363L33.7728 129.73L33.7103 129.164L33.3339 128.711L32.833 128.372L31.83 128.689L31.3915 128.961L29.6157 129.073L29.0306 129.233L28.1529 129.64L27.5891 129.436L26.9417 129.096L26.3146 129.051L25.4789 129.413L24.9771 130.341L24.1003 130.657L23.7659 130.861L23.5985 131.314L23.1813 131.743L22.5751 131.834L21.948 132.037L21.6552 132.467L21.4883 133.122L21.2589 133.598L20.2558 133.62L19.6079 133.846L19.2323 134.141L18.7306 134.661L18.5849 135.248L18.2713 135.633L17.7487 135.904L17.3936 136.22L17.1221 136.582L16.5787 136.334L16.3909 135.859L16.0566 135.678L15.6801 135.836L15.4091 136.288L15.367 137.351L15.158 137.983L14.8865 138.345L14.511 138.405L13.6541 138.473L12.9645 138.201L12.4216 137.952L12.0451 137.884L11.5434 137.975L11.2303 138.179L10.6452 138.155L10.186 137.929L9.93534 137.591L8.849 137.546L8.52129 137.399L8.46239 136.906L8.73652 136.863L8.81403 136.631L8.71704 136.294L8.07223 135.428L7.99518 135.174L8.07223 134.604L8.01422 134.203L8.229 133.95L8.28747 133.421L8.09216 133.316V132.45L8.16966 131.816L8.5607 131.436L8.67717 131.078H8.54078L8.40394 131.394L8.11165 131.436L8.15018 130.908L8.11165 130.253L8.15018 129.704L8.05318 129.534L8.11165 129.239L8.16966 128.541L8.5018 127.76L8.79409 127.316L8.85344 126.957L9.02836 126.618L9.0483 126.385L9.18471 126.027L9.34147 125.836L9.75067 124.865L10.1209 124.484L10.3556 124.04L10.6484 123.723L10.9796 123.596L11.155 123.787L11.4291 123.765V123.511L10.6085 123.342L10.3158 123.405L10.1209 123.236L10.1408 122.707L10.2383 122.053L9.94553 122.01L9.67273 121.778L9.73119 121.566L9.96502 121.651V121.905L10.2183 121.946L10.2972 121.778L10.3756 121.037L10.492 120.466L10.6674 120.001L11.1165 120.023V119.515H10.8428L10.7064 119.24L10.492 119.092L10.7458 118.563L10.55 118.393L10.5895 118.098L10.7848 117.95L10.8428 117.653L10.9796 117.442L11.155 117.463L11.5451 116.723L11.3507 116.616L11.2139 116.892L11.019 116.934L10.9017 116.723L11.0974 116.469L11.3113 116.384L11.2533 116.087L11.155 116.003L10.8627 116.172L10.55 116.109L10.3158 116.278L10.1408 116.532L9.86759 116.363L10.1603 116.194L10.4141 115.918V115.707H10.8233L11 115.474L11.585 115.051L11.9357 114.882L12.267 114.628L12.6576 114.226L12.872 114.311V114.564L13.282 114.776L13.6137 114.882L13.5354 115.072L13.7506 115.199L14.1217 114.712L14.2187 114.776L14.8037 114.734L14.8241 114.586L14.4725 114.523L14.2377 114.416L14.3361 114.269L14.7453 114.311L15.4282 114.48H15.7599L15.9747 113.972L16.0331 113.464L16.5021 113.507L16.4622 113.845L16.7745 113.951L17.1323 113.866L17.1659 114.012H17.6925L18.6199 114.23L19.4972 114.583L21.603 114.393L23.1326 114.339L24.0347 113.985L27.2441 114.094L28.0466 113.958L28.3473 113.741L28.6732 113.904L29.074 114.311L29.6258 114.502L31.1555 114.882L33.411 116.106L37.9242 116.024L39.6287 116.432L42.913 116.976L42.9901 116.968Z" fill="#B1B1B1" stroke="white" stroke-width="0.5"/>
<path d="M28.328 138.266L28.863 137.868L29.5645 137.614L30.0995 137.904L30.5007 138.663L31.0357 138.989L31.436 138.881L31.9378 138.844L32.3727 139.025L32.6402 139.387L33.1083 139.712L33.2752 140.255L33.6433 140.471L34.0104 140.797L33.8102 141.266L33.4426 141.701L33.0746 141.81L32.8408 142.352L32.4391 142.496L31.6371 142.243L31.436 141.954L31.2027 141.918L30.9019 142.171L30.4002 142.713L30.0326 143.4L29.2638 143.544L28.8962 143.039L28.4618 142.641L28.1274 142.026L27.4255 141.737H26.3219L25.9884 141.628L26.0553 141.158L26.2218 140.906L26.255 140.435L25.9211 140.037L25.5867 139.712V139.423L25.9211 139.098L26.3219 138.952H26.79L27.3582 139.098L27.9268 138.554L28.328 138.266Z" fill="#B1B1B1" stroke="white" stroke-width="0.5"/>
<path d="M49.3743 130.49L51.2091 130.425L51.6772 130.569L52.2117 130.932L53.0146 131.113L53.8171 131.366L54.9535 131.402L55.5549 131.655L55.7555 132.271L55.856 134.261L55.5885 134.804L55.221 135.094L54.8866 135.563L54.9535 136.396L55.3211 136.939L55.8224 137.481L55.9898 138.422L56.1567 139.651L56.5247 140.483L57.0593 140.989L59.1655 141.242H59.8675L60.402 140.916L61.6389 140.808L63.0428 140.88L63.7115 140.952L64.5476 141.133H65.1322L65.5334 141.35L65.3992 141.747L64.0618 141.676L63.5273 142.037L62.7921 142.254L61.3214 142.434L60.8201 143.013L60.452 143.808L59.1819 144.531L58.6137 144.567L58.0455 145.001L57.6111 145.723L57.4109 146.483L56.8759 147.206L56.174 148.361L55.3715 148.687L54.7701 148.65L54.4021 149.084L53.934 149.951L53.4659 150.579L52.6971 150.832L51.7613 150.868L51.1599 151.446L50.9593 152.096L50.2242 152.602L49.7229 153.144L48.4191 153.613L47.784 154.047L47.6835 154.949L46.9147 155.057L46.1122 154.949H45.6441L45.3429 154.552L43.471 154.624L43.4046 155.419L43.304 155.997L43.2035 156.863L43.2699 157.549L43.5711 158.127L44.0055 158.632L44.106 158.92L43.9386 159.281L43.7358 159.427L43.6375 159.498L42.8691 159.426L42.033 159.534L41.7323 159.714L41.0304 159.642L40.6291 159.281L39.9272 159.209L39.4591 159.354L38.724 160.255L38.1225 160.327H37.5207L37.0863 159.858L36.3843 159.606L35.716 159.57L35.3148 159.462L34.9468 159.101L35.0137 158.271L35.4149 158.018L35.5819 157.512L35.5154 156.899L35.3812 156.466L35.0137 155.961L34.9804 155.022L35.0469 154.335V153.578L35.7825 152.386L35.883 151.735L35.4486 151.085L34.9136 151.013L33.8441 150.616L33.6439 150.291L34.3454 149.46L34.0779 149.171L33.5097 149.164L32.5739 149.236L32.3733 148.983L32.3401 148.369L33.1426 147.754L33.31 147.466L32.9752 146.851L32.5744 147.068L31.4712 147.104L31.0031 146.707L30.3348 146.2L30 145.876L29.6325 145.659L29.0643 145.514L28.2622 145.948L27.6267 145.984L27.1923 145.695L26.7911 145.55L26.0896 145.731L25.7215 146.056L25.0865 146.237L23.6157 146.273L22.7796 146.598L22.0777 147.104L21.6096 147.393L20.9741 147.718H20.1052L19.8714 147.971L19.7044 148.477L18.568 148.657L18.3005 149.018L18.2 149.85L17.9994 150.246L16.9635 150.319L16.6624 150.535V151.366L16.4618 151.763L15.5924 151.944L14.8909 152.34L14.3896 153.027L14.1221 153.858L13.8546 154.327L13.0854 154.616H12.5008L12.267 154.544L11.9326 154.219L11.6315 154.183L11.5314 154.58L11.1302 154.616L10.6621 154.219L10.3016 153.735L9.90034 153.316L9.64658 153.2L9.02835 153.027L8.95085 152.832L8.63819 152.474L8.15015 152.178L7.38977 152.241L6.97923 152.052L6.99916 151.378L7.31138 151.314L7.38977 151.146L7.29189 150.955H7.05805L7.37293 150.181L7.60012 149.776L7.6537 149.386L8.14838 149.169L8.96369 148.707L9.04429 148.288L9.2985 147.725L9.56599 147.494L9.71168 147.013L9.53631 146.233L9.43888 146.085L9.06777 146.211L8.95085 146.527L8.81401 146.423L8.73606 146.085L8.69665 145.241L8.7551 145.198L8.81401 144.65L8.62225 144.403L8.45485 144.023L8.50488 143.462V142.902L8.18913 142.603L7.77949 142.856L7.62315 142.666L7.64219 142.413L7.99427 142.054L8.13687 142.033V141.709L8.442 140.872L8.67583 140.661L8.83438 140.365L8.77149 140.208L8.15281 139.955L7.07533 139.837L6.7051 139.5L6.58774 139.225L6.54877 138.804L6.5687 137.706L6.6462 137.495L6.8415 137.326H7.21173L7.81668 137.495L8.20728 137.516L8.5195 137.397L8.84722 137.543L9.93311 137.588L10.1838 137.927L10.643 138.154L11.228 138.177L11.5411 137.973L12.0429 137.883L12.4193 137.95L12.9627 138.199L13.6523 138.47L14.5092 138.402L14.8852 138.343L15.1567 137.982L15.3657 137.349L15.4078 136.287L15.6788 135.834L16.0552 135.676L16.3896 135.857L16.5778 136.332L17.1212 136.58L17.3927 136.219L17.7478 135.902L18.2704 135.631L18.584 135.247L18.7297 134.659L19.2314 134.139L19.6074 133.845L20.2553 133.619L21.2584 133.596L21.4882 133.121L21.6552 132.465L21.9475 132.036L22.5746 131.832L23.1809 131.741L23.598 131.312L23.7654 130.86L24.0998 130.656L24.9767 130.339L25.4784 129.411L26.3141 129.049L26.9412 129.094L27.5887 129.435L28.1524 129.638L29.0297 129.231L29.6147 129.072L31.3906 128.959L31.8291 128.688L32.8321 128.372L33.3335 128.71L33.7099 129.163L33.7723 129.729L34.2533 130.362L34.9844 131.154L36.0287 131.742L37.2612 132.262L38.0969 132.42L39.2253 132.76L41.0636 132.805L41.7115 132.579L42.0038 132.33L42.3802 132.104L42.8603 131.968L43.4869 132.262L43.529 132.941L43.7797 133.46L44.2602 133.324L45.1171 132.895L45.4931 133.212L45.9528 133.28H46.726L47.1644 133.099H47.8119L48.3345 133.46L48.8779 133.686L49.2955 133.551L49.609 133.189V132.533L49.5045 131.9L49.024 131.154L49.2955 130.814L49.3743 130.49ZM28.3282 138.266L27.9274 138.554L27.3588 139.097L26.7906 138.952H26.3225L25.9217 139.097L25.5874 139.423V139.711L25.9217 140.036L26.2556 140.434L26.2224 140.905L26.0559 141.157L25.989 141.627L26.323 141.735H27.4261L28.1281 142.024L28.4629 142.639L28.8969 143.037L29.2644 143.543L30.0333 143.398L30.4008 142.711L30.9026 142.169L31.2033 141.916L31.4367 141.952L31.6377 142.242L32.4398 142.494L32.8414 142.35L33.0748 141.807L33.4428 141.699L33.8104 141.265L34.0106 140.795L33.6434 140.469L33.2754 140.253L33.1085 139.71L32.6404 139.385L32.3729 139.023L31.9384 138.842L31.4367 138.879L31.0363 138.987L30.5013 138.661L30.1001 137.902L29.5651 137.613L28.8636 137.866L28.3282 138.266Z" fill="#008281" stroke="white" stroke-width="0.5"/>
<path d="M43.7356 159.427L44.1306 159.637L44.3981 160.053V160.486L44.0474 160.882L43.763 161.405L43.345 161.857L43.1944 162.614L43.1111 163.245L42.3255 164.129L41.9075 164.541L41.5567 165.001L41.1803 165.163L40.6037 165.677L40.1276 166.408L39.7764 166.894L39.601 167.543L39.5762 168.246L39.3756 168.679L39.2751 169.328L38.7738 169.814L38.4983 170.355L37.7711 170.463L36.8433 171.544L36.4426 171.68L35.1636 172.788L34.8376 172.977L34.4616 173.41L34.211 174.086L33.5343 174.653L32.1805 175.653L31.9298 176.139L31.6291 176.599L30.8519 176.68L30.5007 176.923V177.491L30.4507 177.95L29.4976 178.625L29.4223 179.138L29.2221 179.462L28.7332 180.661L28.5574 181.418L28.0061 181.931L27.8807 182.309V182.984H26.9782L26.5269 182.769L26.0256 182.715L25.449 182.769L24.8976 183.092L24.6718 183.444L24.1952 183.903L23.8693 184.362L23.4681 184.685L22.9667 184.902L22.24 184.929L21.2369 184.902L20.5855 184.712L19.9588 184.659L19.357 184.469L18.6298 184.362L18.3039 184.119L17.9031 184.253L17.7521 184.551L17.4766 184.712L16.9248 184.362H15.4461L14.819 183.633L13.1897 183.416L12.3996 183.174L12.0741 182.984L11.7478 182.903L11.3142 182.888L11.1348 182.952L10.6078 183.351L10.4719 183.287L10.5104 182.679L10.6078 182.237V181.459L10.3939 180.597L10.0432 179.924L9.75001 179.441L9.73052 179.252L9.58924 179.067L9.49625 178.769L9.35941 178.642L9.02769 178.116L8.50113 177.549L7.64243 176.771L6.92057 176.056L5.92547 175.236L5.71067 175.152L5.32095 174.857L5.00874 174.71L4.24747 174.227L4.09157 174.079L3.70142 173.889L3.11551 173.742L2.94058 173.616L3.07743 173.427L3.17486 172.963L2.94058 172.795L2.60888 173.09L2.25724 173.237L2.00393 172.921L1.76966 172.46L1.84805 172.312H2.19879L2.39409 172.186L2.37505 171.975L2.1793 171.449L2.39851 171.344L2.37505 171.176L2.10136 171.282L1.96452 170.86L0.891912 170.881L0.833 171.176L0.560199 171.05L0.481812 170.839L0.579687 170.544L0.59873 170.25L0.73557 169.598L0.697052 169.071L1.10581 168.755L1.69172 168.377L1.9065 168.187L2.29577 167.956L2.64785 167.829L3.33074 167.451L4.0898 167.387L4.20804 167.068L4.18857 166.862L4.28688 166.588L4.13099 165.977L3.77493 165.749L3.57431 165.352L3.42418 164.378L3.27361 163.999L3.02295 163.855L2.87238 163.549L2.92287 162.917L3.17486 162.716L3.40913 162.209L3.70142 161.745L3.74083 161.556L3.97422 161.05L4.07209 160.713L3.97422 160.503L4.07209 160.313L4.13099 159.576L4.14251 159.031L4.63806 158.733L5.10617 158.649L5.2625 158.439V158.164L5.57471 157.89L5.67214 157.659L6.06186 157.469L5.92547 157.279L5.7501 157.258L5.76914 156.69L6.0229 156.415L6.27709 156.394L6.62828 156.036L6.58266 155.8L6.24831 155.583L5.84751 155.259L5.78065 154.807L6.14025 154.456V154.203L5.73061 154.14V153.887L5.88604 153.697L6.15974 153.171L6.336 152.58L6.39356 152.095L6.51092 152.053L6.95999 152.411L7.46706 152.453L7.545 152.391L8.14951 152.221L8.67651 152.643L8.93028 153.053L9.02769 153.028L9.64549 153.201L9.89925 153.317L10.3009 153.736L10.6614 154.22L11.1295 154.617L11.5307 154.58L11.6308 154.183L11.9315 154.22L12.2659 154.545L12.5002 154.617H13.0847L13.854 154.328L14.1215 153.858L14.389 153.028L14.8903 152.342L15.5918 151.944L16.4611 151.764L16.6617 151.366V150.536L16.9629 150.319L17.9987 150.247L18.1994 149.85L18.2994 149.019L18.5674 148.658L19.7038 148.477L19.8707 147.971L20.1045 147.718H20.9734L21.6089 147.393L22.077 147.104L22.7785 146.598L23.6147 146.273L25.0854 146.237L25.7205 146.056L26.0885 145.731L26.79 145.55L27.1912 145.695L27.6261 145.984L28.2611 145.947L29.0632 145.514L29.6314 145.658L29.9989 145.876L30.3337 146.2L31.002 146.706L31.4697 147.104L32.5733 147.068L32.9741 146.851L33.3089 147.465L33.1415 147.754L32.339 148.368L32.3727 148.983L32.5733 149.235L33.5091 149.163L34.0772 149.17L34.3447 149.46L33.6432 150.29L33.8434 150.615L34.9129 151.013L35.4479 151.085L35.8823 151.735L35.7823 152.385L35.0467 153.577V154.335L34.9798 155.021L35.013 155.96L35.381 156.466L35.5148 156.899L35.5816 157.512L35.4147 158.017L35.013 158.27L34.9461 159.1L35.3141 159.461L35.7154 159.57L36.3837 159.606L37.0856 159.858L37.5205 160.327H38.1223L38.7237 160.255L39.4593 159.353L39.927 159.209L40.6289 159.281L41.0301 159.642L41.7321 159.714L42.0328 159.534L42.8689 159.425L43.6373 159.497L43.7356 159.427Z" fill="#008281" stroke="white" stroke-width="0.5"/>
<path d="M28.1436 212.001L28.5537 211.949L28.8381 211.626L29.0887 211.248L29.1888 210.656L29.4062 210.225L29.5068 209.256L29.8079 208.196L29.9913 207.945L29.908 207.28L29.2561 206.383H28.9054L28.9218 202.309L29.005 201.392L29.156 200.907L29.2224 200.475L29.5068 200.277L29.7074 199.936L30.0249 198.948L30.0081 197.671L30.2424 197.239L30.292 193.299L30.5931 192.435L31.0276 190.87L31.2782 189.305L31.7795 188.964L32.2476 188.981L32.632 189.251L32.9832 189.233L33.3836 189.485L33.7015 189.808L34.4867 189.845L35.4061 189.467L36.0243 189.503L36.6094 189.791L37.3113 189.845L37.6953 189.647L38.1297 189.233L38.5646 188.64L38.7812 188.063L39.1492 187.685L40.1518 187.056L40.7537 186.588L41.2882 186.083L42.2076 186.03L43.0433 185.813L43.8121 185.76L44.2465 185.958L44.514 186.444L44.6477 187.146L45.0485 187.397L45.5667 187.433L46.653 187.164L47.1548 186.858L47.3886 186.372L47.8399 185.796H48.2916L49.1109 185.868L49.6955 186.012L51.2499 186.965L52.4868 188.639L52.9549 189.071H53.4567L53.7906 188.855L54.1582 188.423L54.5594 188.063L54.9691 187.901L55.3867 187.451L55.7706 187.109L56.473 187.038L56.9411 187.217L57.2086 187.523L57.5598 187.721L58.1444 187.505L58.9805 188.099L58.9898 188.147L59.2475 189.448L59.2311 190.275L59.4149 190.653L60.0163 191.012L60.8852 191.067L61.3538 191.391L61.5708 191.732V193.243L61.7546 193.531L61.4871 193.854L61.3365 194.375V195.76L61.1027 196.354L60.8688 196.713L60.8188 197.45L60.6014 197.863L60.3006 198.115H58.0695L57.6851 198.438L57.2675 199.391L56.9832 199.75L56.4482 199.912L55.7963 200.002L55.4952 200.163L54.7432 200.397L54.2087 200.343L53.9243 200.577V200.968L53.7569 201.256L53.4394 201.615L53.2056 202.441L52.8376 202.926L52.6037 203.358L52.1356 203.969L52.0524 204.4L51.8686 204.885L51.551 205.227L51.2335 205.748V207.113L50.9488 207.417L50.7481 207.831L50.8823 208.244L50.9155 208.639L50.4474 209.663L50.2468 210.165L50.1636 210.665L50.4142 211.15L50.6317 211.401L50.8992 211.922L50.9824 212.657L51.5506 213.591L51.7676 214.094L51.7844 214.972L51.6671 215.439L51.2495 215.726L50.9651 216.139L51.032 216.75L51.2158 217.109L51.1658 217.503L51.4501 217.844L51.7844 217.988L52.1852 218.401L52.4864 218.867L53.2716 219.692L53.4221 220.248L53.6223 220.496L53.439 220.819L53.0878 221.178L52.2521 221.25L51.7503 221.428L51.5338 221.859L51.3996 222.451L51.2158 222.864L50.9315 223.742L50.714 224.083L50.7309 224.639L51.1321 224.925L51.5165 225.284L51.9678 225.768L52.7361 226.109L53.1542 226.127L53.388 226.539L54.0563 227.149L54.14 227.955L54.1232 228.654L53.8057 228.922L53.4212 229.155L53.3043 229.424L53.5377 229.783L53.8389 229.941L54.2233 230.299L54.5745 230.711L54.7751 231.178L54.4075 231.859L54.4407 232.449L54.8583 232.611H55.4597L56.5625 233.184L56.8136 233.543L57.1143 233.757L57.7662 233.847L58.2511 233.954L58.6519 234.259L58.9694 234.635L59.3042 234.922L59.7723 234.868L60.1067 234.6L60.558 234.348L61.0097 234.313L61.2581 234.241L61.3369 234.415V234.917L61.1611 235.147L61.0057 235.523L60.9858 235.942L61.0832 236.423L61.1806 236.589L61.1412 237.113L60.732 237.551V237.886L60.8294 238.116L60.8104 238.597L60.9663 239.015V239.411L60.8104 239.746L60.8294 240.081L60.9862 240.269V240.708L60.8294 241.105L61.1412 241.397L61.1611 241.647L61.0438 241.816L60.4193 242.275L60.3812 242.546L60.4193 242.901L60.6926 243.8L60.8879 244.05L61.0827 244.072L61.5318 244.301L61.3369 244.552L61.2975 245.157L61.0832 245.471L60.8294 245.742L60.8104 246.557L60.9463 246.829L60.9273 247.372L60.9663 247.601V248.603L61.24 249.21L61.3764 249.377L61.4348 249.69L61.2205 249.794L60.7129 250.211L60.5766 250.4V250.963L60.2059 251.234L59.8348 251.338V251.965L59.7369 252.257L59.0739 252.57L58.8007 252.78L58.1966 253.05H57.7861L57.5518 253.239L57.4938 253.781L57.6501 253.927L57.6306 254.324L57.3769 254.991L57.298 255.326L57.3379 255.869L57.5133 256.558L57.8255 257.058L57.806 257.246L58.1568 257.518L58.5279 258.101V258.205L58.7617 258.581L58.7232 259.144L58.957 259.54L59.1319 259.687L58.9951 259.853L58.7241 260H58.1382L57.8264 259.729L57.6895 259.27L57.6506 258.644L57.26 258.666L56.8109 258.352L56.6745 257.956L56.1085 257.434L55.9137 257.079L55.5235 257.226L55.0944 257.183L54.8605 256.953L54.8016 256.704L54.6648 256.682L54.5864 256.953L54.3132 256.933L54.2751 256.536L53.9044 256.39L53.2211 256.432L53.0647 256.329L52.8699 256.057L52.6551 256.015L52.3433 255.827L52.1091 255.389L51.9137 255.285L51.6604 255.306L51.5821 255.452L51.3876 255.494L51.3287 255.702L50.8996 255.869L50.7437 256.078L50.6064 256.496L50.6259 256.871L50.7233 257.059L50.7039 257.393H50.5679L50.4501 257.623L50.2357 257.727L50.2158 258.27L49.3576 258.416L49.1437 258.291L48.7141 257.644L48.7336 257.247L48.5972 257.122L48.2261 257.227L48.1087 256.935V256.476L48.2061 256.204L48.2261 255.558L48.2655 255.495L48.2455 254.827L48.4798 254.389V253.95L48.2655 253.428L47.9524 253.136V252.948L47.8164 252.635L47.5237 252.551L47.114 252.113L46.8603 251.549L46.8412 251.34L46.7039 251.215L46.4896 250.693L46.3727 250.297L46.4112 249.921L46.5485 249.629L46.7239 249.42L47.1335 249.19L47.0162 248.521L47.2504 248.041L47.7185 248.062L47.8753 247.811L47.9342 247.497L47.8948 247.143L47.583 246.161L47.4262 245.993L47.5436 245.806L47.719 245.723L48.0316 245.702L48.6171 245.263L48.5387 244.929L48.4803 244.26L48.3049 244.051L48.246 243.591L48.0516 243.257L48.1096 242.944L47.9528 242.839L47.8554 242.589L47.661 242.526L47.5241 242.276L47.6021 242.025L47.2509 241.691L47.2309 241.376L47.4262 241.001L47.1335 240.562L47.1145 240.291L47.1729 239.977L46.9581 239.412L46.8997 238.764L46.5489 237.949L46.3541 237.74L46.2558 237.176L46.4311 236.862V236.612L46.002 235.859L45.9046 235.838L45.6703 235.273L45.6508 235.002L45.3585 234.5L44.6951 233.789L44.305 233.454L43.8944 233.183L43.836 233.037L43.9139 232.43L44.0313 232.283V232.032L43.8944 231.802L43.7576 231.342L43.6991 230.986L43.4653 230.609L43.4064 230.338L43.3874 229.5L43.2704 229.249L43.0353 228.978L42.9378 228.685L42.158 227.828L41.7284 227.409L41.2399 227.053L40.8498 226.655L40.538 226.049L40.4202 225.609L40.1673 225.316L40.1089 225.149L39.875 225.066L39.7772 224.751L39.5039 224.395L39.2506 224.249L39.0163 224.019L37.4158 222.847L36.9867 222.617L36.7923 222.407L36.597 222.364L36.1484 222.072L35.8361 221.946L35.504 221.716L33.9433 220.941L33.7485 220.774L33.0076 220.355L32.8512 220.229L32.2459 219.978L31.4266 219.496L30.2946 218.659L30.0019 218.512L29.5927 218.009L29.1826 217.57L28.9288 217.151L29.1826 216.941H29.4753L29.319 216.711H29.1432L28.7721 216.983L28.6746 216.544L28.1326 216.271V212.373L28.1436 212.001Z" fill="#B1B1B1" stroke="white" stroke-width="0.5"/>
<path d="M58.9904 188.148L58.9811 188.099L58.145 187.506L57.5604 187.722L57.2092 187.524L56.9417 187.218L56.4736 187.039L55.7717 187.11L55.3873 187.452L54.9697 187.902L54.56 188.064L54.1588 188.424L53.7912 188.855L53.4573 189.072H52.9555L52.4874 188.64L51.251 186.966L49.6965 186.013L49.1115 185.868L48.2927 185.796H47.8409L47.3901 186.372L47.1558 186.858L46.6545 187.164L45.5677 187.434L45.05 187.398L44.6488 187.147L44.5155 186.445L44.248 185.959L43.8136 185.761L43.0443 185.814L42.2091 186.031L41.2892 186.085L40.7547 186.588L40.1529 187.056L39.1502 187.686L38.7822 188.064L38.5657 188.64L38.1308 189.234L37.6959 189.647L37.3119 189.845L36.61 189.791L36.025 189.503L35.4063 189.467L34.4869 189.845L33.7017 189.809L33.3837 189.485L32.9829 189.234L32.6322 189.251L32.2474 188.981L31.7797 188.964L31.2784 189.305L31.0273 190.87L30.5928 192.435L30.2917 193.299L30.2421 197.239L30.0078 197.671L30.0246 198.948L29.7071 199.936L29.5065 200.277L29.2222 200.475L29.1557 200.907L29.0047 201.392L28.9215 202.309L28.9046 206.382H29.2554L29.9073 207.281L29.991 207.945L29.8076 208.197L29.5065 209.256L29.406 210.226L29.1885 210.656L29.0889 211.249L28.8378 211.625L28.5539 211.949L28.1438 212.002L27.8103 212.002L27.6119 212.283L27.5597 216.228L27.4082 216.395L27.1545 216.417L26.8617 216.334L26.1788 215.997L25.4176 215.432L24.794 215.034L23.9743 214.384L23.6426 214.049L23.4083 214.113L23.2914 213.819L22.8822 213.358L22.7059 213.296V213.064L22.4526 212.918L22.3352 212.646L21.984 212.415L21.7892 212.121H21.5549L21.2037 211.724L20.833 211.43H20.7352L20.3835 211.073L19.9354 210.989L19.748 210.746L19.8685 210.185L19.6143 209.654L18.9323 208.964L17.9567 207.814L16.9536 206.278L16.8734 205.689L16.8916 205.519L16.6179 205.288L16.7547 205.162L16.5594 204.659L16.1888 204.323L16.0329 203.882L15.916 203.778L15.8185 203.422L15.7796 202.729L15.8571 202.33L15.9744 202.121L16.2477 201.827L16.4425 201.807L16.8132 201.471L16.7937 200.464L16.9301 200.212L17.028 200.548L17.047 200.862H17.2618L17.3787 200.632L17.3203 200.358L17.3987 200.002L17.2813 199.687V199.436L17.516 199.352V198.996L17.1648 198.785L16.6175 199.307L16.2087 198.491V198.24L16.0138 197.652L15.8376 197.526L15.7796 197.295L15.5254 196.833L15.4279 196.455L15.0967 195.721L14.8624 195.386L14.8434 195.175L14.6866 195.007L14.5891 194.65L14.2375 193.852L13.672 192.426L13.2034 191.355L12.8717 191.46L12.5011 191.375L12.4431 190.955L12.7748 190.913L12.9306 190.766L12.3257 188.813L12.2088 188.666L12.033 188.162L11.8377 187.322H12.1897L12.5011 187.448L12.7947 187.111L12.8328 186.566L13.0285 186.439L13.0865 185.978H12.7163L12.482 186.166L12.5405 186.439L12.4041 186.481L12.5011 186.923L12.1694 187.048L12.033 186.566L11.8186 186.628L11.9749 187.111L11.7991 187.092L11.6038 186.608L11.5449 186.271L11.3111 185.62L10.7061 184.086L10.5892 183.519L10.8425 183.246L11.3146 182.889L11.7482 182.904L12.0746 182.984L12.4001 183.174L13.1902 183.417L14.8194 183.633L15.4465 184.362H16.9252L17.477 184.713L17.7525 184.551L17.9035 184.253L18.3043 184.119L18.6303 184.362L19.3574 184.47L19.9593 184.659L20.5859 184.713L21.2374 184.902L22.2405 184.929L22.9672 184.902L23.4685 184.686L23.8697 184.362L24.1957 183.903L24.6722 183.444L24.8981 183.092L25.4494 182.769L26.026 182.715L26.5274 182.769L26.9786 182.984H27.8812V182.309L28.0065 181.931L28.5579 181.418L28.7337 180.662L29.2226 179.462L29.4228 179.138L29.4981 178.625L30.4511 177.95L30.5012 177.491V176.923L30.8523 176.68L31.6296 176.599L31.9303 176.14L32.1809 175.653L33.5347 174.654L34.2114 174.086L34.4621 173.41L34.8381 172.978L35.164 172.788L36.443 171.68L36.8438 171.545L37.7716 170.463L38.4988 170.356L38.7742 169.814L39.2756 169.328L39.3761 168.679L39.5767 168.247L39.6015 167.543L39.7769 166.894L40.1281 166.408L40.6041 165.677L41.1807 165.163L41.5572 165.001L41.9079 164.541L42.326 164.129L43.1116 163.246L43.1949 162.615L43.3455 161.857L43.7635 161.405L44.0478 160.882L44.3986 160.486V160.053L44.1311 159.637L43.7361 159.427L43.9389 159.281L44.1063 158.919L44.0058 158.631L43.5713 158.126L43.2702 157.548L43.2037 156.863L43.3038 155.996L43.4044 155.418L43.4708 154.624L45.3428 154.552L45.6435 154.949H46.1116L46.914 155.057L47.6828 154.949L47.7829 154.047L48.418 153.613L49.7218 153.144L50.2231 152.602L50.9582 152.096L51.1589 151.446L51.7607 150.869L52.6965 150.833L53.4653 150.579L53.9334 149.951L54.4015 149.084L54.7695 148.65L55.3709 148.687L56.1734 148.361L56.8753 147.206L57.4103 146.483L57.6105 145.724L58.0449 145.001L58.6135 144.567L59.1817 144.531L60.4518 143.808L60.8199 143.013L61.3212 142.435L62.7919 142.254L63.5271 142.037L64.0616 141.676L65.3991 141.747L65.5222 141.381L67.1802 141.472L67.8153 141.797L68.5341 142.122L69.1527 142.574L69.2865 143.351L69.5371 143.767L69.7378 144.269L70.2054 144.342L70.406 144.938L70.306 146.401L69.8378 146.673L68.9016 147.034L68.6178 147.558L68.2334 148.154L67.849 148.388L67.5146 149.364L67.8153 149.562L68.4335 149.816L68.9016 150.213L69.6372 150.538L70.3728 151.044L71.2081 151.694L71.8099 152.127L71.9437 152.687L71.8768 153.446L71.7297 153.588L71.5597 153.752L70.8573 154.023L70.1222 154.384L69.3529 154.853L68.6009 155.243L67.6483 155.478L66.9296 155.695L66.2781 155.713L65.9433 156.128L65.2923 157.175L64.5226 157.789L64.055 158.33L63.6369 158.547L63.0355 158.637L62.6511 158.889L62.3004 159.196L62.1994 159.539L62.3668 159.846L62.4173 160.459L62.1662 160.982V162.289L62.3668 162.577L62.3504 162.92L62.0993 163.244L61.648 163.515L61.4478 163.966L60.5285 164.922L60.5785 170.125L60.261 170.684L59.726 171.422L59.4922 171.964L59.5422 172.306L59.8102 172.613L60.2105 173.315L60.261 173.73L60.044 174.108L59.2411 174.595L58.8234 174.883L58.6233 175.82L58.3726 176.162L58.0383 176.755L57.5533 177.296L57.102 177.892L56.6508 178.54L56.2495 179.043L56.0157 179.422V181.561L56.2832 181.993L56.4838 182.587L56.5502 183.703L56.9687 185.162L57.3695 185.485L57.9709 185.539L58.6397 185.702L59.1242 186.151L59.2916 186.709L59.2583 187.735L58.9904 188.148Z" fill="#008281" stroke="white" stroke-width="0.5"/>
<path d="M102.917 144.625L102.799 145.03L102.605 145.516L102.468 145.663L102.409 146.212L102.292 146.424V146.74H102.098L101.96 146.993V147.351L101.843 147.394L101.746 148.153L101.629 148.553L101.609 148.87L101.707 149.101V149.418L101.55 149.713L101.609 150.029L101.473 150.177L101.297 150.641L101.316 151.633L101.199 151.885V152.391L101.024 152.58L100.927 152.812V153.128L100.419 153.044L100.125 153.171L99.8141 153.444L98.9355 154.773L98.916 155.025L98.6627 155.214L98.4479 155.826L98.5272 156.142L98.4678 156.711L98.1755 156.838L97.9417 157.533V157.912L97.7464 158.881L97.6286 158.986L97.5657 159.284L97.6096 159.492L97.8439 159.45L98.0002 159.744L97.5896 160.208L97.3173 160.608L97.1415 160.713L96.7912 160.692L96.7123 160.924L96.4391 161.071L96.2637 161.661L96.2832 162.061L96.4001 162.292L96.4395 162.818L96.5569 163.072L96.8297 163.387L96.7708 163.766L97.064 163.996L97.122 164.44L97.0445 164.524L96.986 164.902L96.8293 165.281L96.5565 165.45L96.4975 165.638L96.5365 165.934L96.4391 166.397L96.5365 166.481L96.6734 166.986L96.8682 167.197L97.1216 167.345L97.3952 167.408L97.4147 167.534L96.8881 168.145L96.5954 168.208L96.3022 167.996L96.1659 168.228V168.397L95.7363 168.838L95.5804 169.428L95.4635 169.533L94.9369 169.575L94.8005 169.512H94.2146L93.9613 169.743L93.6491 170.206V170.606L93.4152 170.796L93.5716 171.258L93.2983 171.364L92.9861 171.616L92.9073 171.847L92.8687 172.268L92.7904 172.415V172.983L92.6544 173.088L92.673 173.362L92.537 173.614L92.2833 174.245L92.2434 174.644L92.3223 174.75L92.0685 174.939L92.127 175.233L91.9715 175.485L91.7372 175.507L91.5424 175.633L91.5619 176.031L91.3666 176.369L91.1721 176.432L91.0154 177.042L91.1332 177.168L91.0353 177.631L90.821 177.882L90.7231 178.282L90.5282 178.471V178.682L90.2359 179.06L90.08 179.081L89.8458 179.418L89.5925 179.649L89.5526 179.88L89.0265 180.28L88.7532 180.3L88.5779 180.616L88.3246 180.742L88.1098 181.267L88.0318 181.604L87.9734 182.171L87.7395 182.318L87.7192 182.613L87.5633 182.843L87.5832 183.033L87.3684 183.285L87.329 183.495L86.9583 183.747L86.7829 184L86.7249 184.461L86.4512 184.672L86.3733 185.029L86.2365 185.324L85.9247 185.786L85.8073 185.849L85.4756 185.827L85.2223 186.08L85.027 186.5L85.1054 186.774L85.027 186.941L84.7347 187.067L84.3831 186.815L84.0319 186.878L83.973 187.046L83.5633 187.025L83.388 187.13L83.0563 187.067L82.9969 187.277L82.5678 187.488L82.4509 187.698L82.1192 187.929L81.807 188.328L81.8459 188.685L81.7485 189.105L81.5337 189.378V189.609L81.6506 189.776L81.9438 189.923L81.9044 190.071L82.0408 190.491L82.1781 190.658L82.2755 191.057L82.4513 191.478L82.5682 191.96V192.318L82.0412 192.716L81.7303 192.548L81.3588 192.863L81.1449 193.2L81.1249 193.577L80.9686 194.228L80.8123 194.417L80.5979 194.48L80.6759 194.858L80.9487 194.711L80.6954 195.195L79.9925 195.698L79.6024 195.782L79.0369 196.307L77.3589 198.091L76.9683 198.384L76.637 198.448L75.8372 198.951L75.6423 199.119H75.2517L74.8421 199.266L74.6087 199.434L74.0228 199.748L73.6526 200.063L73.4772 200.106L72.6185 201.029L72.3452 201.239L71.3306 201.659L70.7841 202.036L70.316 202.645L70.0043 203.316L69.6331 204.26L69.5162 204.784L69.2629 205.706L69.1061 207.217L69.1456 207.741L69.0867 207.909L68.813 208.139L68.5016 208.537L68.3068 208.6L67.9551 208.957L67.7408 209.082L67.3892 209.439L67.1549 209.774L66.9414 210.278L66.8436 210.634L66.7067 210.906L66.5123 211.64L66.1611 212.666V212.813L65.8484 213.547L65.8095 213.756L65.6146 214.154L65.5362 214.699L65.3219 215.264L65.0881 216.249L64.9512 216.646L64.8144 217.358L64.6744 217.715L64.6354 218.03L64.2643 218.846L64.2254 219.056L63.9326 219.788L63.8547 220.124L63.6014 220.752L63.2892 221.213L63.0549 221.862L62.957 222.386L62.7431 222.804L62.5868 222.971L62.372 223.599L62.333 223.977L62.0983 224.688L62.0602 225.232L61.6306 225.629L61.5717 225.922L61.279 226.486L61.1816 226.885L61.0841 226.989L60.9088 227.763L60.8499 228.705V229.29L60.8113 229.708V231.152L60.8698 231.675L60.8893 232.303L60.9872 232.68V232.931L61.1045 233.39V233.893L61.26 234.241L61.0115 234.313L60.5598 234.348L60.1085 234.6L59.7742 234.868L59.3061 234.922L58.9713 234.635L58.6537 234.259L58.2529 233.954L57.768 233.847L57.1161 233.758L56.8154 233.543L56.5643 233.185L55.4616 232.611H54.8602L54.4426 232.45L54.4093 231.859L54.7769 231.178L54.5763 230.711L54.2251 230.3L53.8407 229.941L53.5396 229.784L53.3062 229.424L53.4231 229.156L53.8075 228.923L54.125 228.655L54.1419 227.956L54.0582 227.149L53.3899 226.539L53.156 226.127L52.738 226.109L51.9696 225.769L51.5183 225.284L51.1339 224.925L50.7327 224.639L50.7159 224.083L50.9333 223.742L51.2176 222.864L51.4014 222.451L51.5356 221.859L51.7522 221.429L52.2539 221.25L53.0896 221.178L53.4408 220.819L53.6242 220.497L53.424 220.249L53.2734 219.692L52.4882 218.867L52.1871 218.401L51.7863 217.989L51.4519 217.844L51.1676 217.504L51.2176 217.109L51.0339 216.75L50.967 216.139L51.2513 215.727L51.6689 215.439L51.7863 214.973L51.7694 214.094L51.5524 213.591L50.9843 212.658L50.901 211.922L50.6335 211.401L50.4161 211.15L50.1654 210.666L50.2487 210.166L50.4493 209.663L50.9174 208.64L50.8842 208.245L50.75 207.831L50.9506 207.418L51.2354 207.113V205.748L51.5529 205.227L51.8704 204.886L52.0542 204.401L52.1375 203.969L52.6056 203.358L52.8394 202.927L53.2074 202.441L53.4413 201.616L53.7588 201.256L53.9262 200.968V200.577L54.2105 200.344L54.745 200.397L55.497 200.163L55.7982 200.002L56.45 199.912L56.985 199.751L57.2693 199.391L57.687 198.439L58.0714 198.115H60.3025L60.6032 197.864L60.8206 197.45L60.8707 196.714L61.1045 196.354L61.3384 195.76V194.375L61.4889 193.854L61.7564 193.531L61.5726 193.243V191.733L61.3556 191.391L60.8871 191.067L60.0182 191.013L59.4168 190.654L59.233 190.276L59.2494 189.449L58.9916 188.148L59.2591 187.735L59.2923 186.709L59.1249 186.151L58.6404 185.701L57.9717 185.539L57.3703 185.485L56.9695 185.161L56.5515 183.702L56.485 182.587L56.2844 181.993L56.0169 181.56V179.421L56.2503 179.043L56.6515 178.539L57.1033 177.89L57.5545 177.295L58.0395 176.754L58.3738 176.16L58.6245 175.818L58.8247 174.882L59.2423 174.594L60.0452 174.107L60.2622 173.728L60.2117 173.314L59.8114 172.611L59.5439 172.305L59.4938 171.963L59.7277 171.421L60.2626 170.683L60.5802 170.124L60.5301 164.921L61.4495 163.965L61.6497 163.514L62.101 163.243L62.3521 162.919L62.3684 162.576L62.1678 162.288V160.981L62.4189 160.458L62.3684 159.845L62.201 159.538L62.302 159.195L62.6528 158.889L63.0372 158.636L63.6386 158.546L64.0562 158.33L64.5243 157.788L65.2935 157.175L65.945 156.127L66.2798 155.712L66.9312 155.695L67.65 155.478L68.6026 155.243L69.3546 154.853L70.1234 154.384L70.8585 154.022L71.5609 153.752L71.731 153.588L72.0202 153.873L72.1871 154.504L72.5007 154.888L72.7509 155.339L72.7301 156.264L72.9604 157.031L73.754 158.52L74.2765 158.994L75.0702 159.129L75.8646 159.512L76.6795 159.761L77.3686 160.19L77.7658 160.663L78.0369 161.272L78.4966 161.542L79.0599 161.767L79.4159 161.633L79.8544 161.249L80.2512 160.979H80.8575L81.0873 161.272L81.6723 161.588L81.9854 162.263L82.3202 162.539L82.299 163.351L82.4451 164.14L82.9044 164.433L83.2808 164.839L83.4482 165.605L83.605 165.898L84.2104 166.168L84.8795 166.777L86.3631 167.16L86.7183 167.476L86.969 168.129L87.073 168.94L87.4282 169.21L87.9503 169.256L88.3476 168.896L88.7027 168.738L89.8728 168.693L90.3958 168.423L90.7714 168.152L90.8347 163.982L91.0849 163.5L91.7328 162.89L92.1712 162.237L92.4427 161.583L92.9653 159.801L93.3001 159.238L93.5087 158.742L93.801 158.245L93.9055 157.501L94.072 156.891L94.6158 156.531L95.033 156.102L95.0543 154.77L95.18 154.093L95.6393 153.687L95.932 153.348L96.2659 152.531L96.8718 151.741L97.4152 150.906L97.9794 149.867L97.8957 149.484L96.9975 148.964L96.893 148.197L97.0604 147.542L97.4156 146.526L98.0631 145.374L98.3558 144.673L98.7734 144.199L99.4001 143.996L99.672 143.703L100.549 143.544L101.907 143.771L102.324 144.199L102.784 144.471L102.917 144.625Z" fill="#B1B1B1" stroke="white" stroke-width="0.5"/>
<path d="M92.5272 83.7634L92.5985 84.1774L92.8983 84.4774L92.924 85.1592L92.6733 85.4592L91.5954 85.5958L91.219 85.8136L90.8682 86.0862L90.5175 86.6319L89.5897 87.232L88.9378 87.4498L88.6118 88.0768L88.2859 88.9221V89.9035L88.5113 90.5027L89.1637 90.694L89.6145 91.0479L89.9909 91.7023L90.1911 92.111L90.7429 92.1384L91.0941 92.5745V93.5497L90.9435 94.0954L90.6424 94.6398L89.7403 95.4029L89.3142 95.8925L88.7119 96.2469L88.436 96.8734L88.386 98.2087L88.2859 98.8614L87.9347 99.3792L87.0074 101.285L87.0578 102.129L87.4582 102.402L87.634 102.974L87.584 106.13L87.7097 106.49L87.96 106.898L87.8847 107.334L87.5339 107.578L87.0831 108.068L86.9321 108.449L87.3834 109.319L87.3333 109.999L87.0322 110.353L86.3807 110.625L86.1301 111.06L85.7288 112.148L85.2775 112.665L85.1518 113.834L85.0016 114.786L84.1744 115.602L84.425 116.309L84.3998 116.934L84.1992 117.178L83.7984 117.477L83.3219 117.559L82.9707 118.021L82.9207 118.592L83.1465 118.891L83.7231 119.135L84.3498 119.842L84.65 120.304L84.6761 120.956L84.8515 121.391L85.2271 121.907L85.2528 123.683L85.0769 124.39L84.7762 125.286L84.6261 126.508L84.3746 127.567L84.1992 128.871L84.0234 129.929L83.5978 130.717L83.2222 131.259L82.6704 131.314H82.0938L81.542 131.776L80.953 132.155L80.5518 132.291L80.0505 132.182L79.4486 132.236L79.1975 132.4V132.67L79.3738 132.942L79.6745 133.675L79.6993 133.946L79.2985 134.218L79.1479 134.543L78.9978 135.032V136.881L78.4212 137.045L77.8946 137.505L77.368 137.669L76.9411 137.479L76.1896 137.018L75.6382 137.072L74.9615 137.235L74.6104 137.371H74.0834L73.7579 137.451L73.4071 137.75L73.2313 138.266L73.0559 138.618L72.6294 138.889L72.3035 139.378L72.028 139.92L71.9275 140.381L71.6264 140.571L71.602 140.869L71.8775 141.113L72.1782 141.493L72.203 142.034L72.0781 142.442L71.6768 142.577L71.5515 142.74L71.2256 142.848L70.8996 143.092L70.4736 143.309L69.9971 143.363L69.7216 143.526L69.5356 143.764L69.2863 143.351L69.1525 142.574L68.5339 142.122L67.8151 141.797L67.18 141.471L65.522 141.381L65.533 141.35L65.1314 141.133H64.5468L63.7107 140.952L63.0419 140.879L61.6385 140.808L60.4016 140.916L59.8671 141.241H59.1651L57.0589 140.989L56.5244 140.482L56.1563 139.651L55.9894 138.421L55.822 137.481L55.3207 136.938L54.9531 136.396L54.8858 135.563L55.2201 135.094L55.5877 134.804L55.8556 134.262L55.7551 132.271L55.5545 131.656L54.9531 131.402L53.8163 131.367L53.0142 131.113L52.2113 130.932L51.6768 130.569L51.2091 130.425L49.3744 130.49L49.2747 129.797L48.9612 129.368L48.3757 129.255L48.0834 129.368L47.8744 129.752L47.5409 129.956L46.8509 129.979L46.4541 130.341L45.9944 130.612L45.3882 130.839L44.6574 130.522L44.0724 130.318L43.801 129.752L43.7381 129.142L43.5499 128.825L43.2784 129.006L43.0693 129.345L42.6934 129.707L42.4219 129.594L42.3803 129.096L42.5468 127.58L42.735 127.014L43.0069 126.68L43.1531 126.114L43.425 125.571L43.5499 125.209V124.416L43.4453 123.919L43.0693 123.625L42.9861 123.081L43.0277 121.836L43.2992 121.247L43.6544 121.088L43.9887 120.092L43.9055 119.48L43.6752 118.824L43.3408 118.077L43.1739 117.488L43.0069 117.261L42.9896 116.968L44.2412 116.84L45.0937 116.649L45.6955 116.133L45.8709 115.263L45.5449 114.828L45.0436 114.937L44.5171 115.236L43.8147 115.1L43.3891 114.801L42.4613 113.795L42.0353 113.387L41.7846 112.68L41.9347 112.517L41.8847 112.027L41.6841 111.293L42.1858 110.423L42.3364 109.634L42.537 108.981L42.6619 108.219L42.712 107.734V105.558L42.4613 105.122L42.4866 104.768L42.7372 104.198L43.188 103.898L43.5645 103.408L43.715 102.401L43.4396 101.719L43.188 101.448L42.9378 100.767L43.0384 100.222L43.715 100.277L44.793 100.195L45.1437 100.114L45.1876 99.5272L45.5844 99.7941L46.3363 100.093L47.0883 100.447L47.715 100.556H49.42L50.1972 100.692L50.799 100.855L51.3252 100.611L51.927 100.393L52.3535 100.066L52.8291 99.4124L53.3809 98.9771L53.5567 98.4328L53.8326 97.7236L53.9327 97.2335L54.384 96.253L55.186 95.6265L55.7126 95.5721L56.0886 95.3269L56.2888 94.6186L56.314 93.9372L56.4646 93.2015L56.8153 92.9294L57.0159 92.4384L57.1165 92.0028L57.3924 91.6214L57.9185 91.4854L58.2949 91.7849L58.6209 92.1384L59.0969 92.2206L59.5482 92.4111L59.8241 92.7933L59.8994 93.6107L60.0495 94.0468L60.3006 93.9646L60.6261 93.529L60.7767 93.2559V92.5211L60.902 92.0845L61.3281 92.0571L61.4538 92.4111L61.8794 92.7111L62.4565 92.8202L63.0078 92.7933L63.4591 92.575L63.9104 92.0845L64.6376 91.6214L65.1889 91.3753L65.6406 91.4027L66.1167 91.7575L66.5928 91.8393L67.3705 91.7306L67.9218 91.4301L68.3226 91.1031L68.5485 90.6127L68.8244 89.5222L68.9997 89.1139L69.3005 88.972L70.6047 88.9172L72.1086 88.999L72.7853 88.8355L73.2371 88.372L73.7627 87.9359L74.4903 87.1454L74.8415 86.654L75.0669 86.1088L75.3176 85.8087H76.1949L77.6236 85.7818L78.1253 85.6179L78.426 85.0996L78.5518 84.7995L78.8525 84.3908L79.2281 84.336L79.655 84.1725L79.8928 83.8725L80.2692 83.8177L80.996 84.3634L81.6474 84.5543L81.9238 84.3634L82.1492 84.1177L82.3998 84.009L83.3276 83.7086L83.9795 83.7908L84.681 84.036L85.4587 83.9816L85.7846 83.5725L85.9848 83.1085L86.0601 82.6181L86.4361 82.1537L86.8626 82.1267L87.2385 82.4815L87.6898 83.0268L88.2159 83.1633L88.9436 83.2725L89.3944 83.0811L90.021 82.9176L90.4723 83.0542L90.9989 83.4085H91.4005L92.0772 83.7634H92.5272Z" fill="#B1B1B1" stroke="white" stroke-width="0.5"/>
</svg>
