<svg width="140" height="261" viewBox="0 0 140 261" fill="none" xmlns="http://www.w3.org/2000/svg">
<path d="M135.621 25.5695L135.507 25.4343H134.973L134.572 25.6901L133.87 25.983H132.868L132.099 26.2759L131.731 26.7512L131.096 27.3365L130.394 27.5923L129.592 27.4827L128.824 27.1898L128.322 27.2632L127.787 27.5556L127.587 28.1042L127.487 28.6162L127.754 29.1653L128.156 29.6406L128.289 30.2251L128.055 30.8837L127.62 31.3219L126.986 31.6877L126.518 31.871L125.582 31.9072L124.68 32.0901L123.51 33.2961L123.276 34.2829L123.209 34.9045L122.875 35.3794L122.274 35.6356L121.372 35.7085L120.837 35.5256L120.302 35.4527L119.734 35.7085L119.299 36.22L119.032 36.6582L118.598 36.8044L118.096 36.914L117.595 37.2798L117.361 37.7909L116.827 38.1933L116.292 38.4486L115.757 38.5219L115.356 38.7044L114.822 38.8139L114.153 38.9968L113.585 39.0697H112.917L112.649 39.435L112.315 40.3481L111.847 40.2311L111.245 40.3044L110.978 40.5602L110.51 40.8522L110.443 41.327V42.021L110.276 42.3492L109.909 42.6779L109.976 43.1166L110.177 43.4086L110.51 43.7368L110.544 44.6132L110.443 45.0147L110.143 45.5258L109.809 45.8545L109.407 45.9636L108.739 46.6576L108.038 46.7305L107.169 46.8763L106.701 47.5336L106.3 47.9351L105.531 48.4096L104.863 48.7378L104.06 48.8107L103.626 49.2122L103.092 49.2851L102.323 49.1755L102.076 49.2838L101.988 49.3213L101.755 48.9202L101.788 48.0442L101.321 47.5702L100.819 47.3511L100.151 46.5843L99.4493 45.2338L99.0145 44.3212L98.547 43.5543L98.4465 42.6779L98.6798 42.0939L99.3824 41.5095L99.85 40.9979L99.9837 40.4139L99.6821 40.1948L99.3151 39.5737L99.0145 38.7335L98.4465 38.1858L97.8116 37.3818L97.3099 36.9069L96.4413 36.5416H95.7391L95.1715 36.7607H94.4365L93.7675 36.3954L92.732 36.0301L92.6655 35.6868L93.2663 35.5768L93.4001 35.3577L92.9657 34.8091L92.9321 34.188L92.6655 33.3473L92.2644 32.7262L91.796 32.4338L91.2944 31.7023L91.1947 31.2274L91.3953 30.7887L91.796 30.3863L91.8956 30.0205L91.5959 29.8743L91.1947 29.801L91.0938 29.3257L91.1947 28.7408L91.5286 28.3384V27.5706L91.4622 26.912L91.328 26.4733L91.5286 26.0709H94.6371L95.1378 25.5585L95.4725 24.9369L95.9728 24.7907L96.2075 24.5707L96.5418 24.3516L96.575 23.8758L96.3744 23.7292L96.3071 23.3634L96.7082 23.1076L96.9757 22.9977L97.1094 22.6314L96.9424 22.3023L96.4081 21.9728L96.3071 21.1679L96.4081 20.5822L96.0738 19.8864L95.6058 19.594L94.5702 19.5578L93.0653 19.3373L92.7988 18.9716L92.5982 18.3492L92.2303 17.6534L91.5622 17.3605L90.8268 16.9214L90.1587 16.8114L89.1891 16.5919L88.5879 16.1157L88.0867 15.4933L88.6742 15.2008L88.9753 14.9534L89.6265 14.9261L90.8051 15.0634L92.0329 14.9534L92.5088 14.7887L93.0605 14.4865L93.5864 14.2391L94.1129 13.7722L95.3415 13.1675L95.8675 12.9484L96.2438 12.6732L96.6197 12.2884L97.108 11.3272L97.7846 11.2172L98.3114 11.4371L99.2133 12.5358L99.5892 13.1405L99.815 14.0744L100.191 15.0082L100.468 15.3771L100.53 15.8891L100.765 16.1457L101.767 16.6948L102.703 16.7681L103.238 17.3172L103.806 18.2325L103.84 19.2207L103.773 20.6122L103.204 21.1613L102.736 21.6733L102.669 22.1857L102.77 23.2106L103.271 23.5763L103.873 23.3206L104.307 22.7715H104.809L105.376 23.4663L105.711 25.0032L106.312 25.4056L107.014 25.6252L107.448 26.4667L108.15 26.9782H109.454L110.322 27.3078L111.124 27.2344L111.291 26.6491L111.024 26.32L110.623 25.9909V25.0761L110.389 24.3083V23.6497L110.556 23.2106L111.191 22.6981L112.361 22.7715L113.998 22.6248H114.667L114.868 22.3324L114.634 22.0395L113.898 21.93L113.463 22.0395L112.628 21.5637L112.16 21.1613L111.827 20.7951L111.893 20.4656L112.294 20.246L112.06 19.8431L111.76 19.5507V19.1841L112.093 18.8554L112.428 18.3792L112.561 17.903L112.528 17.2439L112.294 16.7315L111.659 16.2553L111.057 16.0357L110.423 15.5595L110.523 14.9371L110.958 14.3142L110.69 13.9118L110.088 13.3256L109.788 12.849L109.888 12.3365L109.788 11.567L109.386 11.2741L109.219 10.6879L109.386 9.80843L109.053 9.51511L108.351 9.36889L108.05 9.18556L107.816 8.59893L107.448 8.37894L107.281 8.48893L107.115 8.85558L106.746 9.22223L106.379 9.51511L106.279 9.91798L105.41 10.2846L104.908 10.7246L104.541 10.9442L103.906 11.0908L103.538 11.4937L102.937 12.2265L102.269 13.2156L101.634 13.8385L101.366 15.1938L100.932 15.2671L100.47 15.3753L100.793 14.6513L100.717 13.4153L100.267 12.591L99.815 11.9315L99.0127 11.0634L98.3862 10.7334L97.735 10.5682L97.2081 10.2661L97.1581 10.0739L97.5344 9.79915L97.9103 9.60699L98.1609 8.75442L98.3862 8.23228L99.2133 7.40753L99.339 6.99539L99.4891 6.69323L99.8903 5.4559L100.267 5.18114L100.893 5.01592H101.494L101.72 4.79593L101.97 4.19074L102.171 3.61337L102.572 3.31078L102.948 3.17295L103.725 2.73342L104.051 2.32082L104.452 2.15517L104.903 2.21039L105.705 2.23822L105.906 1.82519L106.231 1.46781L106.532 1.5778L106.682 1.79779L107.986 1.82519L108.387 1.16522L108.738 1L109.063 1.16522L109.415 1.71563L109.966 1.93562L110.367 2.183L111.019 2.3756L111.745 2.8708L112.172 3.28339L112.61 4.05335L112.91 4.71332L112.961 5.56589L113.287 6.08804L114.014 6.3628L114.189 6.6654L114.088 7.02277L114.114 7.38059L114.465 7.84752L114.866 8.26011L115.267 8.58965L116.57 8.64443L117.121 8.42487L117.447 8.12228V8.34227L117.247 9.11223L116.921 9.33222L116.77 9.82654L116.871 10.2113L117.421 10.4198L117.763 10.6857L118.117 10.7595V10.8757L117.992 11.2604L117.641 11.5074L116.438 11.9748L116.062 12.1947L115.536 12.4417L114.834 12.6617L114.257 12.6891L113.931 13.046L112.979 13.2934L112.678 13.5681L112.979 14.3377L113.931 14.9146L113.907 15.5184L114.107 15.958L114.333 16.6723L114.734 17.0288L115.034 17.4961L115.335 17.8531L116.012 17.9352L116.313 18.1548L116.815 18.7039L117.716 18.8139L118.468 19.0612L119.195 19.8299L119.495 20.1868L120.348 20.3511L121.225 20.3238L121.852 20.0494L122.98 19.473L123.23 18.9508L122.955 18.3469L122.453 18.1L122.078 17.8252L121.927 17.3309L122.027 16.7266L122.428 16.1228L122.804 15.7106L123.23 15.4358L123.556 15.3537L123.932 15.5732L124.208 15.7932L124.584 15.5732L124.91 15.0241L125.235 14.612L125.475 13.9675L125.54 13.8601L125.987 13.8818L126.112 14.82L126.487 14.9574L126.78 14.7516L127.637 14.5227L127.971 14.7745L130.185 14.7975L130.894 15.0952L131.73 15.0493L132.001 14.7975L132.587 14.7745L132.837 14.4998L133.422 14.248L133.589 14.6601L133.275 15.1403L133.359 15.6214L133.505 15.8961L133.526 16.3768L133.213 16.6745L133.067 17.1776L132.962 17.933L133.046 18.5506L133.589 18.8254L133.923 19.1686L134.09 19.5118V21.6848L134.466 22.1195L135.51 22.9429L136.221 22.874L136.805 22.2568L137.328 22.3483L138.351 23.0113L139.27 23.1717L139.5 23.5375L139.437 23.9032L139.124 24.2694L138.685 24.4523L138.016 24.8181L137.516 24.8636L137.098 25.2298L136.639 25.5266L135.621 25.5695Z" fill="#B1B1B1" stroke="white" stroke-width="0.5"/>
<path d="M69.5374 143.729L69.722 143.488L69.9974 143.326L70.4738 143.272L70.8997 143.055L71.2256 142.811L71.5515 142.703L71.6767 142.54L72.0779 142.405L72.2027 141.998L72.1779 141.456L71.8773 141.076L71.6019 140.832L71.6263 140.534L71.9273 140.344L72.0278 139.883L72.3032 139.341L72.6291 138.853L73.0554 138.582L73.2308 138.23L73.4065 137.714L73.7572 137.416L74.0826 137.335H74.6095L74.9606 137.199L75.6371 137.036L76.1883 136.982L76.9397 137.443L77.3665 137.633L77.8929 137.47L78.4193 137.009L78.9958 136.846V134.997L79.1459 134.508L79.2964 134.183L79.6971 133.911L79.6723 133.64L79.3717 132.908L79.1954 132.636V132.365L79.4465 132.202L80.0482 132.148L80.5494 132.257L80.9505 132.121L81.5393 131.741L82.091 131.28H82.6675L83.2191 131.225L83.5946 130.683L84.02 129.895L84.1958 128.837L84.3711 127.533L84.6226 126.475L84.7727 125.253L85.0733 124.358L85.2491 123.651L85.2234 121.875L84.848 121.359L84.6726 120.924L84.6465 120.272L84.3463 119.811L83.7199 119.104L83.1434 118.86L82.9176 118.561L82.9676 117.99L83.3187 117.528L83.7951 117.447L84.1958 117.148L84.3964 116.903L84.4216 116.279L84.171 115.572L84.9981 114.756L85.1482 113.804L85.2739 112.636L85.725 112.119L86.1262 111.032L86.3768 110.596L87.028 110.325L87.3291 109.97L87.3791 109.291L86.928 108.421L87.079 108.04L87.5297 107.55L87.8803 107.306L87.9556 106.87L87.7054 106.463L87.5797 106.103L87.6297 102.947L87.454 102.375L87.0537 102.103L87.0033 101.259L87.9304 99.3535L88.2815 98.8358L88.3815 98.1833L88.4315 96.8483L88.7074 96.222L89.3095 95.8677L89.7354 95.3782L90.6373 94.6153L90.9384 94.0711L91.0889 93.5255V92.5506L90.7378 92.1146L90.1861 92.0872L89.986 91.6786L89.6097 91.0243L89.159 90.6705L88.5068 90.4792L88.2815 89.8802V88.8991L88.6073 88.054L88.9332 87.4272L89.5849 87.2094L90.5125 86.6095L90.8631 86.064L91.2138 85.7914L91.5901 85.5736L92.6677 85.4371L92.9183 85.1372L92.8927 84.4556L92.5929 84.1556L92.5216 83.7417L92.9989 83.4961L93.2247 83.1144L93.1499 82.6241L93.5253 82.1324L94.0013 81.9964L94.5029 81.8055L95.0041 81.5056L95.3052 81.0418L95.2547 80.0324V79.3777L95.5305 79.0499L96.1065 78.8869L96.4333 78.5044L96.6582 78.0136L97.1094 77.5224L97.5105 77.3859L98.3375 77.2224L98.7134 76.7038L98.914 76.2674L99.0897 75.7488L99.3404 74.8206V74.0021L99.5157 73.6743L99.8911 73.483L100.192 73.2648L100.33 73.0161L100.568 73.2754L101.095 73.7123L101.797 74.067L102.774 74.5039L103.702 74.5861L105.355 74.7769L106.333 75.0504L107.36 75.5959L108.288 76.3597L109.215 76.5514L109.918 76.7692L110.544 76.8783L111.095 76.6057L111.17 76.2236L110.745 75.8415L110.619 75.5685L110.869 75.2408L111.295 75.0773L112.198 74.8317H112.724L113.025 74.6404L112.95 74.3131L112.624 73.9853L112.499 73.4941L112.699 72.8933L113.15 72.9481L113.502 73.2485L113.903 73.7123L114.428 73.8488L115.131 74.1218L115.757 74.6404L116.509 75.159L118.539 75.8963L119.817 75.978L120.745 76.2236L121.221 76.4693L121.798 76.824L122.786 76.7966L122.746 77.294L122.552 77.6125L122.103 78.143L121.616 78.4827L121.323 78.8229L121.088 79.2262L120.796 80.1812L120.758 80.8182L120.152 81.4128L120.035 81.6244L119.353 82.1771L119.119 82.1342L118.651 82.3679L118.417 82.6864L118.182 83.1533V83.4294L118.084 83.5778L117.714 83.8115L117.343 83.9599L117.245 84.1084L116.914 84.2356L116.524 84.6389L116.329 84.6601L115.802 84.9146L115.588 85.1694L115.393 85.5935L115.197 85.8056L114.827 86.6542L114.671 87.2916L114.71 87.9061L114.789 88.3518L115.1 88.8819L115.179 89.2635L115.197 89.8153L115.159 90.0905L115.002 90.5579L114.476 91.4701L113.989 91.9357L113.228 92.381L112.798 92.7202L112.525 92.9963L112.272 93.4204L112.058 93.9076L111.842 94.2893L111.707 94.9678L111.726 96.0492L111.804 96.3876L112.096 97.2994L112.253 97.5322L112.74 98.5067L112.916 98.7823L113.345 99.1644L113.715 99.4189L113.95 100.032V100.266L113.696 100.604L113.618 100.88L113.482 100.943L113.266 101.325L113.228 101.727L113.053 101.685L113.228 101.389L113.345 100.859L113.228 100.647H113.072L113.208 101.219L113.091 101.558L112.74 102.024L112.428 102.193L112.408 102.469L112.546 102.574L112.466 102.849L112.232 102.553H112.019L111.745 102.723L111.55 103.083L111.569 103.274L111.14 103.697L111.043 104.121V104.438L111.277 104.989L111.394 105.561L111.433 105.963L111.297 106.132L111.257 106.619L111.102 106.915L111.082 107.17L110.927 107.657V108.017L111.004 108.398L110.927 108.842V109.202L110.75 110.027V110.302L110.341 112.06L110.185 112.567L109.951 113.011L109.697 113.625L109.541 113.879V114.239L109.424 114.619L109.288 114.831L108.838 115.317V115.571L108.664 116.015L108.586 117.179L108.507 117.327L108.546 117.708V118.427L108.487 118.785L108.721 118.934L108.684 119.336L108.312 120.161V120.414L108.058 120.753V120.921L107.883 121.069L107.805 121.471L107.687 121.513L107.591 121.788H107.376L107.103 122.274L107.044 122.506V123.268L107.103 123.606L107.239 123.69L107.414 123.585L107.259 124.134L107.142 124.177V124.473L107.005 124.852L106.947 125.212L106.829 125.318L106.908 125.656L106.693 126.015L106.791 126.226L106.616 126.417L106.537 126.755L106.654 126.945L106.537 127.283L106.284 127.346L106.108 127.601L105.952 128.086V128.445L105.757 128.826L105.679 129.374L105.698 131.55L105.582 131.845L105.542 132.394L105.425 132.479L105.444 132.943L105.152 133.408V133.746L105.015 133.767L104.781 134.125L104.742 134.316L104.41 134.801L104.333 135.351L104.196 135.625L104.236 136.089L104.158 136.469L103.982 136.596L103.923 137.144L103.845 137.292L103.962 138.073L103.923 138.474L103.982 138.749L104.216 139.402L104.489 139.382L104.626 139.762L104.547 140.141L104.333 140.353L104.196 140.88L103.904 141.175L103.806 141.386L103.514 141.301L103.417 141.407L103.084 141.428L103.162 141.597L103.475 141.682L103.67 141.808L103.631 142.125L103.436 142.673L103.417 143.264L103.357 143.369L103.299 144.044H103.183L102.909 144.587L102.774 144.433L102.314 144.162L101.896 143.733L100.539 143.507L99.6622 143.666L99.3899 143.959L98.7634 144.162L98.3459 144.636L98.0533 145.336L97.406 146.488L97.0509 147.504L96.8836 148.159L96.988 148.926L97.8864 149.445L97.97 149.829L97.406 150.867L96.8628 151.702L96.2571 152.492L95.9232 153.309L95.6306 153.647L95.1715 154.053L95.0457 154.73L95.0245 156.061L94.6074 156.49L94.0637 156.85L93.8972 157.46L93.7927 158.204L93.5005 158.7L93.292 159.196L92.9573 159.76L92.4349 161.541L92.1634 162.195L91.7251 162.848L91.0774 163.457L90.8268 163.94L90.7639 168.108L90.3885 168.379L89.866 168.649L88.6963 168.694L88.3412 168.852L87.9441 169.213L87.4221 169.167L87.067 168.897L86.963 168.085L86.7124 167.433L86.3573 167.117L84.8741 166.734L84.2051 166.126L83.5999 165.855L83.4436 165.562L83.2762 164.796L82.8999 164.391L82.4408 164.097L82.2947 163.309L82.3159 162.497L81.9812 162.222L81.6682 161.546L81.0833 161.23L80.8535 160.937H80.2474L79.8507 161.207L79.4124 161.591L79.0564 161.725L78.4932 161.5L78.0337 161.23L77.7627 160.622L77.3651 160.148L76.6767 159.719L75.862 159.471L75.0677 159.088L74.2743 158.953L73.7519 158.479L72.9585 156.99L72.7287 156.224L72.7491 155.299L72.4989 154.847L72.1855 154.464L72.0185 153.832L71.7294 153.548L71.8764 153.406L71.9433 152.648L71.8096 152.088L71.2079 151.655L70.3729 151.005L69.6375 150.499L68.9021 150.174L68.4341 149.777L67.816 149.524L67.5154 149.326L67.8497 148.35L68.234 148.115L68.6183 147.519L68.9021 146.996L69.838 146.635L70.306 146.363L70.4061 144.9L70.2055 144.304L69.738 144.232L69.5374 143.729Z" fill="#B1B1B1" stroke="white" stroke-width="0.5"/>
<path d="M125.475 13.9673L125.235 14.6118L124.91 15.0239L124.584 15.573L124.208 15.793L123.932 15.573L123.556 15.3535L123.23 15.4356L122.804 15.7104L122.428 16.1226L122.027 16.7264L121.927 17.3307L122.078 17.8251L122.453 18.0998L122.955 18.3468L123.23 18.9506L122.98 19.4728L121.852 20.0492L121.225 20.3236L120.348 20.351L119.495 20.1866L119.195 19.8297L118.468 19.0611L117.716 18.8137L116.815 18.7037L116.313 18.1546L116.012 17.935L115.335 17.8529L115.034 17.4959L114.734 17.0286L114.333 16.6721L114.107 15.9578L113.907 15.5183L113.931 14.9144L112.979 14.3375L112.678 13.5679L112.979 13.2932L113.931 13.0458L114.257 12.6889L114.834 12.6615L115.536 12.4415L116.062 12.1945L116.438 11.9746L117.641 11.5072L117.992 11.2603L118.117 10.8755L118.279 11.145L118.182 11.2302V11.5514L118.806 11.4445L118.923 11.5302L119.41 11.4869L119.607 11.6371L119.781 11.6154L120.075 11.8937L120.347 11.8297L120.503 12.1071L121.167 12.1499L121.069 12.4923L121.264 12.5563L121.185 12.9199L121.225 13.1761L120.776 13.4973L120.562 13.8175L120.659 13.9889L120.894 13.6254L121.245 13.5401L121.42 13.3263L121.693 13.1761V13.048L121.927 12.7706L122.005 12.578L121.85 12.3854L121.83 12.1499L121.634 11.9578L121.966 11.6583H122.298L122.571 11.8937L123 11.9149L123.039 12.0218L122.805 12.2573L122.926 12.4693L123.078 12.5351L123.448 12.5139L123.663 12.7061L123.682 12.9627L124.092 13.1125L124.209 12.8346L124.658 12.9199L125.009 12.8558L125.047 13.0051L124.893 13.1761L124.814 13.4332L124.893 13.7539L125.067 13.7968L125.263 13.9889L125.475 13.9673Z" fill="#B1B1B1" stroke="white" stroke-width="0.5"/>
<path d="M100.469 15.3771L100.933 15.2671L101.367 15.1937L101.634 13.8385L102.269 13.2156L102.937 12.2265L103.539 11.4937L103.907 11.0908L104.541 10.9441L104.909 10.7246L105.411 10.2846L106.279 9.91795L106.379 9.51507L106.747 9.2222L107.115 8.85555L107.282 8.4889L107.449 8.37891L107.817 8.5989L108.051 9.18553L108.351 9.36886L109.053 9.51507L109.387 9.8084L109.22 10.6879L109.387 11.2741L109.788 11.567L109.888 12.3365L109.788 12.8489L110.089 13.3256L110.691 13.9118L110.958 14.3142L110.523 14.9371L110.423 15.5595L111.058 16.0357L111.659 16.2552L112.294 16.7314L112.529 17.2439L112.562 17.903L112.429 18.3792L112.094 18.8554L111.76 19.184V19.5507L112.06 19.8431L112.294 20.246L111.894 20.4655L111.827 20.7951L112.161 21.1613L112.629 21.5637L113.464 22.0395L113.899 21.9299L114.634 22.0395L114.868 22.3324L114.668 22.6248H113.999L112.361 22.7715L111.192 22.6981L110.557 23.2105L110.39 23.6496V24.3083L110.624 25.076V25.9909L111.025 26.32L111.292 26.6491L111.125 27.2344L110.323 27.3078L109.455 26.9782H108.15L107.449 26.4667L107.015 25.6251L106.312 25.4056L105.711 25.0032L105.377 23.4663L104.809 22.7715H104.307L103.873 23.3205L103.271 23.5763L102.77 23.2105L102.67 22.1857L102.737 21.6733L103.205 21.1613L103.773 20.6122L103.84 19.2207L103.806 18.2325L103.239 17.3172L102.704 16.7681L101.768 16.6948L100.765 16.1457L100.531 15.889L100.469 15.3771Z" fill="#005FA1" stroke="white" stroke-width="0.5"/>
<path d="M102.076 49.2838L102.033 49.4044L101.49 49.5868H100.906L100.488 49.7693L99.9446 50.3621L99.6519 51.7302L99.4854 52.3685L99.0679 53.0073L98.8169 53.5997L98.0651 54.6484L97.4386 55.0588L96.7696 55.5602L96.2273 55.7881L95.3914 55.9701L94.5555 55.3322L93.971 54.7398L93.7209 54.0101L94.1384 52.7789L93.6788 52.5055L93.1356 52.232V51.7761L93.4703 50.636L93.5119 49.9522L92.8018 49.7693L92.3834 49.4044L92.3006 48.8116L91.9242 48.2643L91.2561 47.8534L90.8802 47.58L90.3786 47.5345L89.9611 47.7165L89.4604 47.7624L89.4183 47.1237L89.7937 46.3939L90.0027 45.8916L89.7937 45.5723L89.4183 45.2069L89.5436 43.9294L89.7937 43.6555L89.7521 43.0168L89.2926 42.2861L88.6245 42.0577L87.8311 41.9212L86.7446 41.2365L86.494 40.4149L85.9928 39.9581L85.7838 39.6387L85.4079 39.4554L84.8647 39.6387L84.3639 39.7297L83.6117 39.7752L82.5252 38.7707L81.7734 38.3144L81.4808 38.04L80.3947 37.3094L79.9776 36.6702L79.1417 36.5328L78.9748 36.0305L79.3091 35.5283L79.6434 34.7972L79.5176 33.9751L79.1417 33.5638L76.677 33.6093L76.2174 33.2895L76.1342 32.7872L75.6746 32.4215L75.2987 32.531L74.9228 32.7594L74.4216 32.3486L74.0037 32.2112L73.2098 31.8914L72.7923 31.5715L72.3328 31.2972L72.5834 30.5661L72.2491 29.8805L72.1238 29.3319L71.5394 28.8751L70.9961 28.6463L70.3696 28.7832L69.9937 29.0116L69.2836 28.9661L68.824 28.7832L68.2812 29.0116L67.9881 29.2859L67.1531 29.1932L67.5046 28.9003L67.5445 28.4303L67.7773 28.1317L67.9531 28.11L68.2458 27.9183L68.5584 27.534L68.8284 26.9959L69.3774 26.4879L69.5532 26.1032L69.6116 25.8045L69.6307 25.2493L69.5532 24.993L69.8459 24.6728L69.9233 24.3097L70.0796 23.9037L70.8597 22.9641L70.7043 22.9213L71.3277 22.1314L71.9135 21.5333L71.9715 21.3835L72.323 21.2554L72.4598 21.1057L72.9663 20.8923H73.3183L73.669 20.7426L73.9032 20.4863L74.1958 20.4011L74.508 20.0371L74.9954 19.7385L75.0534 19.5887L75.7751 19.1187L76.1652 19.0759L76.6141 18.798L76.9462 18.7132L77.3947 18.6915L77.4721 18.5846L77.96 18.5206L78.0769 18.4141L78.4679 18.3496L78.5254 18.2639L79.1891 18.2215L79.2471 18.1358L79.7939 17.9861L80.4567 17.6654H80.6325L80.7303 17.4732L81.023 17.1958L81.4715 16.9815L81.7052 17.0032L82.6806 16.2765L83.0702 16.1055L83.1495 15.9774L83.578 15.7848L84.085 15.6567L84.6703 15.6139L84.8651 15.3568H85.0019L85.2357 15.5282L85.4314 15.4858L85.5487 15.2291L85.4115 14.9923L85.802 15.0153L85.9959 14.9252L86.231 14.9513L86.5622 14.8015L87.0695 14.8868L87.1864 15.1222L87.4206 15.1863L87.5968 15.1222L87.8696 15.2079L88.087 15.4933L88.5881 16.1157L89.1894 16.5919L90.159 16.8115L90.8271 16.9215L91.5625 17.3606L92.2306 17.6534L92.5985 18.3492L92.7991 18.9716L93.0656 19.3374L94.5705 19.5578L95.6061 19.594L96.0741 19.8865L96.4084 20.5822L96.3074 21.168L96.4084 21.9728L96.9427 22.3024L97.1097 22.6315L96.976 22.9977L96.7085 23.1077L96.3074 23.3634L96.3747 23.7292L96.5753 23.8759L96.5421 24.3516L96.2078 24.5707L95.9731 24.7907L95.4728 24.9369L95.1381 25.5585L94.6374 26.0709H91.5289L91.3283 26.4733L91.4625 26.912L91.5289 27.5706V28.3384L91.195 28.7408L91.0941 29.3257L91.195 29.801L91.5962 29.8744L91.8959 30.0206L91.7963 30.3863L91.3956 30.7888L91.195 31.2274L91.2947 31.7023L91.7963 32.4338L92.2647 32.7263L92.6658 33.3474L92.9324 34.188L92.966 34.8091L93.4004 35.3577L93.2666 35.5769L92.6658 35.6868L92.7323 36.0301L93.7678 36.3954L94.4368 36.7607H95.1718L95.7394 36.5416H96.4416L97.3102 36.9069L97.8119 37.3818L98.4468 38.1858L99.0148 38.7336L99.3154 39.5738L99.6825 40.1949L99.984 40.414L99.8503 40.998L99.3827 41.5095L98.6801 42.0939L98.4468 42.6779L98.5473 43.5544L99.0148 44.3212L99.4496 45.2339L100.151 46.5843L100.819 47.3512L101.321 47.5703L101.788 48.0443L101.755 48.9203L101.989 49.3214L102.076 49.2838Z" fill="#B1B1B1" stroke="white" stroke-width="0.5"/>
<path d="M64.0909 36.2036L64.5208 36.9775L65.9 37.0871L67.1529 37.4158L67.5793 37.8818L68.2058 38.0735L69.1577 38.7313L70.06 40.5667L70.2105 41.6349L70.4111 42.2922L70.2858 42.8947H69.9351L69.0076 42.1827L68.6565 41.7718L68.1553 41.4706L67.7041 41.6627L67.4035 42.1279L66.9023 42.347L66.3259 42.4017L66 42.703L65.6489 43.2782L65.0729 43.6064L64.3207 44.4833L64.1954 45.2223L63.9696 45.8249L63.5942 46.3174L63.2426 46.4813L62.892 46.1805L62.4408 45.9066L62.3155 45.3314L62.0144 45.0854L61.8396 44.7019H61.4632L60.9873 44.9758L60.4856 45.0032L60.2355 44.7293L60.1757 44.4691L60.4826 44.2138L60.6773 44.235L61.2622 43.9792L61.7116 43.5958L61.867 43.1483L61.848 42.3169L62.2765 42.2953L62.4138 42.0612L62.4333 41.528L62.5502 41.016L62.4532 40.9095L62.4913 40.5261L62.5696 40.462L62.6082 39.8864L62.5891 39.3749L62.5108 39.0763L62.5453 38.7565L62.1012 38.8634L61.8285 38.4154L61.906 38.0956L62.2181 37.5196L62.3948 37.0716L62.7454 36.6666L62.8619 35.9845L63.0766 36.1546L63.213 35.8131L63.1549 35.579L63.4272 35.6002L63.6428 35.8772L63.7203 36.1758L63.9156 36.1546L63.8567 35.8347L63.9745 35.7919L64.0909 36.2036Z" fill="#B1B1B1" stroke="white" stroke-width="0.5"/>
<path d="M96.7616 55.5631L97.0104 55.855L97.2823 56.3109L97.261 57.0173L96.9892 57.4502L96.5088 57.7011L96.1121 58.0201L96.2166 58.7034L96.384 59.2958L96.2795 60.4801L95.9456 61.186L95.3187 61.9158L94.4416 62.6897L93.8563 63.1677L93.2715 63.7371L92.6662 63.9651L92.374 64.466L92.0809 65.0809L91.6422 65.5589L91.1627 65.9688L90.9324 66.3783L90.7146 67.0767L90.3684 67.4937L89.6795 67.7897H88.5097L87.4865 67.9037L86.8782 67.8233L86.7967 67.8127L86.6506 67.3802L86.4837 65.6044L85.9197 65.035L85.4601 64.2155L84.9594 63.897L84.4161 63.3047L83.9353 62.8947L83.852 62.2798L83.6218 61.9838L83.1211 61.7789L82.5783 61.8244L81.5755 62.3253L79.8629 62.3028H77.6695L76.27 62.5532L75.0379 62.9862L73.8265 62.8033L73.2625 62.3938V61.414L73.4922 60.845L73.8265 60.3891L74.0147 59.7742L73.5135 58.7719L73.0955 58.4985L73.1164 58.111L73.4922 56.9943L73.8473 56.5163L74.0767 55.9465L74.1603 55.4676L73.8053 54.5788L73.5339 54.1958L73.0955 53.8765L72.8237 53.3521L72.1972 53.2607L71.7797 53.4435L71.4246 53.3981L70.9026 52.8733L70.2757 52.5543L69.7953 52.0984L69.2941 51.8475L69.0223 51.4371L68.2913 50.7988L67.5395 50.411L66.9339 49.4992L66.6412 48.8604L66.3074 48.4041L65.9731 48.2676L66.1405 47.7654L66.558 47.5149L66.7669 47.1041L66.4327 46.6932L65.7641 46.7162L64.9079 47.1955L64.3438 46.9671L63.8426 46.8302L63.4601 46.38L63.5942 46.3173L63.9697 45.8248L64.1955 45.2222L64.3208 44.4832L65.073 43.6063L65.649 43.2781L66.0001 42.7029L66.326 42.4017L66.9024 42.3469L67.4036 42.1278L67.7042 41.6626L68.1554 41.4705L68.6566 41.7717L69.0077 42.1826L69.9352 42.8947H70.2859L70.4112 42.2921L70.2106 41.6348L70.0601 40.5666L69.1578 38.7312L68.2059 38.0734L67.5794 37.8817L67.153 37.4157L65.9001 37.087L64.5209 36.9775L64.091 36.2035L64.2473 35.8771L64.0131 35.5572L64.4031 35.472V35.0669L64.1689 35.131L64.13 34.9388L64.2663 34.6826L64.5196 34.4056L64.6373 34.107L64.7742 33.9577L64.8711 33.5734L65.0274 33.36L65.1253 32.9545L65.301 32.5282L65.808 31.9729L65.9439 31.6743L66.1976 31.4826L66.0422 31.077L66.1396 30.9061L66.1201 30.6927L66.2175 30.4365L66.4902 30.1163L66.6461 29.7964L66.9188 29.5831L67.153 29.193L67.988 29.2858L68.2811 29.0114L68.824 28.7831L69.2835 28.9659L69.9937 29.0114L70.3696 28.7831L70.996 28.6461L71.5393 28.8749L72.1237 29.3317L72.249 29.8803L72.5833 30.5659L72.3327 31.297L72.7923 31.5714L73.2098 31.8912L74.0036 32.211L74.4216 32.3484L74.9228 32.7592L75.2987 32.5308L75.6745 32.4213L76.1341 32.787L76.2173 33.2893L76.6769 33.6091L79.1417 33.5636L79.5176 33.9749L79.6433 34.797L79.309 35.5281L78.9748 36.0304L79.1417 36.5326L79.9776 36.67L80.3947 37.3092L81.4807 38.0399L81.7734 38.3142L82.5251 38.7705L83.6116 39.775L84.3639 39.7295L84.8646 39.6385L85.4079 39.4552L85.7837 39.6385L85.9927 39.9579L86.4939 40.4147L86.7445 41.2363L87.831 41.921L88.6244 42.0575L89.2925 42.2859L89.7521 43.0166L89.7937 43.6553L89.5435 43.9292L89.4182 45.2067L89.7937 45.5721L90.0027 45.8915L89.7937 46.3937L89.4182 47.1235L89.4603 47.7623L89.961 47.7163L90.3786 47.5343L90.8802 47.5798L91.2561 47.8532L91.9242 48.2641L92.3005 48.8114L92.3833 49.4042L92.8017 49.7691L93.5119 49.952L93.4702 50.6358L93.1355 51.776V52.2318L93.6788 52.5053L94.1383 52.7787L93.7208 54.0099L93.971 54.7396L94.5554 55.332L95.3913 55.9699L96.2272 55.7879L96.7616 55.5631Z" fill="#B1B1B1" stroke="white" stroke-width="0.5"/>
<path d="M86.8782 67.8232L86.6343 68.1634L86.3421 68.2089L85.8196 68.5959L85.6731 68.8008L85.3809 69.9158L85.1723 70.1433L84.6915 70.5073L84.5033 70.8488L84.3572 71.7813L84.065 71.8953H83.5014L83.2504 71.5997L83.1038 71.2353L82.979 70.7348L82.5818 70.6213L82.2688 70.7803L81.8721 71.5542L80.9946 72.2138L80.6607 72.7143L80.4518 73.1238L79.8877 73.4423L79.1147 73.5333L78.2168 73.6017L77.778 73.9202L77.4858 74.3068L77.0263 74.6933L76.901 75.3078L76.6605 75.5626L76.1177 75.8352L75.8463 76.0857L75.3868 76.3357L73.7787 76.4037L73.1934 76.6767L72.7967 76.9948L72.3788 77.5638L72.0454 78.1773L71.4388 78.2913H70.6038L70.1858 77.8588L69.7683 76.9038L69.2875 76.3127L68.6194 75.6987L67.7631 75.4712L65.5702 75.0166L64.9637 74.8117L64.2539 74.6977L63.4605 74.7207L63.1263 74.8346L62.7504 75.0847L62.6454 75.6762L62.688 76.1762L62.8336 76.6308L62.8761 77.1768V77.7453L62.7088 78.1318L62.4165 78.4733L61.81 78.6323L61.33 78.6098L59.0534 78.7688L57.4033 78.7914L56.6932 78.5868L56.0459 78.2228L55.2941 77.3818L54.6256 76.8362L53.7277 76.5628L52.5367 76.4263L51.8265 75.8803L51.2 75.5167L50.1135 74.7891L49.0279 74.1977L48.0459 73.7427L47.639 73.5792L46.7823 72.6917L46.1142 71.7588L45.4041 70.8938L44.8821 70.1888L44.4641 69.9383L43.9209 69.8703L43.5034 69.6653L43.1275 69.0279L42.918 68.5049L42.543 67.8444L42.2916 67.5259L41.8802 67.1372L42.2424 66.8382L42.9459 66.4781L43.1217 66.2444L43.4923 65.9891L43.6096 65.7762L43.6676 65.4789L43.8434 65.33L43.9213 65.5425H44.1356L44.1551 65.3512L44.3123 65.0539L43.9806 65.0963L44.0975 64.841L44.2525 64.8618L44.7798 64.2667L44.8971 64.0755L44.8382 63.8842L45.1504 63.5648L45.014 63.3947L45.0724 63.2035L45.4041 62.9905V62.5651L45.5794 62.4591L45.6772 62.1397L45.8326 61.9485L46.0478 61.4806L46.321 61.0336L46.4184 60.9912L46.6911 60.2464L46.9847 59.2684L47.3548 58.2683L47.7643 57.5235L48.0176 56.8211L48.096 56.1611L48.2912 55.7993L48.5064 55.1827L49.0324 54.3946L49.2466 54.2024L49.5003 54.2241L50.0467 53.9683L50.4952 54.3093L50.69 54.2453L51.2368 53.8623L51.471 53.8835L51.8022 54.0116L52.2702 54.3729L52.6602 54.3517L52.7775 54.2241L52.2702 53.8623L51.9974 53.5853L51.8611 53.3512L51.6844 53.2235L51.1788 53.2447L51.6463 52.4783V51.9672L51.7632 51.7759L52.1728 51.3072L52.3676 51.2003L52.2896 50.9454H52.4849L52.7386 50.7109L53.1282 50.1141L53.6546 50.0933L54.123 50.0288L55.0015 49.7739L55.2737 49.8163L55.4305 49.6887L56.0153 49.7315L56.1521 49.6675H56.6006L56.5617 49.1135L56.776 48.8794L57.1076 48.6669L58.2981 47.5162L58.3566 47.1539L58.5903 47.0682L58.8246 46.4295L58.844 45.9608L59.0973 45.3432L59.2332 45.3004L59.4878 45.0022L60.1758 44.469L60.2356 44.7292L60.4857 45.0031L60.9874 44.9757L61.4633 44.7018H61.8396L62.0145 45.0852L62.3156 45.3313L62.4409 45.9064L62.8921 46.1803L63.2427 46.4811L63.4601 46.38L63.8426 46.8301L64.3438 46.9671L64.9079 47.1955L65.7641 46.7162L66.4327 46.6932L66.767 47.104L66.558 47.5148L66.1405 47.7653L65.9731 48.2676L66.3074 48.4041L66.6412 48.8604L66.9339 49.4992L67.5396 50.4109L68.2913 50.7988L69.0223 51.4371L69.2941 51.8475L69.7953 52.0984L70.2757 52.5543L70.9026 52.8732L71.4246 53.398L71.7797 53.4435L72.1972 53.2606L72.8237 53.3521L73.0956 53.8764L73.5339 54.1958L73.8053 54.5788L74.1604 55.4676L74.0767 55.9465L73.8473 56.5163L73.4923 56.9943L73.1164 58.111L73.0956 58.4984L73.5135 58.7719L74.0147 59.7742L73.8265 60.3891L73.4923 60.845L73.2625 61.4139V62.3937L73.8265 62.8032L75.0379 62.9861L76.27 62.5532L77.6696 62.3027H79.8629L81.5755 62.3253L82.5783 61.8243L83.1211 61.7788L83.6218 61.9838L83.8521 62.2798L83.9353 62.8947L84.4161 63.3046L84.9594 63.897L85.4601 64.2155L85.9197 65.0349L86.4837 65.6044L86.6506 67.3802L86.7968 67.8126L86.8782 67.8232Z" fill="#B1B1B1" stroke="white" stroke-width="0.5"/>
<path d="M122.785 76.7966L121.797 76.824L121.221 76.4693L120.745 76.2237L119.817 75.9781L118.538 75.8964L116.508 75.1591L115.757 74.6405L115.13 74.1218L114.428 73.8489L113.902 73.7124L113.501 73.2485L113.15 72.9481L112.698 72.8934L112.499 73.4941L112.624 73.9854L112.949 74.3131L113.025 74.6405L112.724 74.8317H112.198L111.295 75.0774L110.869 75.2408L110.618 75.5686L110.744 75.8416L111.17 76.2237L111.094 76.6058L110.544 76.8784L109.917 76.7692L109.215 76.5515L108.288 76.3597L107.36 75.596L106.333 75.0504L105.355 74.777L103.701 74.5861L102.773 74.504L101.797 74.0671L101.094 73.7124L100.568 73.2755L100.329 73.0162L99.9412 72.4295L99.3647 71.8835L98.763 71.5831L97.6606 71.6105L96.8083 71.8288L96.2318 72.0474L95.7302 72.4839L95.3047 72.7842L94.6526 72.8386L94.1014 72.1022L93.7759 71.3923L93.2743 70.955L92.4473 70.8463L91.3191 70.2725L91.1186 69.9721V69.59L91.3448 69.1257L91.4444 68.4702L91.2191 67.6781L90.918 67.4594L90.7144 67.0769L90.9322 66.3785L91.1624 65.969L91.6419 65.559L92.0807 65.0811L92.3738 64.4662L92.666 63.9652L93.2712 63.7373L93.8561 63.1679L94.4414 62.6899L95.3185 61.916L95.9454 61.1862L96.2792 60.4803L96.3837 59.296L96.2163 58.7036L96.1119 58.0202L96.5086 57.7012L96.9889 57.4503L97.2608 57.0174L97.282 56.3111L97.0102 55.8552L96.7614 55.5632L96.7693 55.5601L97.4383 55.0587L98.0648 54.6483L98.8166 53.5996L99.0676 53.0073L99.4851 52.3685L99.6516 51.7302L99.9443 50.3621L100.488 49.7692L100.905 49.5868H101.49L102.033 49.4044L102.076 49.2838L102.323 49.1755L103.092 49.2851L103.626 49.2122L104.06 48.8107L104.863 48.7378L105.531 48.4096L106.3 47.9351L106.701 47.5336L107.169 46.8763L108.038 46.7305L108.739 46.6576L109.407 45.9636L109.809 45.8545L110.143 45.5258L110.443 45.0147L110.544 44.6132L110.51 43.7368L110.177 43.4085L109.976 43.1165L109.909 42.6779L110.276 42.3492L110.443 42.021V41.327L110.51 40.8522L110.978 40.5602L111.245 40.3044L111.847 40.2311L112.315 40.3481L112.649 39.435L112.917 39.0697H113.585L114.153 38.9968L114.822 38.8139L115.356 38.7044L115.757 38.5219L116.292 38.4486L116.827 38.1933L117.361 37.7909L117.595 37.2797L118.096 36.914L118.598 36.8044L119.032 36.6582L119.299 36.22L119.734 35.7085L120.302 35.4527L120.837 35.5256L121.372 35.7085L122.274 35.6356L122.875 35.3794L123.209 34.9045L123.276 34.2829L123.51 33.2961L124.68 32.0901L125.582 31.9072L126.518 31.871L126.986 31.6877L127.62 31.3219L128.055 30.8837L128.289 30.2251L128.156 29.6406L127.754 29.1653L127.487 28.6162L127.587 28.1042L127.787 27.5556L128.322 27.2631L128.824 27.1898L129.592 27.4827L130.395 27.5922L131.096 27.3365L131.731 26.7512L132.099 26.2759L132.868 25.983H133.87L134.572 25.6901L134.973 25.4343H135.507L135.621 25.5695L135.367 25.7621L135.113 25.8474L134.547 26.2105L134.002 26.3593L133.495 26.616L133.28 26.893V27.1496L133.065 27.2777L132.928 27.4911V27.7045L132.714 27.9183L132.363 28.004L132.266 28.1957L131.973 28.3662L131.992 28.7934L131.602 28.8362L131.368 28.7934L131.075 28.9643L130.666 29.4122L130.783 29.6685V29.9459L130.588 30.1164L130.646 30.5436L130.393 30.7998L130.236 30.8634L130.101 31.1196L129.613 31.6532L129.261 31.7168L129.124 32.0583L128.677 32.5067L128.266 32.5924L128.168 32.6988L128.052 33.1044L127.721 33.4242L127.545 33.7016L127.487 33.9362L127.233 34.4058L126.959 35.2588L126.882 35.4081L126.609 36.2187L126.296 37.4984L126.16 38.3086L125.925 40.057L125.887 40.9948L125.906 42.2953L126.004 43.0843L126.219 44.0217L126.355 44.5116L126.609 45.1724L126.862 45.6199L126.94 45.9817L127.253 46.6854L127.174 47.5375L127.193 48.2192L127.389 49.9234L127.662 51.1797L128.072 52.2656L128.345 52.8191L128.442 53.1173L128.598 53.309L128.696 53.6072L129.203 54.139L129.476 54.2455L129.769 54.2243L130.003 54.5012L130.295 54.48L130.548 54.6501L130.646 54.9907L130.159 55.0331L130.236 54.8842L130.081 54.7349L129.71 54.8626L129.242 54.522L128.813 54.6289L128.716 54.8842L128.989 55.1184L129.027 55.3737L129.3 55.1184L129.456 55.1608L129.437 55.4377L129.3 55.5438L129.222 55.7779L129.359 55.9484L129.573 55.7995L129.847 56.1613L130.198 56.4807L130.12 56.6084L129.769 56.672L129.554 56.7784L129.632 57.438L129.613 58.3109L129.71 58.8427L129.866 59.1193L129.73 59.3534L129.788 59.7788L129.906 59.9277L129.535 60.4171L129.105 60.4383L128.851 60.5236L128.598 60.7361L128.13 60.9066L127.662 60.9706L127.525 61.1402L127.35 61.7574L127.33 62.2252L127.389 62.5865L127.487 62.7142L127.759 62.693L128.033 62.7782L128.286 62.9907L128.188 63.1188L128.208 63.6715L128.326 63.8203L128.891 63.7987L129.048 64.0116L128.989 64.1605L128.677 64.1821L128.598 64.0757L128.13 64.1393L127.935 64.3093L127.701 64.3305L127.428 64.6071L127.33 64.82L127.116 64.8412L126.959 65.0325L126.336 65.309L126.101 65.7128L126.18 65.8616L126.16 66.1382L125.79 66.5207L125.75 66.67L125.399 67.0097L125.009 67.2863L124.62 67.7753L124.443 68.1786L124.306 68.6681L124.131 69.0077L124.092 69.2847L123.858 70.2835V71.0058L123.78 71.3247L123.761 72.3235L123.546 72.5784L123.429 72.8964V73.0882L123.156 73.4919L123 74.0653L122.707 74.7235L122.59 75.0849L122.707 76.0196L122.825 76.4446L122.785 76.7966Z" fill="#B1B1B1" stroke="white" stroke-width="0.5"/>
<path d="M100.329 73.0162L100.192 73.2649L99.8907 73.4831L99.5152 73.6744L99.3399 74.0022V74.8207L99.0893 75.7488L98.9135 76.2675L98.713 76.7039L98.3371 77.2225L97.51 77.3859L97.1089 77.5225L96.6577 78.0137L96.4328 78.5045L96.1061 78.887L95.5301 79.05L95.2542 79.3778V80.0324L95.3047 81.0418L95.0037 81.5057L94.5025 81.8056L94.0008 81.9965L93.5249 82.1325L93.1494 82.6242L93.2243 83.1145L92.9985 83.4962L92.5212 83.7418H92.0714L91.3948 83.3871H90.9933L90.4669 83.0328L90.0157 82.8963L89.3892 83.0597L88.9385 83.251L88.2111 83.1419L87.6851 83.0054L87.2339 82.4603L86.858 82.1056L86.4317 82.1325L86.0558 82.5968L85.9805 83.0871L85.7804 83.551L85.4545 83.96L84.6771 84.0144L83.9758 83.7692L83.324 83.687L82.3965 83.9874L82.1459 84.0961L81.9205 84.3417L81.6443 84.5325L80.993 84.3417L80.2664 83.7961L79.8901 83.8509L79.6523 84.1508L79.2255 84.3143L78.8501 84.3691L78.5495 84.7777L78.4237 85.0776L78.1231 85.5958L77.6215 85.7597L76.1932 85.7866H75.3161L75.0655 86.0866L74.8402 86.6317L74.4891 87.1229L73.7616 87.9132L73.2361 88.3492L72.7845 88.8126L72.108 88.976L70.6044 88.8943L69.3005 88.9491L68.9999 89.0909L68.8246 89.4991L68.5488 90.5893L68.3229 91.0796L67.9223 91.4065L67.371 91.7069L66.5936 91.8156L66.1176 91.7339L65.6417 91.3791L65.1901 91.3518L64.6389 91.5978L63.9119 92.0608L63.4607 92.5511L63.0096 92.7693L62.4583 92.7963L61.8814 92.6872L61.456 92.3872L61.3302 92.0334L60.9043 92.0608L60.779 92.4972V93.2318L60.6285 93.5048L60.3031 93.9404L60.052 94.0226L59.9019 93.5866L59.8267 92.7693L59.5508 92.3872L59.0997 92.1968L58.6237 92.1147L58.2979 91.7613L57.9215 91.4618L57.3956 91.5978L57.1197 91.979L57.0192 92.4146L56.8187 92.9054L56.468 93.1775L56.3175 93.913L56.2922 94.5942L56.0921 95.3023L55.7162 95.5475L55.1898 95.6018L54.388 96.2282L53.9368 97.2084L53.8368 97.6983L53.5609 98.4073L53.3852 98.9516L52.8335 99.3867L52.358 100.04L51.9316 100.367L51.3299 100.585L50.804 100.829L50.2023 100.666L49.4253 100.53H47.7207L47.0942 100.421L46.3424 100.067L45.5906 99.7684L45.0638 99.4145L44.4625 98.7603L43.6102 98.7064L42.808 98.4882L42.3573 98.4073L41.9057 97.1271L42.0314 96.5551L42.232 96.3647L42.1315 95.8196L41.5803 95.1662L41.3044 93.8039L40.778 93.2592L40.2773 92.9597L39.4498 93.0414L38.5474 92.7146L37.8453 92.5511L37.2188 92.1425L36.4418 91.8156L35.6652 91.4065L35.0635 90.971L34.8882 90.2355L35.0635 89.6899L34.6123 88.6814L34.4122 88.0276L33.9606 87.3191L33.5094 86.7739L33.2088 86.2558L32.8617 86.0605L32.9591 85.9545L32.9777 85.636L32.256 85.0211L32.1011 85.0418L31.9838 84.8722H31.8075L31.5738 84.6814L30.598 84.3421L30.6958 84.2569L31.1647 84.4265L31.3396 83.7899L31.4179 83.7051L31.7686 82.6865L32.1591 82.6016L32.2175 82.3044L32.6076 81.5189L32.6271 81.0308L32.9392 80.1813L33.4076 80.2666L33.8951 79.2263L34.1683 79.2046L34.2072 79.4599L34.0124 79.6296L33.915 80.0545V80.4574L33.7782 80.6699L33.6808 80.9884L33.5444 81.1797L33.3102 81.7314H33.134L32.9197 81.5825H32.6859L32.6465 81.8162L32.3149 82.6229L32.2755 82.8565L31.9249 83.6839L32.0617 83.8536L32.2959 83.8116V83.5351L32.4327 83.4719L32.5682 83.005L32.8028 82.4956L33.1938 82.6657L33.4076 83.0686L33.5639 83.2413L33.6808 82.7925L33.5444 82.6865L33.4656 82.2831L33.7198 81.5618L34.1492 80.6275L34.4414 79.6508L34.5782 79.566L34.8523 79.6936L34.9679 79.9909L34.6367 80.3302L34.7142 80.9248L35.0259 80.5422L35.0068 80.2242L35.1631 79.9061L35.1432 79.6296L35.0259 79.5236V79.2263L35.3389 79.035L35.4947 79.1622L35.8069 79.1414L35.9437 78.9078L35.7285 78.8654L35.3389 78.929L35.1631 78.8866L35.0068 78.9926L34.5583 78.929L34.4211 78.823L34.4605 78.6105H34.8116L34.6168 78.292L34.6367 78.1431L35.1826 77.0392L35.4363 77.1244L35.5536 77.2724L35.748 77.1028L36.0211 77.2724L36.5285 77.4849L36.8407 77.23L36.8801 76.5934L36.977 76.3174L36.8017 75.5735L36.919 75.1914L37.1138 75.0217H37.3277L37.484 74.7235L37.5823 74.7028L37.6208 74.3626L37.8935 74.129L37.9334 74.0017L38.5767 73.4279L38.7325 73.0666L38.9477 72.8121L38.8304 72.3447L38.9862 72.3019L39.2399 71.8557L39.2789 71.4308L39.591 71.0058V70.6657L39.7274 70.432L39.6694 70.2407L39.9421 70.0918L39.7862 69.8581L40.0979 69.4544L40.2928 69.3267L40.6248 68.9442L40.917 68.7529L41.2486 68.1367H41.5028L41.88 67.1374L42.2913 67.5262L42.5428 67.8447L42.9178 68.5051L43.1272 69.0281L43.5031 69.6655L43.9206 69.8705L44.4639 69.9385L44.8818 70.189L45.4038 70.894L46.114 71.759L46.7821 72.6919L47.6388 73.5794L48.0457 73.7429L49.0277 74.1979L50.1133 74.7894L51.1998 75.5169L51.8263 75.8805L52.5364 76.4265L53.7274 76.563L54.6253 76.8364L55.2938 77.382L56.0456 78.2231L56.6929 78.5871L57.4031 78.7916L59.0532 78.7691L61.3298 78.61L61.8097 78.6326L62.4163 78.4735L62.7085 78.1321L62.8759 77.7455V77.177L62.8334 76.631L62.6877 76.1764L62.6452 75.6764L62.7501 75.0849L63.126 74.8349L63.4603 74.7209L64.2537 74.6979L64.9634 74.8119L65.57 75.0169L67.7629 75.4714L68.6191 75.6989L69.2873 76.3129L69.7681 76.904L70.1856 77.8591L70.6035 78.2915H71.4385L72.0451 78.1776L72.3785 77.564L72.7964 76.995L73.1931 76.6769L73.7785 76.4039L75.3865 76.3359L75.8461 76.0859L76.1175 75.8354L76.6603 75.5629L76.9007 75.308L77.026 74.6935L77.4856 74.307L77.7778 73.9204L78.2165 73.602L79.1144 73.5335L79.8874 73.4425L80.4515 73.124L80.6605 72.7145L80.9943 72.214L81.8718 71.5545L82.2685 70.7805L82.5816 70.6215L82.9787 70.735L83.1036 71.2355L83.2501 71.6L83.5011 71.8955H84.0647L84.357 71.7815L84.5031 70.849L84.6912 70.5075L85.1721 70.1435L85.3806 69.916L85.6728 68.801L85.8194 68.5961L86.3418 68.2091L86.634 68.1636L86.878 67.8235L87.4863 67.9039L88.5095 67.7899H89.6792L90.3681 67.4939L90.7143 67.0769L90.918 67.4595L91.2191 67.6781L91.4444 68.4702L91.3448 69.1257L91.1186 69.59V69.9721L91.3191 70.2725L92.4472 70.8463L93.2743 70.955L93.7759 71.3923L94.1013 72.1022L94.6526 72.8386L95.3047 72.7843L95.7302 72.4839L96.2318 72.0474L96.8083 71.8288L97.6606 71.6105L98.763 71.5832L99.3647 71.8836L99.9411 72.4295L100.329 73.0162Z" fill="#005FA1" stroke="white" stroke-width="0.5"/>
<path d="M45.1942 99.5014L45.1504 100.088L44.7997 100.169L43.7221 100.251L43.0456 100.196L42.9451 100.741L43.1952 101.421L43.4467 101.693L43.7221 102.374L43.5716 103.381L43.1952 103.871L42.7445 104.171L42.4939 104.741L42.4687 105.095L42.7193 105.53V107.706L42.6693 108.191L42.5444 108.953L42.3438 109.605L42.1933 110.394L41.6917 111.264L41.8922 111.998L41.9423 112.488L41.7922 112.651L42.0428 113.358L42.4687 113.765L43.3962 114.771L43.8217 115.07L44.5239 115.206L45.0503 114.907L45.5515 114.799L45.8774 115.233L45.7021 116.103L45.1004 116.619L44.2481 116.809L42.9969 116.938L42.9198 116.945L39.6365 116.402L37.9323 115.994L33.4203 116.076L31.1654 114.853L29.6362 114.472L29.0845 114.281L28.6838 113.874L28.358 113.711L28.0573 113.928L27.2551 114.064L24.0465 113.955L23.1446 114.309L21.6154 114.364L19.5101 114.553L18.6331 114.2L17.706 113.983H17.1795L17.1459 113.836L17.4713 113.752L17.4315 113.286L17.2566 112.927L16.9834 112.842L16.8665 112.715L16.4964 112.504L16.6908 112.271V112.06L16.3392 111.89L16.0669 111.848L15.9301 111.699V111.425L16.086 111.382L16.418 111.509L16.6319 110.79L16.7882 111.001L17.0808 110.811L17.5492 110.895L17.7051 110.874L18.0168 110.599L18.3683 110.366L18.4657 109.964L18.9722 109.224L19.1095 108.651L19.3047 108.419L19.7143 107.763L19.9485 107.106L20.0454 107.001L20.1437 106.64L20.4753 106.048L20.5918 105.666L20.0069 105.603L19.6563 105.497L19.6363 105.243L19.8905 104.819L20.0649 104.629L20.2411 104.269L20.4359 104.015L20.6697 103.548L20.8459 103.338H20.9823L20.9238 103.019L21.1381 102.511L21.4117 101.664L21.5875 101.537L22.6793 101.515L22.6603 101.261L22.7962 100.499L22.972 100.308L23.459 99.1847L24.1421 98.295L24.2984 97.7437L24.4928 97.7229L25.1171 97.2993L25.6639 97.0237L26.2297 96.6844H26.4635L26.8146 96.4732L26.7946 96.028L26.912 95.6883L27.1262 95.2637L27.341 95.2849L27.7904 94.2256L27.5168 94.056L27.3804 93.5688L27.0882 93.9076H26.8146L26.5414 93.7379L26.6193 93.336L26.405 93.2286L26.2492 93.3987L26.347 93.7172L26.1124 93.7587H25.4292L25.1171 93.8016L24.8638 93.6536L24.8833 93.4839L25.0595 93.3139L25.176 93.0594L25.4881 92.6994L25.5461 92.5298L25.8392 92.1265L26.015 91.9997V91.83L26.3661 91.47L26.5613 91.1718L27.2236 91.2359L27.4773 91.1511L27.5756 90.8542L27.6531 90.3877L27.9847 90.0061L27.9458 89.8788L27.6735 89.688L28.0047 89.1999L28.4532 88.6269H29.7013L30.0333 88.585L30.4818 88.6269L30.6377 88.4361L30.8719 88.4149L30.9888 88.1605L30.6771 87.8848L30.9888 87.5455L31.184 87.227H31.3009L31.4377 86.973L31.8862 86.5273L31.984 86.1457L32.1988 85.8271L32.8031 86.1457L32.862 86.0604L33.2091 86.2556L33.5097 86.7738L33.9609 87.3189L34.4125 88.0275L34.6126 88.6813L35.0638 89.6898L34.8885 90.2353L35.0638 90.9709L35.6655 91.4064L36.442 91.8155L37.2191 92.1424L37.8455 92.551L38.5477 92.7144L39.4501 93.0413L40.2775 92.9596L40.7783 93.2591L41.3047 93.8038L41.5805 95.1661L42.1318 95.8195L42.2323 96.3646L42.0317 96.555L41.906 97.127L42.3576 98.4072L42.8083 98.4881L43.6105 98.7063L44.4628 98.7602L45.0641 99.4144L45.1942 99.5014Z" fill="#B1B1B1" stroke="white" stroke-width="0.5"/>
<path d="M42.997 116.938L43.0143 117.231L43.1812 117.457L43.3481 118.046L43.6824 118.793L43.9126 119.449L43.9958 120.061L43.6616 121.057L43.3065 121.216L43.0351 121.804L42.9935 123.049L43.0767 123.593L43.4526 123.887L43.5571 124.384V125.176L43.4322 125.538L43.1604 126.081L43.0143 126.647L42.7424 126.981L42.5543 127.547L42.3878 129.062L42.4294 129.56L42.7008 129.673L43.0767 129.311L43.2857 128.973L43.5571 128.791L43.7452 129.108L43.8081 129.719L44.0795 130.284L44.6644 130.488L45.3949 130.805L46.001 130.578L46.4606 130.307L46.8573 129.945L47.5471 129.922L47.8805 129.719L48.0895 129.334L48.3817 129.221L48.967 129.334L49.2805 129.764L49.3801 130.456L49.3008 130.782L49.0294 131.121L49.5098 131.867L49.6143 132.5V133.156L49.3008 133.518L48.8833 133.653L48.3405 133.427L47.8181 133.066H47.1708L46.7325 133.247H45.9594L45.4999 133.179L45.124 132.862L44.2673 133.291L43.7869 133.427L43.5363 132.908L43.4942 132.229L42.8677 131.935L42.3878 132.071L42.0119 132.296L41.7192 132.545L41.072 132.772L39.2337 132.727L38.1056 132.387L37.2705 132.229L36.0379 131.708L34.9939 131.121L34.263 130.329L33.7822 129.696L33.7197 129.131L33.3434 128.678L32.8426 128.339L31.8398 128.655L31.4015 128.927L29.6261 129.04L29.0412 129.199L28.1637 129.606L27.6001 129.402L26.9528 129.062L26.3259 129.018L25.4904 129.379L24.9888 130.307L24.1122 130.623L23.7779 130.827L23.6105 131.279L23.1935 131.708L22.5873 131.799L21.9604 132.003L21.6678 132.432L21.5008 133.087L21.2715 133.563L20.2687 133.586L19.6209 133.812L19.2455 134.106L18.7439 134.626L18.5982 135.213L18.2847 135.598L17.7623 135.868L17.4072 136.185L17.1358 136.546L16.5926 136.298L16.4048 135.824L16.0706 135.643L15.6942 135.801L15.4233 136.253L15.3812 137.315L15.1722 137.948L14.9009 138.309L14.5254 138.369L13.6687 138.437L12.9793 138.165L12.4365 137.916L12.0602 137.849L11.5586 137.939L11.2455 138.143L10.6607 138.119L10.2015 137.893L9.95095 137.555L8.86489 137.51L8.53727 137.364L8.47838 136.871L8.75244 136.828L8.82993 136.596L8.73297 136.258L8.08832 135.393L8.01129 135.139L8.08832 134.569L8.03033 134.168L8.24505 133.915L8.3035 133.387L8.10825 133.282V132.415L8.18573 131.782L8.57667 131.402L8.69311 131.044H8.55675L8.41995 131.359L8.12773 131.402L8.16625 130.874L8.12773 130.219L8.16625 129.67L8.06928 129.501L8.12773 129.205L8.18573 128.508L8.51778 127.726L8.81 127.283L8.86933 126.924L9.04421 126.585L9.06414 126.353L9.20051 125.994L9.35723 125.803L9.76633 124.832L10.1365 124.452L10.3711 124.007L10.6638 123.691L10.9949 123.564L11.1703 123.755L11.4443 123.733V123.479L10.6239 123.31L10.3313 123.373L10.1365 123.204L10.1564 122.676L10.2538 122.021L9.96114 121.978L9.68841 121.746L9.74684 121.535L9.98062 121.619V121.873L10.2339 121.915L10.3127 121.746L10.391 121.006L10.5075 120.435L10.6828 119.97L11.1318 119.991V119.484H10.8581L10.7218 119.209L10.5075 119.061L10.7612 118.532L10.5655 118.363L10.6049 118.067L10.8001 117.919L10.8581 117.623L10.9949 117.412L11.1703 117.432L11.5603 116.693L11.366 116.586L11.2292 116.861L11.0344 116.904L10.917 116.693L11.1127 116.439L11.3266 116.354L11.2686 116.057L11.1703 115.973L10.8781 116.142L10.5655 116.079L10.3313 116.248L10.1564 116.502L9.88322 116.333L10.1759 116.164L10.4296 115.888V115.677H10.8387L11.0153 115.444L11.6002 115.021L11.9508 114.852L12.282 114.598L12.6725 114.196L12.8868 114.281V114.534L13.2968 114.746L13.6284 114.852L13.55 115.043L13.7652 115.169L14.1362 114.683L14.2332 114.746L14.8181 114.704L14.8384 114.556L14.4869 114.493L14.2522 114.386L14.3505 114.239L14.7596 114.281L15.4423 114.45H15.7739L15.9887 113.942L16.0471 113.434L16.516 113.477L16.4761 113.815L16.7883 113.921L17.146 113.836L17.1796 113.983H17.7061L18.6332 114.2L19.5103 114.554L21.6155 114.364L23.1448 114.309L24.0466 113.955L27.2552 114.065L28.0575 113.928L28.3581 113.711L28.6839 113.874L29.0846 114.281L29.6363 114.472L31.1655 114.853L33.4204 116.076L37.9324 115.994L39.6366 116.402L42.92 116.945L42.997 116.938Z" fill="#B1B1B1" stroke="white" stroke-width="0.5"/>
<path d="M28.3389 138.23L28.8737 137.832L29.5751 137.578L30.1099 137.868L30.511 138.627L31.0459 138.953L31.4461 138.845L31.9477 138.808L32.3825 138.989L32.6499 139.351L33.1179 139.676L33.2848 140.218L33.6527 140.434L34.0198 140.76L33.8197 141.23L33.4522 141.664L33.0843 141.773L32.8505 142.315L32.4489 142.459L31.6471 142.206L31.4461 141.917L31.2128 141.881L30.9121 142.134L30.4105 142.676L30.043 143.362L29.2744 143.507L28.907 143.001L28.4726 142.603L28.1384 141.989L27.4366 141.7H26.3333L25.9999 141.591L26.0667 141.121L26.2332 140.869L26.2664 140.398L25.9326 140.001L25.5983 139.676V139.387L25.9326 139.062L26.3333 138.916H26.8013L27.3693 139.062L27.9378 138.518L28.3389 138.23Z" fill="#B1B1B1" stroke="white" stroke-width="0.5"/>
<path d="M49.3798 130.456L51.2141 130.391L51.682 130.535L52.2164 130.898L53.0191 131.079L53.8214 131.332L54.9575 131.368L55.5587 131.621L55.7593 132.237L55.8598 134.226L55.5924 134.769L55.2249 135.058L54.8906 135.528L54.9575 136.36L55.3249 136.903L55.8261 137.446L55.9935 138.386L56.1604 139.615L56.5283 140.446L57.0627 140.953L59.1684 141.205H59.8702L60.4045 140.88L61.6411 140.772L63.0446 140.843L63.7132 140.916L64.5491 141.097H65.1335L65.5346 141.313L65.4005 141.71L64.0634 141.639L63.529 142L62.794 142.217L61.3237 142.397L60.8225 142.975L60.4546 143.771L59.1848 144.493L58.6167 144.529L58.0487 144.963L57.6144 145.686L57.4142 146.444L56.8794 147.168L56.1777 148.323L55.3754 148.648L54.7742 148.611L54.4062 149.045L53.9383 149.912L53.4703 150.54L52.7017 150.793L51.7662 150.829L51.1649 151.407L50.9643 152.056L50.2294 152.563L49.7282 153.104L48.4248 153.573L47.7899 154.007L47.6894 154.909L46.9208 155.017L46.1185 154.909H45.6505L45.3494 154.512L43.478 154.584L43.4116 155.378L43.3111 155.956L43.2105 156.822L43.277 157.508L43.578 158.086L44.0124 158.59L44.1129 158.879L43.9455 159.24L43.7427 159.386L43.6444 159.456L42.8763 159.384L42.0404 159.493L41.7398 159.673L41.038 159.601L40.6369 159.24L39.9351 159.168L39.4671 159.312L38.7322 160.214L38.1309 160.286H37.5292L37.0949 159.817L36.3932 159.565L35.7251 159.528L35.3239 159.42L34.956 159.059L35.0229 158.229L35.424 157.977L35.5909 157.471L35.5245 156.858L35.3903 156.426L35.0229 155.92L34.9897 154.981L35.0561 154.295V153.538L35.7915 152.346L35.892 151.696L35.4576 151.046L34.9228 150.974L33.8536 150.577L33.6535 150.251L34.3548 149.421L34.0874 149.132L33.5193 149.125L32.5838 149.197L32.3832 148.944L32.35 148.33L33.1523 147.716L33.3196 147.427L32.9849 146.813L32.5842 147.03L31.4813 147.066L31.0134 146.668L30.3453 146.162L30.0106 145.838L29.6431 145.621L29.075 145.477L28.2732 145.909L27.6379 145.946L27.2036 145.657L26.8024 145.512L26.1011 145.693L25.7332 146.018L25.0983 146.199L23.6279 146.235L22.792 146.56L22.0903 147.066L21.6223 147.355L20.987 147.679H20.1183L19.8845 147.932L19.7176 148.438L18.5815 148.619L18.3141 148.98L18.2136 149.811L18.0131 150.207L16.9775 150.28L16.6764 150.496V151.327L16.4758 151.724L15.6067 151.904L14.9054 152.301L14.4042 152.988L14.1368 153.818L13.8694 154.287L13.1004 154.576H12.5159L12.2822 154.504L11.9479 154.179L11.6468 154.143L11.5468 154.539L11.1456 154.576L10.6776 154.179L10.3173 153.695L9.91612 153.276L9.66243 153.16L9.04436 152.988L8.96688 152.792L8.65431 152.434L8.16639 152.139L7.40621 152.202L6.99578 152.013L7.0157 151.339L7.32784 151.274L7.40621 151.106L7.30836 150.916H7.07458L7.38937 150.141L7.6165 149.737L7.67008 149.347L8.16462 149.13L8.97972 148.668L9.0603 148.249L9.31444 147.687L9.58186 147.455L9.72751 146.975L9.55219 146.194L9.45478 146.046L9.08377 146.173L8.96688 146.489L8.83008 146.384L8.75215 146.046L8.71275 145.204L8.77118 145.16L8.83008 144.612L8.63836 144.366L8.47101 143.986L8.52103 143.425V142.865L8.20536 142.566L7.79583 142.819L7.63953 142.629L7.65856 142.376L8.01055 142.017L8.15311 141.996V141.672L8.45816 140.836L8.69194 140.624L8.85044 140.328L8.78757 140.172L8.16906 139.919L7.09185 139.801L6.72172 139.464L6.6044 139.189L6.56543 138.768L6.58536 137.67L6.66283 137.459L6.85809 137.29H7.22822L7.83301 137.459L8.22351 137.48L8.53565 137.361L8.86328 137.507L9.94889 137.553L10.1995 137.891L10.6586 138.118L11.2435 138.141L11.5565 137.937L12.0581 137.847L12.4345 137.914L12.9777 138.163L13.6671 138.434L14.5238 138.366L14.8997 138.307L15.1711 137.946L15.38 137.313L15.4221 136.251L15.6931 135.799L16.0694 135.641L16.4037 135.822L16.5918 136.296L17.1351 136.544L17.4065 136.184L17.7616 135.867L18.284 135.596L18.5975 135.212L18.7431 134.624L19.2448 134.104L19.6207 133.81L20.2684 133.584L21.2712 133.561L21.501 133.086L21.6679 132.431L21.9601 132.002L22.587 131.798L23.1932 131.707L23.6102 131.278L23.7776 130.826L24.1119 130.622L24.9885 130.305L25.4901 129.378L26.3256 129.016L26.9525 129.061L27.5998 129.401L28.1634 129.605L29.0405 129.198L29.6254 129.039L31.4008 128.926L31.8391 128.654L32.8419 128.338L33.3431 128.677L33.7194 129.13L33.7819 129.695L34.2627 130.328L34.9937 131.12L36.0376 131.707L37.2698 132.228L38.1053 132.386L39.2334 132.726L41.0712 132.771L41.7189 132.544L42.0112 132.295L42.3875 132.069L42.8674 131.933L43.4939 132.227L43.536 132.906L43.7866 133.425L44.2669 133.29L45.1237 132.86L45.4995 133.177L45.9591 133.245H46.7321L47.1705 133.064H47.8178L48.3402 133.425L48.8834 133.651L49.301 133.516L49.6144 133.154V132.499L49.5099 131.865L49.0295 131.119L49.301 130.78L49.3798 130.456ZM28.3392 138.23L27.9385 138.518L27.37 139.061L26.802 138.916H26.334L25.9333 139.061L25.599 139.386V139.675L25.9333 140L26.2671 140.397L26.2339 140.868L26.0675 141.12L26.0006 141.59L26.3344 141.698H27.4373L28.1391 141.987L28.4738 142.602L28.9077 143L29.2751 143.505L30.0438 143.361L30.4112 142.674L30.9129 142.132L31.2135 141.879L31.4468 141.915L31.6478 142.205L32.4496 142.457L32.8512 142.313L33.0845 141.77L33.4524 141.662L33.8199 141.228L34.0201 140.758L33.653 140.432L33.2851 140.216L33.1182 139.673L32.6502 139.349L32.3828 138.987L31.9484 138.806L31.4468 138.843L31.0466 138.951L30.5117 138.625L30.1106 137.866L29.5758 137.577L28.8745 137.83L28.3392 138.23Z" fill="#B1B1B1" stroke="white" stroke-width="0.5"/>
<path d="M43.7425 159.385L44.1374 159.596L44.4048 160.011V160.444L44.0541 160.84L43.7699 161.363L43.352 161.815L43.2014 162.572L43.1182 163.203L42.3328 164.086L41.9148 164.498L41.5642 164.958L41.1878 165.12L40.6114 165.634L40.1354 166.365L39.7843 166.851L39.609 167.499L39.5842 168.203L39.3836 168.635L39.2831 169.284L38.7819 169.77L38.5066 170.311L37.7796 170.419L36.852 171.5L36.4513 171.635L35.1727 172.743L34.8468 172.932L34.4709 173.365L34.2203 174.04L33.5438 174.608L32.1904 175.607L31.9398 176.094L31.6391 176.553L30.8621 176.634L30.511 176.877V177.445L30.461 177.904L29.5082 178.579L29.4329 179.092L29.2328 179.416L28.744 180.614L28.5683 181.371L28.017 181.884L27.8917 182.262V182.936H26.9894L26.5383 182.722L26.0371 182.667L25.4606 182.722L24.9094 183.044L24.6836 183.396L24.2072 183.855L23.8814 184.314L23.4802 184.637L22.979 184.853L22.2525 184.881L21.2497 184.853L20.5984 184.664L19.9719 184.611L19.3702 184.421L18.6432 184.314L18.3174 184.071L17.9167 184.205L17.7657 184.503L17.4903 184.664L16.9387 184.314H15.4604L14.8334 183.585L13.2046 183.369L12.4147 183.126L12.0893 182.936L11.763 182.856L11.3295 182.841L11.1502 182.904L10.6234 183.303L10.4874 183.24L10.526 182.631L10.6234 182.19V181.412L10.4095 180.55L10.0589 179.877L9.76577 179.394L9.74628 179.206L9.60505 179.02L9.51208 178.722L9.37527 178.596L9.04365 178.07L8.51722 177.502L7.65874 176.725L6.93707 176.011L5.94223 175.19L5.72749 175.106L5.33787 174.812L5.02574 174.665L4.26467 174.181L4.10881 174.034L3.71876 173.844L3.13301 173.697L2.95812 173.571L3.09494 173.382L3.19234 172.918L2.95812 172.75L2.62651 173.045L2.27497 173.192L2.02172 172.876L1.78751 172.415L1.86588 172.268H2.21653L2.41178 172.141L2.39275 171.93L2.19704 171.405L2.4162 171.299L2.39275 171.132L2.11912 171.237L1.98232 170.816L0.909993 170.837L0.851096 171.132L0.578367 171.005L0.5 170.794L0.59785 170.5L0.616888 170.206L0.753692 169.553L0.715184 169.027L1.12384 168.711L1.70959 168.333L1.92431 168.143L2.31349 167.912L2.66547 167.786L3.34818 167.407L4.10704 167.344L4.22526 167.025L4.20579 166.818L4.30407 166.544L4.14823 165.934L3.79225 165.705L3.59169 165.309L3.4416 164.336L3.29107 163.956L3.04047 163.813L2.88994 163.506L2.94042 162.875L3.19234 162.674L3.42655 162.167L3.71876 161.703L3.75816 161.514L3.99149 161.008L4.08934 160.671L3.99149 160.461L4.08934 160.271L4.14823 159.534L4.15974 158.989L4.65516 158.692L5.12315 158.608L5.27944 158.398V158.123L5.59157 157.849L5.68897 157.617L6.07859 157.428L5.94223 157.238L5.7669 157.217L5.78594 156.649L6.03963 156.374L6.29376 156.354L6.64486 155.996L6.59925 155.76L6.26499 155.543L5.8643 155.218L5.79745 154.767L6.15695 154.416V154.163L5.74742 154.099V153.847L5.90282 153.657L6.17644 153.131L6.35265 152.54L6.4102 152.055L6.52753 152.013L6.97648 152.371L7.48342 152.414L7.56134 152.351L8.1657 152.182L8.69255 152.603L8.94625 153.014L9.04365 152.988L9.66128 153.161L9.91498 153.277L10.3165 153.696L10.6769 154.18L11.1449 154.577L11.546 154.54L11.6461 154.143L11.9467 154.18L12.281 154.504L12.5152 154.577H13.0996L13.8687 154.288L14.1361 153.818L14.4035 152.988L14.9047 152.302L15.606 151.905L16.4751 151.725L16.6757 151.327V150.497L16.9768 150.28L18.0123 150.208L18.2129 149.811L18.313 148.98L18.5808 148.619L19.7169 148.438L19.8838 147.933L20.1176 147.679H20.9863L21.6216 147.355L22.0896 147.065L22.7909 146.56L23.6268 146.235L25.0971 146.199L25.732 146.018L26.1 145.693L26.8013 145.512L27.2024 145.657L27.6372 145.946L28.2721 145.909L29.0739 145.476L29.6419 145.621L30.0094 145.838L30.3441 146.162L31.0122 146.668L31.4797 147.065L32.5831 147.03L32.9838 146.813L33.3185 147.427L33.1511 147.716L32.3489 148.33L32.3825 148.944L32.5831 149.196L33.5186 149.124L34.0866 149.132L34.354 149.421L33.6527 150.251L33.8529 150.576L34.9221 150.974L35.4569 151.046L35.8913 151.695L35.7912 152.346L35.0558 153.537V154.295L34.9889 154.981L35.0222 155.919L35.3901 156.425L35.5238 156.858L35.5906 157.471L35.4237 157.976L35.0222 158.229L34.9553 159.058L35.3232 159.42L35.7243 159.528L36.3924 159.564L37.0942 159.816L37.529 160.285H38.1307L38.7319 160.213L39.4673 159.312L39.9348 159.167L40.6366 159.239L41.0377 159.6L41.7395 159.672L42.0401 159.492L42.876 159.384L43.6442 159.456L43.7425 159.385Z" fill="#B1B1B1" stroke="white" stroke-width="0.5"/>
<path d="M28.1546 211.946L28.5646 211.894L28.8489 211.571L29.0994 211.193L29.1995 210.601L29.4169 210.17L29.5174 209.201L29.8185 208.142L30.0018 207.891L29.9185 207.226L29.2668 206.329H28.9161L28.9325 202.256L29.0158 201.339L29.1667 200.854L29.2331 200.423L29.5174 200.225L29.718 199.884L30.0354 198.896L30.0186 197.62L30.2528 197.188L30.3024 193.248L30.6034 192.385L31.0378 190.82L31.2884 189.255L31.7896 188.915L32.2575 188.932L32.6418 189.202L32.9929 189.184L33.3932 189.436L33.7111 189.759L34.4961 189.796L35.4152 189.417L36.0333 189.454L36.6181 189.741L37.3199 189.796L37.7037 189.597L38.1381 189.184L38.5728 188.591L38.7894 188.014L39.1573 187.636L40.1597 187.007L40.7613 186.539L41.2957 186.035L42.2149 185.981L43.0503 185.765L43.8189 185.712L44.2533 185.91L44.5207 186.395L44.6544 187.097L45.0551 187.348L45.5731 187.385L46.6591 187.115L47.1608 186.809L47.3945 186.323L47.8457 185.747H48.2973L49.1164 185.819L49.7008 185.963L51.2548 186.917L52.4914 188.59L52.9594 189.022H53.461L53.7949 188.806L54.1623 188.374L54.5635 188.014L54.973 187.852L55.3905 187.402L55.7744 187.061L56.4766 186.989L56.9445 187.169L57.212 187.474L57.5631 187.672L58.1475 187.457L58.9834 188.05L58.9927 188.098L59.2504 189.399L59.234 190.226L59.4177 190.604L60.019 190.963L60.8876 191.017L61.3561 191.341L61.573 191.682V193.192L61.7567 193.48L61.4893 193.804L61.3388 194.324V195.709L61.105 196.303L60.8713 196.662L60.8212 197.399L60.6038 197.812L60.3032 198.063H58.0727L57.6884 198.387L57.2708 199.339L56.9866 199.698L56.4518 199.859L55.8 199.95L55.499 200.111L54.7472 200.345L54.2128 200.291L53.9286 200.524V200.916L53.7612 201.203L53.4438 201.563L53.21 202.388L52.8421 202.874L52.6083 203.305L52.1403 203.916L52.0571 204.347L51.8734 204.832L51.5559 205.173L51.2384 205.694V207.059L50.9538 207.363L50.7532 207.777L50.8874 208.19L50.9206 208.585L50.4526 209.608L50.252 210.111L50.1688 210.61L50.4194 211.095L50.6368 211.346L50.9042 211.867L50.9874 212.602L51.5555 213.535L51.7724 214.038L51.7892 214.916L51.6719 215.383L51.2544 215.67L50.9701 216.083L51.037 216.694L51.2207 217.052L51.1707 217.447L51.455 217.787L51.7892 217.931L52.1899 218.344L52.491 218.81L53.276 219.635L53.4265 220.191L53.6266 220.439L53.4433 220.761L53.0922 221.12L52.2568 221.192L51.7551 221.371L51.5386 221.801L51.4045 222.393L51.2207 222.806L50.9365 223.684L50.7191 224.024L50.7359 224.58L51.1371 224.866L51.5214 225.225L51.9725 225.71L52.7407 226.05L53.1586 226.068L53.3924 226.48L54.0605 227.09L54.1442 227.896L54.1274 228.595L53.8099 228.863L53.4256 229.096L53.3087 229.364L53.542 229.723L53.8431 229.881L54.2274 230.239L54.5785 230.651L54.7791 231.117L54.4116 231.798L54.4448 232.389L54.8623 232.55H55.4636L56.566 233.123L56.817 233.482L57.1177 233.696L57.7694 233.786L58.2542 233.893L58.6549 234.198L58.9723 234.574L59.307 234.86L59.775 234.807L60.1093 234.538L60.5604 234.287L61.012 234.252L61.2604 234.18L61.3392 234.354V234.856L61.1635 235.086L61.0081 235.461L60.9881 235.88L61.0855 236.361L61.1829 236.528L61.1435 237.051L60.7344 237.489V237.824L60.8318 238.054L60.8128 238.535L60.9687 238.953V239.349L60.8128 239.684L60.8318 240.018L60.9886 240.206V240.645L60.8318 241.042L61.1435 241.334L61.1635 241.584L61.0461 241.753L60.4219 242.212L60.3838 242.483L60.4219 242.838L60.695 243.736L60.8903 243.987L61.0851 244.008L61.534 244.237L61.3392 244.488L61.2998 245.093L61.0855 245.407L60.8318 245.678L60.8128 246.493L60.9487 246.765L60.9297 247.308L60.9687 247.537V248.539L61.2423 249.145L61.3786 249.312L61.4371 249.624L61.2228 249.729L60.7154 250.146L60.579 250.334V250.898L60.2085 251.168L59.8374 251.273V251.899L59.7396 252.191L59.0768 252.505L58.8036 252.714L58.1997 252.984H57.7893L57.5551 253.173L57.4971 253.715L57.6534 253.861L57.6339 254.258L57.3802 254.925L57.3014 255.259L57.3413 255.802L57.5166 256.491L57.8287 256.991L57.8092 257.179L58.1599 257.45L58.5309 258.034V258.138L58.7647 258.514L58.7262 259.077L58.9599 259.473L59.1348 259.619L58.998 259.786L58.727 259.932H58.1413L57.8296 259.661L57.6928 259.202L57.6538 258.576L57.2633 258.598L56.8144 258.284L56.678 257.889L56.1122 257.367L55.9174 257.012L55.5273 257.158L55.0983 257.116L54.8645 256.886L54.8056 256.637L54.6688 256.616L54.5905 256.886L54.3173 256.866L54.2792 256.469L53.9086 256.324L53.2255 256.365L53.0692 256.262L52.8744 255.99L52.6597 255.948L52.348 255.76L52.1138 255.323L51.9185 255.218L51.6653 255.24L51.5869 255.386L51.3925 255.427L51.3336 255.635L50.9046 255.803L50.7488 256.012L50.6115 256.429L50.631 256.804L50.7284 256.992L50.7089 257.326H50.573L50.4552 257.556L50.2409 257.659L50.221 258.202L49.363 258.349L49.1491 258.224L48.7197 257.577L48.7392 257.18L48.6028 257.055L48.2318 257.16L48.1144 256.868V256.409L48.2118 256.138L48.2318 255.491L48.2712 255.428L48.2513 254.76L48.4855 254.322V253.884L48.2712 253.362L47.9582 253.07V252.882L47.8222 252.569L47.5296 252.486L47.12 252.047L46.8663 251.484L46.8473 251.274L46.7101 251.15L46.4958 250.628L46.3789 250.232L46.4174 249.856L46.5547 249.564L46.73 249.355L47.1395 249.125L47.0222 248.456L47.2564 247.977L47.7244 247.997L47.8811 247.747L47.94 247.433L47.9006 247.078L47.5889 246.097L47.4322 245.929L47.5495 245.742L47.7248 245.658L48.0374 245.638L48.6227 245.199L48.5443 244.865L48.4859 244.196L48.3106 243.988L48.2517 243.528L48.0573 243.194L48.1153 242.881L47.9586 242.776L47.8612 242.526L47.6668 242.463L47.53 242.213L47.6079 241.962L47.2569 241.628L47.2369 241.313L47.4322 240.938L47.1395 240.5L47.1205 240.228L47.1789 239.914L46.9642 239.35L46.9058 238.702L46.5551 237.887L46.3603 237.678L46.262 237.114L46.4373 236.801V236.55L46.0083 235.797L45.9109 235.777L45.6767 235.212L45.6572 234.941L45.365 234.439L44.7018 233.728L44.3117 233.393L43.9013 233.122L43.8428 232.976L43.9208 232.369L44.0381 232.222V231.972L43.9013 231.742L43.7645 231.282L43.706 230.926L43.4723 230.549L43.4134 230.278L43.3943 229.441L43.2775 229.19L43.0424 228.918L42.945 228.625L42.1653 227.768L41.7358 227.35L41.2475 226.994L40.8574 226.596L40.5457 225.99L40.428 225.551L40.1752 225.257L40.1167 225.091L39.8829 225.007L39.7851 224.693L39.5119 224.337L39.2587 224.191L39.0245 223.961L37.4244 222.789L36.9954 222.559L36.801 222.349L36.6057 222.306L36.1572 222.014L35.8451 221.889L35.513 221.658L33.9528 220.884L33.758 220.716L33.0173 220.297L32.861 220.172L32.2558 219.921L31.4367 219.439L30.305 218.602L30.0124 218.455L29.6033 217.952L29.1933 217.513L28.9396 217.094L29.1933 216.884H29.486L29.3297 216.654H29.1539L28.7829 216.926L28.6855 216.487L28.1436 216.215V212.318L28.1546 211.946Z" fill="#B1B1B1" stroke="white" stroke-width="0.5"/>
<path d="M58.9932 188.099L58.9839 188.05L58.148 187.458L57.5635 187.673L57.2124 187.475L56.945 187.169L56.477 186.99L55.7753 187.061L55.391 187.403L54.9735 187.853L54.5639 188.015L54.1628 188.375L53.7953 188.806L53.4615 189.023H52.9599L52.4919 188.591L51.2558 186.918L49.7017 185.965L49.1169 185.82L48.2982 185.748H47.8466L47.3959 186.324L47.1617 186.81L46.6605 187.116L45.574 187.385L45.0564 187.349L44.6553 187.098L44.522 186.396L44.2546 185.911L43.8203 185.712L43.0513 185.766L42.2162 185.982L41.2966 186.036L40.7623 186.54L40.1606 187.007L39.1582 187.637L38.7903 188.015L38.5738 188.591L38.139 189.184L37.7042 189.597L37.3204 189.796L36.6186 189.741L36.0337 189.454L35.4152 189.418L34.4961 189.796L33.7111 189.759L33.3932 189.436L32.9925 189.184L32.6419 189.202L32.2571 188.932L31.7896 188.915L31.2884 189.256L31.0374 190.82L30.603 192.385L30.302 193.248L30.2524 197.188L30.0182 197.62L30.035 198.896L29.7175 199.884L29.517 200.225L29.2327 200.423L29.1663 200.854L29.0153 201.339L28.9321 202.256L28.9153 206.329H29.2659L29.9177 207.227L30.0013 207.891L29.818 208.142L29.517 209.201L29.4165 210.171L29.1991 210.602L29.0995 211.194L28.8484 211.57L28.5646 211.894L28.1546 211.946L27.8213 211.947L27.6229 212.227L27.5707 216.172L27.4192 216.339L27.1656 216.361L26.8729 216.277L26.1902 215.941L25.4291 215.376L24.8057 214.978L23.9862 214.329L23.6546 213.993L23.4204 214.057L23.3035 213.763L22.8944 213.302L22.7182 213.24V213.009L22.4649 212.862L22.3476 212.59L21.9965 212.36L21.8017 212.066H21.5675L21.2164 211.668L20.8458 211.375H20.748L20.3964 211.018L19.9484 210.934L19.7611 210.691L19.8815 210.131L19.6274 209.599L18.9455 208.91L17.9702 207.76L16.9674 206.224L16.8872 205.635L16.9054 205.465L16.6318 205.234L16.7686 205.108L16.5733 204.605L16.2027 204.27L16.0469 203.829L15.93 203.725L15.8326 203.369L15.7936 202.676L15.8711 202.278L15.9885 202.069L16.2616 201.774L16.4564 201.754L16.827 201.418L16.8075 200.411L16.9439 200.16L17.0417 200.495L17.0608 200.81H17.2755L17.3924 200.579L17.334 200.306L17.4123 199.95L17.295 199.635V199.384L17.5296 199.3V198.944L17.1786 198.733L16.6313 199.255L16.2227 198.439V198.189L16.0279 197.6L15.8516 197.475L15.7936 197.243L15.5395 196.782L15.4421 196.404L15.1109 195.67L14.8767 195.335L14.8577 195.124L14.7009 194.957L14.6035 194.6L14.252 193.802L13.6866 192.376L13.2182 191.305L12.8866 191.41L12.516 191.326L12.458 190.905L12.7896 190.863L12.9455 190.716L12.3407 188.764L12.2238 188.617L12.048 188.113L11.8528 187.273H12.2047L12.516 187.399L12.8095 187.063L12.8476 186.518L13.0433 186.391L13.1013 185.929H12.7312L12.497 186.118L12.5554 186.391L12.419 186.433L12.516 186.874L12.1844 187L12.048 186.518L11.8337 186.58L11.99 187.063L11.8143 187.043L11.619 186.559L11.5601 186.223L11.3264 185.572L10.7215 184.038L10.6047 183.471L10.8579 183.198L11.3299 182.841L11.7633 182.856L12.0896 182.936L12.4151 183.126L13.2049 183.369L14.8338 183.585L15.4607 184.314H16.939L17.4907 184.664L17.7661 184.503L17.917 184.205L18.3177 184.071L18.6436 184.314L19.3706 184.422L19.9723 184.611L20.5988 184.664L21.25 184.854L22.2529 184.881L22.9794 184.854L23.4806 184.638L23.8817 184.314L24.2076 183.855L24.684 183.396L24.9098 183.045L25.461 182.722L26.0374 182.667L26.5386 182.722L26.9898 182.936H27.8921V182.262L28.0174 181.884L28.5686 181.371L28.7444 180.615L29.2332 179.416L29.4333 179.092L29.5086 178.579L30.4614 177.904L30.5114 177.445V176.877L30.8625 176.634L31.6395 176.553L31.9401 176.094L32.1907 175.607L33.5442 174.608L34.2207 174.04L34.4713 173.365L34.8472 172.933L35.173 172.743L36.4517 171.636L36.8524 171.5L37.7799 170.419L38.5069 170.311L38.7823 169.77L39.2835 169.284L39.384 168.635L39.5846 168.203L39.6093 167.5L39.7847 166.851L40.1358 166.365L40.6117 165.634L41.1882 165.12L41.5645 164.958L41.9152 164.498L42.3331 164.087L43.1185 163.203L43.2018 162.572L43.3523 161.815L43.7703 161.363L44.0545 160.841L44.4052 160.444V160.011L44.1377 159.596L43.7428 159.386L43.9456 159.239L44.1129 158.878L44.0124 158.59L43.5781 158.085L43.277 157.507L43.2106 156.822L43.3107 155.956L43.4112 155.378L43.4776 154.584L45.3491 154.512L45.6497 154.909H46.1177L46.9199 155.017L47.6886 154.909L47.7886 154.007L48.4235 153.573L49.727 153.104L50.2281 152.563L50.9631 152.057L51.1637 151.407L51.7654 150.829L52.7009 150.794L53.4695 150.54L53.9375 149.912L54.4054 149.045L54.7734 148.611L55.3746 148.648L56.1769 148.323L56.8786 147.167L57.4135 146.445L57.6136 145.686L58.0479 144.963L58.6164 144.529L59.1844 144.493L60.4542 143.771L60.8222 142.976L61.3233 142.398L62.7937 142.217L63.5286 142L64.063 141.639L65.4001 141.71L65.5232 141.345L67.1809 141.435L67.8158 141.76L68.5343 142.085L69.1528 142.537L69.2865 143.313L69.5371 143.729L69.7377 144.232L70.2052 144.304L70.4058 144.9L70.3057 146.363L69.8378 146.635L68.9018 146.996L68.618 147.519L68.2337 148.115L67.8494 148.35L67.5151 149.326L67.8158 149.524L68.4338 149.777L68.9018 150.174L69.6372 150.499L70.3726 151.005L71.2076 151.655L71.8093 152.088L71.943 152.648L71.8762 153.406L71.7292 153.548L71.5592 153.712L70.857 153.983L70.122 154.344L69.353 154.813L68.6012 155.203L67.6488 155.438L66.9303 155.655L66.279 155.672L65.9443 156.087L65.2934 157.134L64.5239 157.748L64.0564 158.289L63.6385 158.506L63.0372 158.596L62.6529 158.848L62.3022 159.154L62.2013 159.498L62.3687 159.804L62.4191 160.417L62.1681 160.94V162.246L62.3687 162.535L62.3523 162.878L62.1012 163.202L61.6501 163.473L61.45 163.923L60.5308 164.879L60.5809 170.081L60.2634 170.64L59.7286 171.378L59.4948 171.919L59.5448 172.262L59.8127 172.568L60.2129 173.27L60.2634 173.684L60.0465 174.063L59.2438 174.549L58.8263 174.837L58.6261 175.774L58.3755 176.116L58.0413 176.709L57.5565 177.25L57.1053 177.845L56.6542 178.493L56.253 178.997L56.0192 179.375V181.513L56.2867 181.946L56.4872 182.54L56.5536 183.655L56.972 185.114L57.3727 185.437L57.974 185.491L58.6425 185.654L59.1269 186.103L59.2942 186.661L59.261 187.686L58.9932 188.099Z" fill="#005FA1" stroke="white" stroke-width="0.5"/>
<path d="M102.909 144.587L102.791 144.993L102.596 145.479L102.46 145.625L102.401 146.174L102.284 146.386V146.701H102.09L101.952 146.955V147.313L101.835 147.356L101.738 148.114L101.621 148.515L101.6 148.831L101.699 149.063V149.379L101.542 149.674L101.601 149.99L101.464 150.138L101.289 150.602L101.308 151.593L101.191 151.845V152.351L101.015 152.54L100.919 152.772V153.088L100.411 153.004L100.118 153.131L99.8063 153.405L98.9279 154.732L98.9084 154.985L98.6552 155.174L98.4405 155.786L98.5197 156.101L98.4604 156.671L98.1682 156.797L97.9344 157.492V157.871L97.7391 158.84L97.6214 158.944L97.5585 159.242L97.6023 159.45L97.8366 159.408L97.9928 159.703L97.5824 160.166L97.3101 160.566L97.1344 160.671L96.7841 160.65L96.7053 160.882L96.4322 161.029L96.2568 161.619L96.2763 162.019L96.3932 162.25L96.4326 162.776L96.5499 163.029L96.8227 163.344L96.7638 163.724L97.0569 163.954L97.1149 164.397L97.0374 164.481L96.979 164.859L96.8222 165.238L96.5495 165.407L96.4906 165.595L96.5296 165.891L96.4322 166.353L96.5296 166.438L96.6664 166.943L96.8612 167.153L97.1144 167.301L97.3881 167.364L97.4075 167.491L96.8811 168.101L96.5884 168.164L96.2954 167.953L96.159 168.184V168.353L95.7295 168.795L95.5737 169.384L95.4568 169.489L94.9304 169.531L94.794 169.468H94.2083L93.955 169.699L93.6429 170.162V170.562L93.4091 170.751L93.5654 171.214L93.2922 171.319L92.9801 171.571L92.9013 171.802L92.8628 172.223L92.7844 172.37V172.938L92.6485 173.043L92.667 173.317L92.5311 173.569L92.2774 174.199L92.2376 174.599L92.3164 174.704L92.0627 174.893L92.1212 175.188L91.9658 175.44L91.7315 175.461L91.5367 175.588L91.5562 175.986L91.361 176.323L91.1666 176.386L91.0099 176.996L91.1276 177.122L91.0298 177.584L90.8155 177.836L90.7176 178.236L90.5228 178.425V178.636L90.2306 179.013L90.0748 179.035L89.8406 179.371L89.5873 179.602L89.5475 179.833L89.0215 180.233L88.7483 180.253L88.573 180.569L88.3197 180.695L88.105 181.22L88.0271 181.557L87.9686 182.124L87.7349 182.271L87.7145 182.565L87.5587 182.796L87.5786 182.985L87.3638 183.237L87.3244 183.447L86.9539 183.7L86.7785 183.952L86.7205 184.413L86.4469 184.624L86.369 184.981L86.2322 185.276L85.9205 185.737L85.8032 185.8L85.4716 185.779L85.2183 186.031L85.0231 186.452L85.1014 186.725L85.0231 186.892L84.7308 187.018L84.3793 186.767L84.0282 186.829L83.9693 186.998L83.5598 186.976L83.3845 187.082L83.0528 187.018L82.9935 187.229L82.5645 187.439L82.4476 187.649L82.116 187.88L81.8039 188.279L81.8428 188.636L81.7454 189.056L81.5307 189.329V189.56L81.6476 189.727L81.9407 189.874L81.9013 190.021L82.0376 190.441L82.1749 190.609L82.2723 191.008L82.448 191.428L82.5649 191.91V192.268L82.0381 192.666L81.7273 192.498L81.3558 192.813L81.142 193.15L81.122 193.527L80.9657 194.178L80.8095 194.367L80.5952 194.429L80.6731 194.807L80.9458 194.661L80.6926 195.144L79.9899 195.647L79.5999 195.731L79.0345 196.256L77.3569 198.039L76.9664 198.333L76.6352 198.396L75.8356 198.9L75.6408 199.067H75.2503L74.8408 199.214L74.6075 199.382L74.0217 199.696L73.6516 200.011L73.4763 200.054L72.6178 200.977L72.3446 201.186L71.3303 201.606L70.7839 201.983L70.316 202.592L70.0043 203.263L69.6332 204.207L69.5164 204.731L69.2631 205.653L69.1064 207.163L69.1458 207.687L69.0869 207.855L68.8133 208.085L68.502 208.482L68.3072 208.546L67.9557 208.902L67.7414 209.028L67.3898 209.385L67.1556 209.72L66.9422 210.223L66.8444 210.579L66.7076 210.851L66.5132 211.585L66.1621 212.611V212.758L65.8495 213.492L65.8106 213.701L65.6158 214.099L65.5374 214.643L65.3231 215.208L65.0893 216.193L64.9525 216.59L64.8157 217.302L64.6758 217.659L64.6368 217.973L64.2658 218.789L64.2269 218.999L63.9342 219.731L63.8563 220.067L63.603 220.694L63.2909 221.155L63.0567 221.804L62.9589 222.328L62.745 222.746L62.5887 222.913L62.374 223.541L62.335 223.918L62.1004 224.63L62.0623 225.173L61.6328 225.57L61.5739 225.863L61.2813 226.427L61.1839 226.826L61.0865 226.93L60.9112 227.704L60.8523 228.645V229.23L60.8137 229.649V231.092L60.8722 231.615L60.8917 232.242L60.9895 232.619V232.87L61.1068 233.33V233.832L61.2622 234.18L61.0139 234.252L60.5623 234.287L60.1111 234.539L59.7768 234.807L59.3088 234.861L58.9741 234.574L58.6567 234.198L58.256 233.893L57.7712 233.786L57.1195 233.697L56.8189 233.482L56.5678 233.124L55.4654 232.55H54.8641L54.4466 232.389L54.4134 231.799L54.7809 231.118L54.5803 230.651L54.2292 230.24L53.8449 229.881L53.5439 229.724L53.3105 229.365L53.4274 229.096L53.8117 228.863L54.1292 228.595L54.146 227.896L54.0623 227.09L53.3942 226.48L53.1604 226.068L52.7425 226.05L51.9743 225.71L51.5232 225.225L51.1389 224.867L50.7378 224.581L50.7209 224.025L50.9383 223.684L51.2226 222.806L51.4063 222.393L51.5404 221.801L51.757 221.371L52.2586 221.192L53.094 221.121L53.4451 220.762L53.6284 220.439L53.4283 220.191L53.2778 219.635L52.4928 218.81L52.1917 218.344L51.791 217.932L51.4568 217.788L51.1725 217.447L51.2226 217.053L51.0388 216.694L50.972 216.083L51.2562 215.67L51.6737 215.383L51.791 214.917L51.7742 214.039L51.5573 213.535L50.9892 212.603L50.906 211.867L50.6386 211.346L50.4212 211.095L50.1706 210.611L50.2538 210.111L50.4544 209.608L50.9224 208.585L50.8892 208.19L50.755 207.777L50.9556 207.364L51.2403 207.06V205.694L51.5577 205.174L51.8752 204.832L52.0589 204.348L52.1421 203.916L52.6101 203.305L52.8439 202.874L53.2118 202.388L53.4456 201.563L53.763 201.204L53.9304 200.916V200.525L54.2146 200.292L54.749 200.345L55.5008 200.111L55.8019 199.95L56.4536 199.86L56.9884 199.699L57.2727 199.34L57.6902 198.387L58.0745 198.064H60.305L60.6057 197.812L60.823 197.399L60.8731 196.663L61.1068 196.303L61.3406 195.709V194.325L61.4911 193.804L61.7586 193.481L61.5748 193.193V191.683L61.3579 191.341L60.8895 191.017L60.0208 190.963L59.4195 190.604L59.2358 190.226L59.2522 189.399L58.9945 188.099L59.2619 187.686L59.2951 186.66L59.1278 186.102L58.6434 185.652L57.9749 185.49L57.3736 185.436L56.9729 185.113L56.555 183.654L56.4886 182.539L56.288 181.945L56.0206 181.513V179.374L56.2539 178.996L56.655 178.492L57.1066 177.844L57.5578 177.249L58.0426 176.708L58.3769 176.114L58.6275 175.773L58.8276 174.836L59.2451 174.548L60.0478 174.062L60.2647 173.683L60.2143 173.269L59.814 172.566L59.5466 172.26L59.4966 171.918L59.7303 171.377L60.2652 170.639L60.5826 170.08L60.5326 164.878L61.4517 163.922L61.6519 163.471L62.103 163.201L62.3541 162.876L62.3704 162.534L62.1699 162.246V160.939L62.4209 160.416L62.3704 159.803L62.2031 159.497L62.304 159.154L62.6547 158.847L63.039 158.595L63.6402 158.505L64.0577 158.289L64.5257 157.747L65.2948 157.134L65.946 156.087L66.2808 155.672L66.932 155.654L67.6506 155.437L68.603 155.203L69.3547 154.813L70.1233 154.344L70.8583 153.982L71.5605 153.712L71.7305 153.548L72.0196 153.833L72.1865 154.464L72.5 154.848L72.7502 155.299L72.7294 156.224L72.9596 156.99L73.753 158.479L74.2754 158.952L75.0688 159.088L75.8631 159.471L76.6778 159.719L77.3667 160.148L77.7638 160.621L78.0348 161.231L78.4943 161.5L79.0575 161.725L79.4135 161.591L79.8518 161.207L80.2485 160.937H80.8546L81.0844 161.231L81.6693 161.546L81.9823 162.221L82.317 162.497L82.2957 163.308L82.4419 164.097L82.901 164.39L83.2773 164.796L83.4447 165.562L83.6014 165.855L84.2066 166.125L84.8756 166.733L86.3588 167.117L86.7139 167.433L86.9645 168.085L87.0685 168.897L87.4236 169.167L87.9456 169.212L88.3428 168.852L88.6978 168.694L89.8676 168.649L90.3905 168.379L90.7659 168.109L90.8292 163.94L91.0794 163.457L91.7271 162.848L92.1654 162.195L92.4368 161.541L92.9593 159.76L93.294 159.197L93.5025 158.701L93.7947 158.204L93.8992 157.46L94.0657 156.85L94.6094 156.49L95.0264 156.061L95.0477 154.73L95.1734 154.053L95.6326 153.647L95.9252 153.309L96.2591 152.492L96.8647 151.702L97.408 150.867L97.972 149.828L97.8884 149.445L96.9905 148.926L96.886 148.158L97.0533 147.504L97.4084 146.488L98.0557 145.336L98.3484 144.635L98.7659 144.161L99.3924 143.959L99.6642 143.665L100.541 143.507L101.898 143.733L102.316 144.162L102.775 144.433L102.909 144.587Z" fill="#B1B1B1" stroke="white" stroke-width="0.5"/>
<path d="M92.5213 83.7416L92.5926 84.1555L92.8923 84.4554L92.918 85.137L92.6674 85.437L91.5898 85.5735L91.2134 85.7913L90.8628 86.0638L90.5121 86.6094L89.5846 87.2093L88.9329 87.4271L88.607 88.0539L88.2811 88.899V89.8801L88.5065 90.4791L89.1587 90.6704L89.6094 91.0242L89.9857 91.6784L90.1858 92.087L90.7375 92.1144L91.0886 92.5504V93.5254L90.9381 94.0709L90.637 94.6152L89.7351 95.3781L89.3092 95.8675L88.7071 96.2218L88.4312 96.8482L88.3812 98.1832L88.2811 98.8356L87.93 99.3533L87.0029 101.259L87.0534 102.103L87.4537 102.375L87.6294 102.947L87.5794 106.103L87.7051 106.462L87.9553 106.87L87.88 107.306L87.5294 107.55L87.0787 108.04L86.9277 108.421L87.3788 109.29L87.3288 109.97L87.0277 110.325L86.3765 110.596L86.1259 111.031L85.7247 112.119L85.2736 112.636L85.1478 113.804L84.9977 114.756L84.1707 115.572L84.4213 116.278L84.3961 116.903L84.1955 117.148L83.7948 117.446L83.3184 117.528L82.9673 117.99L82.9173 118.561L83.1431 118.86L83.7195 119.104L84.346 119.811L84.6462 120.272L84.6723 120.924L84.8477 121.359L85.2231 121.875L85.2488 123.651L85.073 124.358L84.7724 125.253L84.6223 126.475L84.3708 127.533L84.1955 128.837L84.0197 129.895L83.5942 130.682L83.2188 131.225L82.6671 131.28H82.0907L81.539 131.741L80.9502 132.121L80.5491 132.257L80.0479 132.148L79.4462 132.202L79.1951 132.365V132.636L79.3713 132.908L79.672 133.64L79.6968 133.911L79.2961 134.183L79.1455 134.508L78.9955 134.997V136.846L78.419 137.009L77.8926 137.469L77.3661 137.633L76.9393 137.443L76.188 136.982L75.6368 137.036L74.9603 137.199L74.6092 137.335H74.0823L73.7569 137.416L73.4062 137.714L73.2305 138.23L73.0551 138.582L72.6288 138.853L72.3029 139.341L72.0275 139.883L71.927 140.344L71.626 140.534L71.6016 140.832L71.877 141.076L72.1776 141.456L72.2024 141.997L72.0776 142.405L71.6764 142.54L71.5511 142.703L71.2253 142.811L70.8994 143.054L70.4735 143.272L69.9971 143.326L69.7217 143.488L69.5358 143.727L69.2865 143.313L69.1528 142.537L68.5343 142.085L67.8157 141.76L67.1808 141.435L65.5232 141.344L65.5342 141.313L65.1327 141.096H64.5482L63.7123 140.915L63.0438 140.843L61.6407 140.771L60.4042 140.879L59.8698 141.204H59.168L57.0623 140.952L56.5279 140.446L56.16 139.614L55.9931 138.385L55.8257 137.445L55.3245 136.903L54.9571 136.36L54.8898 135.528L55.224 135.058L55.5915 134.769L55.8594 134.227L55.7589 132.237L55.5583 131.622L54.9571 131.368L53.8205 131.332L53.0187 131.079L52.216 130.898L51.6816 130.535L51.2141 130.391L49.3798 130.456L49.2802 129.764L48.9667 129.334L48.3814 129.221L48.0892 129.334L47.8802 129.719L47.5468 129.922L46.857 129.945L46.4603 130.307L46.0008 130.578L45.3947 130.804L44.6641 130.488L44.0793 130.284L43.8078 129.719L43.745 129.108L43.5568 128.791L43.2854 128.972L43.0764 129.311L42.7005 129.673L42.4291 129.56L42.3875 129.062L42.554 127.547L42.7422 126.981L43.014 126.647L43.1601 126.081L43.432 125.538L43.5568 125.176V124.384L43.4523 123.887L43.0764 123.592L42.9932 123.049L43.0348 121.804L43.3062 121.215L43.6613 121.057L43.9956 120.061L43.9123 119.449L43.6821 118.793L43.3478 118.046L43.1809 117.457L43.014 117.23L42.9967 116.938L44.2479 116.809L45.1002 116.619L45.7019 116.103L45.8772 115.233L45.5514 114.799L45.0502 114.907L44.5238 115.206L43.8216 115.07L43.3961 114.771L42.4685 113.765L42.0426 113.358L41.792 112.651L41.9421 112.488L41.8921 111.998L41.6915 111.264L42.1932 110.394L42.3437 109.605L42.5443 108.953L42.6691 108.19L42.7191 107.706V105.53L42.4685 105.095L42.4938 104.741L42.7444 104.171L43.1951 103.871L43.5714 103.381L43.722 102.374L43.4466 101.693L43.1951 101.421L42.9449 100.741L43.0454 100.196L43.722 100.251L44.7996 100.169L45.1503 100.088L45.1941 99.5013L45.5908 99.7681L46.3426 100.067L47.0943 100.421L47.7208 100.53H49.4254L50.2024 100.666L50.8041 100.829L51.3301 100.584L51.9318 100.367L52.3581 100.04L52.8337 99.3865L53.3853 98.9514L53.5611 98.4071L53.8369 97.6981L53.937 97.2082L54.3881 96.228L55.1899 95.6016L55.7164 95.5473L56.0923 95.3021L56.2924 94.594L56.3176 93.9128L56.4681 93.1773L56.8188 92.9052L57.0194 92.4144L57.1199 91.9788L57.3957 91.5976L57.9217 91.4615L58.298 91.761L58.6239 92.1144L59.0998 92.1966L59.551 92.387L59.8268 92.7691L59.9021 93.5863L60.0522 94.0223L60.3032 93.9402L60.6286 93.5046L60.7792 93.2316V92.497L60.9044 92.0605L61.3304 92.0332L61.4561 92.387L61.8816 92.6869L62.4585 92.7961L63.0097 92.7691L63.4609 92.5509L63.912 92.0605L64.639 91.5976L65.1902 91.3515L65.6418 91.3789L66.1178 91.7337L66.5937 91.8154L67.3712 91.7067L67.9224 91.4063L68.3231 91.0794L68.5489 90.5891L68.8247 89.4989L69 89.0907L69.3007 88.9489L70.6046 88.8941L72.1081 88.9758L72.7846 88.8124L73.2362 88.349L73.7618 87.913L74.4892 87.1227L74.8403 86.6315L75.0657 86.0864L75.3162 85.7864H76.1933L77.6216 85.7595L78.1232 85.5956L78.4239 85.0774L78.5496 84.7775L78.8502 84.3689L79.2257 84.3141L79.6525 84.1506L79.8902 83.8507L80.2666 83.7959L80.9931 84.3415L81.6444 84.5323L81.9207 84.3415L82.146 84.0958L82.3966 83.9872L83.3242 83.6868L83.9759 83.769L84.6772 84.0141L85.4547 83.9598L85.7805 83.5507L85.9806 83.0869L86.0559 82.5966L86.4318 82.1323L86.8582 82.1053L87.2341 82.4601L87.6852 83.0052L88.2112 83.1417L88.9386 83.2508L89.3893 83.0595L90.0158 82.8961L90.467 83.0326L90.9934 83.3868H91.395L92.0715 83.7416H92.5213Z" fill="#B1B1B1" stroke="white" stroke-width="0.5"/>
</svg>
