<svg width="22" height="30" viewBox="0 0 22 30" fill="none" xmlns="http://www.w3.org/2000/svg">
<path d="M11.2393 14.25C10.2447 14.25 9.29087 13.8549 8.58761 13.1516C7.88435 12.4484 7.48926 11.4946 7.48926 10.5C7.48926 9.50544 7.88435 8.55161 8.58761 7.84835C9.29087 7.14509 10.2447 6.75 11.2393 6.75C12.2338 6.75 13.1876 7.14509 13.8909 7.84835C14.5942 8.55161 14.9893 9.50544 14.9893 10.5C14.9893 10.9925 14.8923 11.4801 14.7038 11.9351C14.5154 12.39 14.2391 12.8034 13.8909 13.1516C13.5427 13.4999 13.1293 13.7761 12.6743 13.9645C12.2193 14.153 11.7317 14.25 11.2393 14.25ZM11.2393 0C8.45448 0 5.78377 1.10625 3.81464 3.07538C1.8455 5.04451 0.739258 7.71523 0.739258 10.5C0.739258 18.375 11.2393 30 11.2393 30C11.2393 30 21.7393 18.375 21.7393 10.5C21.7393 7.71523 20.633 5.04451 18.6639 3.07538C16.6947 1.10625 14.024 0 11.2393 0Z" fill="#EE2B00"/>
</svg>
