<svg width="24" height="25" viewBox="0 0 24 25" fill="none" xmlns="http://www.w3.org/2000/svg">
<path d="M21.5931 7.9198C21.4792 7.49721 21.2566 7.11181 20.9475 6.80197C20.6383 6.49214 20.2534 6.26866 19.8311 6.1538C18.2651 5.7238 12.0001 5.7168 12.0001 5.7168C12.0001 5.7168 5.73609 5.7098 4.16909 6.1208C3.74701 6.24095 3.36291 6.46758 3.05365 6.77894C2.7444 7.0903 2.52037 7.47593 2.40309 7.8988C1.99009 9.4648 1.98609 12.7128 1.98609 12.7128C1.98609 12.7128 1.98209 15.9768 2.39209 17.5268C2.62209 18.3838 3.29709 19.0608 4.15509 19.2918C5.73709 19.7218 11.9851 19.7288 11.9851 19.7288C11.9851 19.7288 18.2501 19.7358 19.8161 19.3258C20.2386 19.2111 20.6238 18.9882 20.9337 18.679C21.2436 18.3698 21.4675 17.985 21.5831 17.5628C21.9971 15.9978 22.0001 12.7508 22.0001 12.7508C22.0001 12.7508 22.0201 9.4858 21.5931 7.9198ZM9.99609 15.7218L10.0011 9.7218L15.2081 12.7268L9.99609 15.7218Z" fill="black"/>
</svg>
