<?xml version="1.0" encoding="utf-8"?>
<!-- Generator: Adobe Illustrator 26.3.1, SVG Export Plug-In . SVG Version: 6.00 Build 0)  -->
<svg version="1.1" id="圖層_1" xmlns="http://www.w3.org/2000/svg" xmlns:xlink="http://www.w3.org/1999/xlink" x="0px" y="0px"
	 viewBox="0 0 48 48" style="enable-background:new 0 0 48 48;" xml:space="preserve">
<style type="text/css">
	.st0{fill:#77B8B7;}
</style>
<path class="st0" d="M24,28c4.4,0,8-3.6,8-8s-3.6-8-8-8s-8,3.6-8,8S19.6,28,24,28z M24,16c2.2,0,4,1.8,4,4s-1.8,4-4,4s-4-1.8-4-4
	S21.8,16,24,16z"/>
<path class="st0" d="M22.8,43.6c0.3,0.2,0.7,0.4,1.2,0.4c0.4,0,0.8-0.1,1.2-0.4C25.8,43.2,40.1,32.9,40,20c0-8.8-7.2-16-16-16
	S8,11.2,8,20C7.9,32.9,22.2,43.2,22.8,43.6z M24,8c6.6,0,12,5.4,12,12c0,8.9-8.8,16.8-12,19.5C20.8,36.9,12,28.9,12,20
	C12,13.4,17.4,8,24,8z"/>
</svg>
