<svg width="24" height="25" viewBox="0 0 24 25" fill="none" xmlns="http://www.w3.org/2000/svg">
<path fill-rule="evenodd" clip-rule="evenodd" d="M16 3.95947H8C5.23858 3.95947 3 6.19805 3 8.95947V16.9595C3 19.7209 5.23858 21.9595 8 21.9595H16C18.7614 21.9595 21 19.7209 21 16.9595V8.95947C21 6.19805 18.7614 3.95947 16 3.95947ZM19.25 16.9595C19.2445 18.7521 17.7926 20.204 16 20.2095H8C6.20735 20.204 4.75549 18.7521 4.75 16.9595V8.95947C4.75549 7.16682 6.20735 5.71496 8 5.70947H16C17.7926 5.71496 19.2445 7.16682 19.25 8.95947V16.9595ZM16.75 9.20947C17.3023 9.20947 17.75 8.76175 17.75 8.20947C17.75 7.65719 17.3023 7.20947 16.75 7.20947C16.1977 7.20947 15.75 7.65719 15.75 8.20947C15.75 8.76175 16.1977 9.20947 16.75 9.20947ZM12 8.45947C9.51472 8.45947 7.5 10.4742 7.5 12.9595C7.5 15.4448 9.51472 17.4595 12 17.4595C14.4853 17.4595 16.5 15.4448 16.5 12.9595C16.5027 11.7652 16.0294 10.619 15.1849 9.77455C14.3404 8.93006 13.1943 8.45681 12 8.45947ZM9.25 12.9595C9.25 14.4783 10.4812 15.7095 12 15.7095C13.5188 15.7095 14.75 14.4783 14.75 12.9595C14.75 11.4407 13.5188 10.2095 12 10.2095C10.4812 10.2095 9.25 11.4407 9.25 12.9595Z" fill="black"/>
</svg>
